<svg width="184" height="173" viewBox="0 0 184 173" fill="none" xmlns="http://www.w3.org/2000/svg">
<path opacity="0.08" d="M153.378 46.0419C170.014 83.1428 153.899 126.492 117.383 142.865C80.8683 159.239 37.7808 142.436 21.145 105.335C4.50907 68.2339 105.453 182.441 89.7999 81.3493C74.1471 -19.7424 136.742 8.94103 153.378 46.0419Z" fill="black"/>
<g clip-path="url(#clip0_297_1095)">
<path d="M93.6675 79.4897H53.3789L61.446 128.697H93.949L93.6675 79.4897Z" fill="white"/>
<path d="M93.6675 80.708H53.3789L61.446 128.697H93.949L93.6675 80.708Z" fill="#219F94"/>
<path d="M93.9489 128.922H61.4458C61.3356 128.922 61.2415 128.842 61.2237 128.733L53.1568 79.5258C53.1461 79.4607 53.1645 79.3942 53.2073 79.3439C53.2501 79.2937 53.3128 79.2646 53.3788 79.2646H93.6674C93.7911 79.2646 93.8917 79.3646 93.8924 79.4881L94.1739 128.695C94.1742 128.755 94.1507 128.813 94.1084 128.855C94.0662 128.898 94.0087 128.922 93.9489 128.922ZM61.637 128.472H93.7225L93.4436 79.7143H53.6437L61.637 128.472Z" fill="#1A1A1A"/>
<path d="M71.3577 102.672C71.2952 99.7349 73.5309 99.7584 74.9066 98.2588C75.5945 97.5089 75.5547 95.9845 76.4544 95.1892C77.6739 94.1113 78.9354 95.2051 79.8626 94.1113C81.0742 92.682 79.7688 83.5669 85.3657 82.6296C91.067 81.6749 89.5556 91.487 89.6182 93.7364C89.6807 95.9859 89.2429 104.171 89.2429 104.171L71.3577 102.672Z" fill="#1A1A1A"/>
<path d="M89.2434 104.396C89.2371 104.396 89.2309 104.396 89.2246 104.395L71.3394 102.896C71.2245 102.886 71.1356 102.791 71.1332 102.677C71.0879 100.549 72.2181 99.8548 73.3109 99.1839C73.8085 98.8784 74.323 98.5625 74.7411 98.1067C75.0205 97.8023 75.1738 97.3294 75.3361 96.829C75.5487 96.1733 75.7686 95.4954 76.3056 95.0207C76.9774 94.427 77.6608 94.4277 78.263 94.4314C78.8389 94.4337 79.2936 94.4349 79.6911 93.9659C80.0152 93.5837 80.152 92.4341 80.3104 91.103C80.6901 87.9115 81.2641 83.0885 85.3288 82.4078C86.5091 82.2102 87.482 82.4442 88.2216 83.1032C90.2715 84.9292 90.0341 89.5278 89.8923 92.2754C89.8612 92.8785 89.8343 93.3995 89.8434 93.73C89.9055 95.9628 89.4723 104.101 89.4679 104.183C89.4648 104.244 89.437 104.301 89.3911 104.341C89.3499 104.376 89.2974 104.396 89.2433 104.396L89.2434 104.396ZM71.5826 102.465L89.0308 103.928C89.101 102.579 89.4493 95.7456 89.3937 93.7425C89.384 93.394 89.41 92.8901 89.443 92.2521C89.5717 89.76 89.811 85.1214 87.9222 83.4388C87.2804 82.867 86.4562 82.6749 85.4034 82.8513C81.6713 83.4762 81.1431 87.915 80.7574 91.156C80.5835 92.617 80.4462 93.771 80.0347 94.2565C79.5019 94.8851 78.8721 94.8836 78.2616 94.881C77.6894 94.8776 77.1473 94.8771 76.6039 95.3574C76.1589 95.7507 75.9583 96.3693 75.7643 96.9675C75.5864 97.5158 75.4186 98.0338 75.0729 98.4105C74.6122 98.9125 74.0705 99.2452 73.5465 99.5668C72.5113 100.202 71.6121 100.755 71.5826 102.465Z" fill="#1A1A1A"/>
<path d="M94.2267 103.015C94.2267 91.1601 94.4353 72.6361 103.462 53.4562C105.561 48.9971 110.062 46.1618 114.993 46.1618L134.829 42.5605C142.899 42.5605 148.152 48.3092 146.526 53.0581C142.619 64.4695 137.896 80.6141 139.054 102.996L94.2266 103.015H94.2267Z" fill="#1A1A1A"/>
<path d="M94.2271 103.24C94.1675 103.24 94.1101 103.216 94.0679 103.174C94.0257 103.132 94.002 103.075 94.002 103.015C94.002 96.3555 94.0974 89.1661 95.2368 80.9518C96.6326 70.8897 99.2566 61.8647 103.259 53.3607C105.379 48.8571 109.975 45.9449 114.973 45.9372L134.789 42.3395C134.803 42.3372 134.816 42.3359 134.829 42.3359C139.346 42.3359 143.489 44.2045 145.641 47.2122C147.003 49.1172 147.393 51.2192 146.739 53.1311C142.426 65.7274 138.167 81.5008 139.279 102.984C139.282 103.046 139.26 103.106 139.217 103.151C139.175 103.195 139.116 103.221 139.054 103.221L94.227 103.24H94.2271ZM134.85 42.7856L115.034 46.3834C115.021 46.3857 115.007 46.387 114.994 46.387C110.161 46.387 105.715 49.1996 103.666 53.5523C94.5132 72.9995 94.4523 91.5879 94.452 102.79L138.818 102.771C137.745 81.3321 142.002 65.5762 146.313 52.9855C146.919 51.2147 146.551 49.2573 145.275 47.4737C143.209 44.5864 139.216 42.7911 134.85 42.7856H134.85Z" fill="#1A1A1A"/>
<path d="M82.9741 103.015C82.9741 90.4091 83.1959 70.7118 92.7948 50.317C95.0263 45.5755 99.8123 42.5605 105.056 42.5605H134.83C137.907 42.5605 140.005 45.6742 138.844 48.5216C134.004 60.3995 129.397 78.1968 130.11 103.015H82.9741Z" fill="white"/>
<path d="M84.5601 103.015C84.5601 90.4091 84.7818 70.7118 94.3807 50.317C96.6123 45.5755 101.398 42.5605 106.642 42.5605H134.83C137.906 42.5605 140.005 45.6742 138.844 48.5216C134.004 60.3995 129.397 78.1968 130.11 103.015H84.5601Z" fill="#219F94"/>
<path d="M130.11 103.24H82.974C82.8498 103.24 82.749 103.139 82.749 103.015C82.749 95.9341 82.8504 88.2899 84.0619 79.5562C85.5458 68.8583 88.3357 59.2627 92.5911 50.2216C94.8457 45.4313 99.7385 42.3359 105.056 42.3359H134.83C136.35 42.3359 137.765 43.0886 138.614 44.3494C139.462 45.6091 139.626 47.2007 139.053 48.6066C132.68 64.2446 129.748 82.5482 130.335 103.009C130.337 103.07 130.314 103.128 130.272 103.172C130.23 103.216 130.171 103.24 130.11 103.24ZM83.1991 102.79H129.879C129.318 82.3608 132.264 64.0738 138.636 48.4371C139.152 47.17 139.004 45.7356 138.24 44.6003C137.475 43.464 136.2 42.7855 134.829 42.7855H105.056C99.912 42.7855 95.1791 45.7795 92.9982 50.4131C83.2606 71.1025 83.1994 90.8786 83.199 102.79H83.1991Z" fill="#1A1A1A"/>
<path d="M125.514 57.781C125.072 57.781 124.63 57.613 124.294 57.2768C123.621 56.6044 123.621 55.5104 124.294 54.8381C124.62 54.5124 125.053 54.333 125.514 54.333C125.975 54.333 126.409 54.5124 126.734 54.8381C127.06 55.1637 127.24 55.5968 127.24 56.0575C127.24 56.5182 127.06 56.9511 126.734 57.2769C126.398 57.6131 125.956 57.7811 125.514 57.7811V57.781ZM125.514 54.7826C125.173 54.7826 124.853 54.9152 124.612 55.1559C124.114 55.6529 124.114 56.4617 124.612 56.9588C125.11 57.4559 125.919 57.4559 126.416 56.9588C126.657 56.7179 126.79 56.3978 126.79 56.0573C126.79 55.7168 126.657 55.3966 126.416 55.1558C126.175 54.915 125.855 54.7825 125.514 54.7825L125.514 54.7826Z" fill="#1A1A1A"/>
<path d="M107.233 73.7216C106.791 73.7216 106.349 73.5535 106.013 73.2174C105.687 72.8917 105.507 72.4585 105.507 71.998C105.507 71.5374 105.687 71.1042 106.013 70.7785C106.339 70.4529 106.772 70.2734 107.233 70.2734C107.694 70.2734 108.128 70.4529 108.454 70.7785C109.126 71.4508 109.126 72.5449 108.454 73.2173C108.117 73.5534 107.675 73.7215 107.233 73.7215V73.7216ZM107.233 70.7231C106.892 70.7231 106.572 70.8558 106.331 71.0965C106.09 71.3372 105.957 71.6573 105.957 71.998C105.957 72.3386 106.09 72.6585 106.331 72.8994C106.828 73.3962 107.638 73.3965 108.135 72.8994C108.633 72.4023 108.633 71.5936 108.135 71.0966C107.894 70.8558 107.574 70.7232 107.233 70.7232L107.233 70.7231Z" fill="#1A1A1A"/>
<path d="M99.1552 57.781C98.7132 57.781 98.2713 57.613 97.9348 57.2768C97.262 56.6044 97.262 55.5104 97.9348 54.8381C98.2607 54.5124 98.6942 54.333 99.1552 54.333C99.6161 54.333 100.05 54.5124 100.376 54.8381C100.702 55.1637 100.881 55.5968 100.881 56.0575C100.881 56.5182 100.702 56.9511 100.376 57.2769C100.039 57.6131 99.5972 57.7811 99.1552 57.7811V57.781ZM99.1552 54.7826C98.8145 54.7826 98.4941 54.9152 98.253 55.1559C97.7556 55.6529 97.7556 56.4617 98.253 56.9588C98.7506 57.4559 99.5599 57.4559 100.057 56.9588C100.298 56.7179 100.431 56.3978 100.431 56.0573C100.431 55.7168 100.298 55.3966 100.057 55.1558C99.8164 54.915 99.496 54.7825 99.1551 54.7825L99.1552 54.7826Z" fill="#1A1A1A"/>
<path d="M92.2973 90.4793C91.8363 90.4793 91.4029 90.2999 91.0769 89.9743C90.4041 89.302 90.4041 88.2079 91.0769 87.5355C91.7497 86.863 92.8447 86.8633 93.5176 87.5355C93.8435 87.8612 94.0231 88.2944 94.0231 88.7549C94.0231 89.2155 93.8435 89.6487 93.5176 89.9744C93.1917 90.3 92.7582 90.4795 92.2972 90.4795L92.2973 90.4793ZM92.2973 87.4807C91.9705 87.4807 91.6438 87.6048 91.3951 87.8533C90.8976 88.3505 90.8976 89.1592 91.3951 89.6562C91.6362 89.897 91.9565 90.0296 92.2973 90.0296C92.6381 90.0296 92.9585 89.8969 93.1995 89.6562C93.4405 89.4154 93.5731 89.0954 93.5731 88.7547C93.5731 88.4141 93.4404 88.0941 93.1995 87.8532C92.9508 87.6048 92.6241 87.4806 92.2973 87.4806V87.4807Z" fill="#1A1A1A"/>
<path d="M98.0938 55.2221C98.0036 55.2221 97.9186 55.1675 97.884 55.0785C97.2529 53.4548 98.1184 52.1439 98.1555 52.0888C98.2251 51.986 98.3647 51.9588 98.468 52.0282C98.5709 52.0977 98.598 52.2374 98.5286 52.3404C98.4972 52.3873 97.7597 53.5168 98.3035 54.9157C98.3485 55.0314 98.2911 55.1617 98.1751 55.2067C98.1484 55.2171 98.1209 55.2221 98.0936 55.2221H98.0938Z" fill="#1A1A1A"/>
<path d="M100.216 55.2222C100.172 55.2222 100.128 55.2093 100.089 55.1825C99.9863 55.1121 99.9604 54.9721 100.031 54.8698C101.089 53.3327 102.478 52.721 102.537 52.6958C102.651 52.6465 102.783 52.6989 102.832 52.813C102.882 52.9271 102.829 53.0593 102.715 53.1086C102.702 53.1142 101.383 53.699 100.402 55.1248C100.358 55.1881 100.288 55.2222 100.216 55.2222Z" fill="#1A1A1A"/>
<path d="M96.3727 59.5938C96.3526 59.5938 96.3324 59.5912 96.3121 59.5856C96.1925 59.5522 96.1224 59.4285 96.1557 59.3089C96.176 59.236 96.6682 57.5133 98.0015 56.9129C98.1146 56.8621 98.248 56.9121 98.2992 57.0255C98.3503 57.1387 98.2999 57.2718 98.1866 57.3229C97.0472 57.8361 96.5937 59.4137 96.5894 59.4295C96.5616 59.5289 96.4711 59.5939 96.3727 59.5939V59.5938Z" fill="#1A1A1A"/>
<path d="M101.344 60.2814C101.284 60.2814 101.225 60.2579 101.181 60.2116C101.128 60.1564 99.8954 58.8403 99.9917 57.1055C99.9987 56.9814 100.107 56.8868 100.229 56.8934C100.353 56.9004 100.448 57.0064 100.441 57.1303C100.356 58.6674 101.496 59.8896 101.507 59.9016C101.592 59.9918 101.589 60.134 101.499 60.2194C101.455 60.2607 101.399 60.2813 101.344 60.2813L101.344 60.2814Z" fill="#1A1A1A"/>
<path d="M124.453 55.222C124.386 55.222 124.32 55.1925 124.276 55.1362C123.239 53.8199 123.499 52.3304 123.51 52.2676C123.533 52.1455 123.649 52.0647 123.772 52.0873C123.894 52.1098 123.975 52.2269 123.953 52.3491C123.95 52.362 123.722 53.7059 124.629 54.858C124.706 54.9556 124.689 55.097 124.592 55.1738C124.55 55.2063 124.501 55.222 124.453 55.222Z" fill="#1A1A1A"/>
<path d="M122.543 59.7815C122.522 59.7815 122.5 59.7785 122.479 59.7718C122.36 59.7361 122.292 59.611 122.328 59.4921C122.348 59.425 122.839 57.837 124.335 56.926C124.442 56.8612 124.58 56.895 124.645 57.001C124.709 57.107 124.676 57.2455 124.57 57.3101C123.224 58.129 122.763 59.6069 122.759 59.6218C122.729 59.7189 122.64 59.7816 122.543 59.7816V59.7815Z" fill="#1A1A1A"/>
<path d="M127.078 60.2188C127.002 60.2188 126.928 60.1807 126.886 60.1116C126.849 60.0523 125.998 58.6407 126.356 57.0679C126.383 56.947 126.505 56.8713 126.625 56.8986C126.746 56.9262 126.822 57.0467 126.795 57.1679C126.477 58.5637 127.261 59.8636 127.269 59.8765C127.334 59.9823 127.301 60.1208 127.195 60.1858C127.159 60.2083 127.118 60.219 127.078 60.219L127.078 60.2188Z" fill="#1A1A1A"/>
<path d="M126.575 55.2221C126.559 55.2221 126.542 55.2203 126.526 55.2166C126.404 55.1893 126.328 55.069 126.356 54.9478C126.717 53.3436 128.146 52.4084 128.206 52.3692C128.311 52.3021 128.45 52.3323 128.517 52.4366C128.585 52.5409 128.554 52.6801 128.45 52.7474C128.437 52.7559 127.115 53.6255 126.795 55.0466C126.771 55.1512 126.678 55.2221 126.575 55.2221Z" fill="#1A1A1A"/>
<path d="M106.172 71.1626C106.086 71.1626 106.004 71.1127 105.966 71.0288C105.258 69.4328 106.057 68.0602 106.091 68.0024C106.154 67.8958 106.292 67.8607 106.399 67.9242C106.506 67.9878 106.541 68.1258 106.478 68.2325C106.471 68.2442 105.766 69.4684 106.378 70.8466C106.428 70.9601 106.377 71.0929 106.263 71.1433C106.233 71.1564 106.202 71.1627 106.172 71.1627L106.172 71.1626Z" fill="#1A1A1A"/>
<path d="M108.294 71.1623C108.267 71.1623 108.239 71.1572 108.212 71.1466C108.097 71.1013 108.04 70.9709 108.085 70.8552C108.656 69.4011 109.942 68.4446 109.997 68.4045C110.097 68.3309 110.238 68.3526 110.311 68.4524C110.385 68.5525 110.364 68.6931 110.264 68.7668C110.251 68.7759 109.026 69.6893 108.504 71.0194C108.469 71.108 108.384 71.1623 108.294 71.1623Z" fill="#1A1A1A"/>
<path d="M109.255 76.1839C109.181 76.1839 109.109 76.1478 109.066 76.0814C109.019 76.0097 107.93 74.3123 108.071 73.0336C108.084 72.9101 108.197 72.8219 108.319 72.8347C108.443 72.8483 108.532 72.9594 108.518 73.083C108.395 74.2019 109.433 75.8207 109.444 75.8369C109.511 75.9411 109.481 76.0803 109.377 76.1478C109.339 76.1724 109.297 76.1839 109.255 76.1839Z" fill="#1A1A1A"/>
<path d="M104.815 75.965C104.812 75.965 104.809 75.965 104.806 75.965C104.682 75.96 104.585 75.8559 104.59 75.7321C104.592 75.6601 104.672 73.9603 106.032 72.8822C106.129 72.805 106.271 72.8214 106.348 72.9185C106.425 73.0158 106.409 73.1572 106.311 73.2344C105.117 74.1813 105.04 75.7337 105.039 75.7494C105.034 75.8702 104.935 75.965 104.815 75.965Z" fill="#1A1A1A"/>
<path d="M91.2362 87.9195C91.1534 87.9195 91.0738 87.8737 91.0345 87.7947C90.2287 86.1732 90.7584 84.5769 90.7814 84.5097C90.8214 84.3922 90.9488 84.3293 91.067 84.3696C91.1846 84.4096 91.2475 84.5374 91.2072 84.655C91.2024 84.6694 90.7175 86.1457 91.4375 87.5946C91.4928 87.7058 91.4474 87.8407 91.3362 87.896C91.304 87.912 91.2698 87.9195 91.2362 87.9195Z" fill="#1A1A1A"/>
<path d="M93.3585 87.9191C93.3514 87.9191 93.3444 87.9188 93.3373 87.9181C93.2135 87.9064 93.1227 87.7968 93.1343 87.6731C93.2773 86.1553 94.4116 84.9745 94.4598 84.9251C94.5463 84.8359 94.6886 84.8341 94.7777 84.9206C94.8668 85.0071 94.869 85.1493 94.7825 85.2385C94.7718 85.2495 93.7101 86.3582 93.5823 87.7153C93.5713 87.8318 93.4733 87.9191 93.3585 87.9191Z" fill="#1A1A1A"/>
<path d="M90.2124 92.8988C90.0898 92.8988 89.9894 92.8005 89.9875 92.6774C89.9861 92.5901 89.9676 90.5251 91.097 89.6385C91.1946 89.5616 91.336 89.5786 91.4129 89.6764C91.4897 89.774 91.4727 89.9154 91.375 89.9921C90.4214 90.7407 90.4372 92.6516 90.4375 92.6708C90.4393 92.7949 90.3401 92.897 90.2158 92.8988H90.2124Z" fill="#1A1A1A"/>
<path d="M94.2271 92.8988C94.1588 92.8988 94.0913 92.8679 94.0471 92.8092C93.9995 92.746 92.885 91.2463 93.1365 89.7772C93.1575 89.6549 93.2742 89.5731 93.3963 89.5934C93.5188 89.6145 93.6011 89.7307 93.5802 89.853C93.3611 91.1329 94.3962 92.5248 94.4066 92.5387C94.4813 92.638 94.4614 92.779 94.3622 92.8536C94.3217 92.8841 94.2741 92.8988 94.2271 92.8988Z" fill="#1A1A1A"/>
<path d="M61.9118 84.0009L61.911 84.0015C60.0538 81.2783 56.9256 79.4897 53.379 79.4897C47.6803 79.4897 43.0605 84.1057 43.0605 89.7998C43.0605 91.5327 43.4903 93.1643 44.2462 94.5978C44.2458 94.5979 44.2445 94.5986 44.2445 94.5986C44.2501 94.6081 44.2555 94.6174 44.2611 94.6269C44.3885 94.8665 44.5258 95.0999 44.671 95.3279C51.4099 106.929 53.2364 114.46 53.5232 125.191C53.5753 127.141 55.1659 128.697 57.1179 128.697H64.722C66.5245 128.697 68.0513 127.365 68.2865 125.579C69.8442 113.748 70.2076 94.8189 61.9117 84.001L61.9118 84.0009Z" fill="#219F94"/>
<path d="M64.7221 128.922H57.118C55.0319 128.922 53.3542 127.285 53.2983 125.197C53.0336 115.292 51.5494 107.617 44.4764 95.4405C44.3283 95.2084 44.1875 94.9674 44.0624 94.732L44.0547 94.7194C44.0486 94.709 44.0432 94.698 44.0389 94.6866C43.2515 93.1872 42.8354 91.4978 42.8354 89.7996C42.8354 83.9905 47.5653 79.2646 53.3789 79.2646C56.8623 79.2646 60.1152 80.9811 62.0852 83.8574C62.087 83.8596 62.0886 83.8616 62.0904 83.8638C71.2688 95.833 69.6371 117.044 68.5095 125.608C68.261 127.497 66.6326 128.922 64.7221 128.922ZM44.4532 94.5094L44.4547 94.5118C44.5794 94.7461 44.7144 94.9767 44.8609 95.2067C51.987 107.474 53.4815 115.206 53.7482 125.184C53.7974 127.028 55.2776 128.472 57.118 128.472H64.7221C66.4076 128.472 67.8441 127.215 68.0633 125.549C69.1831 117.045 70.8072 95.9928 61.7457 84.1537C61.7383 84.1457 61.7313 84.137 61.725 84.1277C59.8401 81.3642 56.7202 79.7142 53.3789 79.7142C47.8134 79.7142 43.2855 84.2384 43.2855 89.7995C43.2855 91.431 43.6865 93.0538 44.4452 94.4925C44.4482 94.4982 44.4508 94.5039 44.4532 94.5094Z" fill="#1A1A1A"/>
<path d="M102.25 114.965H64.2599C62.0688 118.415 61.6814 122.65 63.0978 126.378C63.6281 127.774 64.9669 128.696 66.4608 128.696H102.25C104.912 124.506 104.912 119.156 102.25 114.965Z" fill="#219F94"/>
<path d="M102.251 128.922H66.4611C64.8836 128.922 63.4477 127.932 62.8877 126.458C61.4362 122.638 61.8781 118.297 64.0703 114.845C64.1115 114.78 64.1833 114.741 64.2602 114.741H102.251C102.328 114.741 102.399 114.78 102.441 114.845C105.136 119.089 105.136 124.573 102.441 128.817C102.399 128.882 102.328 128.922 102.251 128.922ZM64.3846 115.19C62.3251 118.506 61.9215 122.648 63.3085 126.298C63.8024 127.598 65.0693 128.472 66.4611 128.472H102.126C104.641 124.424 104.641 119.238 102.126 115.19H64.3848H64.3846Z" fill="#1A1A1A"/>
<path d="M102.25 101.234H66.4608C64.9669 101.234 63.6281 102.157 63.0978 103.553C61.6814 107.28 62.0688 111.516 64.2599 114.966H102.25C104.912 110.775 104.912 105.425 102.25 101.234Z" fill="white"/>
<path d="M102.25 102.671H66.4607C64.9668 102.671 63.6466 103.601 63.0978 104.99C61.9148 107.983 62.0688 111.515 64.2599 114.965H102.25C104.912 110.775 104.912 106.862 102.25 102.671Z" fill="#219F94"/>
<path d="M102.251 115.191H64.2602C64.1831 115.191 64.1114 115.151 64.0703 115.086C61.8782 111.635 61.4362 107.294 62.8877 103.473C63.4476 102 64.8836 101.01 66.4611 101.01H102.251C102.328 101.01 102.399 101.049 102.441 101.114C105.136 105.358 105.136 110.842 102.441 115.086C102.399 115.151 102.328 115.191 102.251 115.191ZM64.3846 114.741H102.126C104.641 110.693 104.641 105.507 102.126 101.459H66.4611C65.0694 101.459 63.8024 102.333 63.3085 103.633C61.9215 107.283 62.3252 111.426 64.3846 114.741Z" fill="#1A1A1A"/>
<path d="M64.7227 128.697L64.1664 129.697L59.8982 137.366H56.3804L58.448 129.567L58.6793 128.697H64.7227Z" fill="white"/>
<path d="M59.8983 137.591H56.3803C56.3104 137.591 56.2446 137.559 56.202 137.504C56.1593 137.448 56.1449 137.376 56.1627 137.309L58.4618 128.639C58.4879 128.541 58.5771 128.472 58.6792 128.472H64.7226C64.8024 128.472 64.8761 128.514 64.9166 128.583C64.957 128.652 64.9581 128.736 64.9193 128.806L60.095 137.476C60.0552 137.547 59.98 137.591 59.8983 137.591ZM56.6727 137.142H59.7659L64.3401 128.922H58.8523L56.6727 137.142Z" fill="#1A1A1A"/>
<path d="M108.113 137.366H104.595L100.787 130.521L99.772 128.697H105.815L106.332 130.645L108.113 137.366Z" fill="white"/>
<path d="M108.113 137.591H104.595C104.514 137.591 104.438 137.547 104.399 137.476L99.5757 128.806C99.5369 128.737 99.538 128.652 99.5784 128.583C99.6188 128.514 99.6926 128.472 99.7724 128.472H105.816C105.918 128.472 106.007 128.541 106.033 128.639L108.331 137.309C108.349 137.376 108.334 137.448 108.292 137.504C108.249 137.559 108.183 137.591 108.113 137.591ZM104.728 137.142H107.821L105.643 128.922H100.155L104.728 137.142Z" fill="#1A1A1A"/>
<path d="M91.6096 128.697L90.7215 130.294L86.7864 137.366H83.2686L85.1755 130.17L85.5662 128.697H91.6096Z" fill="white"/>
<path d="M86.7865 137.591H83.2685C83.1986 137.591 83.1328 137.559 83.0902 137.504C83.0475 137.448 83.0331 137.376 83.0509 137.309L85.3487 128.639C85.3748 128.541 85.4641 128.472 85.5663 128.472H91.6097C91.6895 128.472 91.7631 128.514 91.8037 128.583C91.844 128.652 91.8452 128.736 91.8063 128.806L86.9831 137.476C86.9434 137.547 86.8683 137.591 86.7865 137.591ZM83.5609 137.142H86.6541L91.2271 128.922H85.7395L83.5609 137.142Z" fill="#1A1A1A"/>
<path d="M135.001 137.366H131.483L128.016 131.134L126.66 128.697H132.702L133.381 131.255L135.001 137.366Z" fill="white"/>
<path d="M135.002 137.591H131.484C131.402 137.591 131.327 137.547 131.287 137.476L126.464 128.806C126.425 128.737 126.426 128.652 126.467 128.583C126.507 128.514 126.581 128.472 126.661 128.472H132.703C132.805 128.472 132.894 128.541 132.92 128.639L135.219 137.309C135.237 137.376 135.223 137.448 135.18 137.504C135.137 137.559 135.072 137.591 135.002 137.591ZM131.616 137.142H134.709L132.53 128.922H127.043L131.616 137.142Z" fill="#1A1A1A"/>
<path d="M80.1597 128.696C81.7075 126.416 84.6144 126.919 86.1162 126.072C88.0547 124.979 87.9257 122.006 89.3524 120.636C90.5563 119.48 92.8232 119.292 92.8232 117.824C92.8232 116.106 87.5533 116.09 85.1313 116.09C83.4784 116.09 81.9419 115.668 81.9419 114.965C81.9419 114.262 83.646 114 85.0513 114C89.4306 114 94.965 113.762 96.5285 108.264C98.4983 112.997 102.251 128.696 102.251 128.696H80.1598L80.1597 128.696Z" fill="#1A1A1A"/>
<path d="M102.251 128.922H80.1597C80.0764 128.922 79.9999 128.876 79.9609 128.802C79.9217 128.729 79.9266 128.64 79.9734 128.571C81.0363 127.004 82.6734 126.693 84.1179 126.418C84.8372 126.282 85.5165 126.152 86.0055 125.877C87.0236 125.302 87.448 124.125 87.8584 122.986C88.1909 122.063 88.5346 121.11 89.1965 120.474C89.6844 120.006 90.3138 119.699 90.9223 119.404C91.8216 118.966 92.5983 118.588 92.5983 117.824C92.5983 116.315 86.9783 116.315 85.1314 116.315C83.487 116.315 81.7169 115.893 81.7169 114.966C81.7169 113.862 84.2691 113.776 85.0513 113.776C89.9474 113.776 94.8498 113.345 96.3121 108.203C96.3382 108.111 96.4198 108.045 96.5154 108.04C96.6103 108.032 96.6997 108.09 96.7364 108.178C98.6905 112.873 102.432 128.487 102.469 128.645C102.486 128.712 102.47 128.782 102.427 128.836C102.385 128.89 102.32 128.922 102.251 128.922L102.251 128.922ZM80.6149 128.472H101.965C101.473 126.436 98.3874 113.774 96.5501 108.93C94.6273 114.226 88.6651 114.225 85.0513 114.225C83.4609 114.225 82.167 114.557 82.167 114.966C82.167 115.4 83.3581 115.865 85.1314 115.865C89.0463 115.865 93.0483 116.098 93.0483 117.824C93.0483 118.87 92.0677 119.347 91.1193 119.808C90.542 120.089 89.9451 120.379 89.5084 120.798C88.9224 121.361 88.6114 122.224 88.282 123.138C87.8437 124.354 87.3905 125.612 86.2269 126.268C85.6734 126.58 84.9588 126.716 84.2021 126.86C82.9646 127.096 81.5765 127.36 80.6149 128.472V128.472Z" fill="#1A1A1A"/>
<path d="M145.574 94.5974C145.575 94.5974 145.576 94.5987 145.576 94.5987C145.571 94.6082 145.566 94.6166 145.56 94.6262C145.431 94.8669 145.295 95.1005 145.149 95.328C138.408 106.935 136.582 114.467 136.297 125.207C136.245 127.15 134.649 128.697 132.702 128.697H107.376L111.114 79.4893H136.442V79.4905C142.016 79.4905 146.625 83.9817 146.757 89.5518C146.8 91.3771 146.366 93.0956 145.574 94.5974Z" fill="white"/>
<path d="M136.297 125.293C136.245 127.189 134.649 128.697 132.702 128.697H107.376L111.114 80.708H136.442V80.7091C142.016 80.7091 146.625 85.089 146.757 90.5213C146.892 96.0631 136.932 101.981 136.297 125.293H136.297Z" fill="#219F94"/>
<path d="M132.702 128.922H107.376C107.313 128.922 107.253 128.896 107.211 128.85C107.168 128.804 107.147 128.742 107.152 128.68L110.89 79.4725C110.899 79.3553 110.997 79.2646 111.114 79.2646H136.442C136.45 79.2646 136.458 79.2651 136.466 79.2659C142.133 79.2788 146.848 83.8859 146.982 89.5468C147.024 91.3283 146.612 93.0994 145.79 94.6712C145.784 94.6876 145.776 94.7038 145.767 94.719L145.756 94.7374C145.625 94.9813 145.485 95.221 145.338 95.4498C138.269 107.623 136.785 115.302 136.522 125.213C136.467 127.292 134.789 128.922 132.702 128.922ZM107.619 128.472H132.702C134.543 128.472 136.023 127.035 136.072 125.201C136.337 115.216 137.831 107.48 144.954 95.2154C145.101 94.9866 145.236 94.7558 145.361 94.5208C145.363 94.5177 145.364 94.5147 145.366 94.5117C145.369 94.5052 145.372 94.4991 145.375 94.4928C146.173 92.9808 146.573 91.2742 146.532 89.5573C146.404 84.1306 141.877 79.7156 136.442 79.7156C136.434 79.7156 136.426 79.7151 136.419 79.7143H111.323L107.618 128.472L107.619 128.472Z" fill="#1A1A1A"/>
<path d="M120.248 94.5974L120.249 94.5987C120.244 94.6082 120.238 94.6166 120.233 94.6262C120.105 94.8658 119.969 95.0993 119.822 95.328C113.084 106.93 111.257 114.46 110.971 125.19C110.919 127.141 109.329 128.697 107.376 128.697H99.7722C97.9695 128.697 96.4424 127.365 96.2075 125.579C95.7413 122.035 95.3817 117.856 95.3301 113.447C95.2091 103.137 96.7708 91.5794 102.582 84.0008H102.583C104.441 81.2785 107.568 79.4893 111.115 79.4893C112.881 79.4893 114.544 79.9324 115.998 80.7144C119.234 82.4545 121.433 85.8702 121.433 89.7997C121.433 91.5326 121.004 93.1639 120.248 94.5974H120.248Z" fill="#219F94"/>
<path d="M115.998 80.7144C115.823 80.7407 115.625 80.7515 115.398 80.7563C112.938 80.8078 110.437 80.9419 108.116 81.8319C105.419 82.8654 103 85.1301 102.634 87.9937C102.329 90.3842 103.464 92.8333 102.922 95.1819C102.439 97.273 100.718 98.8682 99.9975 100.891C99.3167 102.801 99.5852 104.919 99.1357 106.896C98.5724 109.379 96.9303 111.457 95.335 113.441C95.3337 113.443 95.3314 113.445 95.3301 113.447C95.2091 103.137 96.7708 91.5794 102.582 84.0008H102.583C104.441 81.2785 107.568 79.4893 111.115 79.4893C112.881 79.4893 114.544 79.9324 115.998 80.7144Z" fill="white"/>
<path d="M107.376 128.922H99.7716C97.8612 128.922 96.2329 127.497 95.9842 125.608C94.8566 117.044 93.2249 95.8331 102.403 83.864C102.405 83.8617 102.407 83.8597 102.409 83.8574C104.379 80.9814 107.632 79.2646 111.115 79.2646C116.929 79.2646 121.658 83.9905 121.658 89.7996C121.658 91.4941 121.244 93.1798 120.46 94.6767C120.456 94.6883 120.451 94.6995 120.444 94.7104L120.426 94.7412C120.306 94.9676 120.165 95.2087 120.012 95.4484C112.945 107.617 111.46 115.292 111.196 125.197C111.14 127.285 109.462 128.922 107.376 128.922L107.376 128.922ZM102.748 84.1539C93.6865 95.993 95.3106 117.045 96.4304 125.55C96.6497 127.216 98.0862 128.472 99.7716 128.472H107.376C109.216 128.472 110.696 127.028 110.746 125.185C111.012 115.206 112.507 107.475 119.628 95.215C119.779 94.9773 119.914 94.7465 120.034 94.5212L120.04 94.5106C120.042 94.5046 120.045 94.4987 120.048 94.4928C120.807 93.054 121.208 91.4312 121.208 89.7997C121.208 84.2386 116.68 79.7144 111.115 79.7144C107.774 79.7144 104.654 81.3644 102.769 84.1279C102.762 84.1372 102.756 84.1459 102.748 84.1539Z" fill="#1A1A1A"/>
<path d="M145.574 94.5975C145.575 94.5975 145.577 94.5988 145.577 94.5988C145.571 94.6083 145.566 94.6168 145.56 94.6263C145.432 94.867 145.295 95.1006 145.149 95.3282C138.408 106.936 136.582 114.468 136.297 125.207C136.246 127.151 134.649 128.697 132.702 128.697H112.537C117.227 125.698 125.444 127.389 128.281 124.15C130.924 121.136 128.703 118.137 130.016 114.216C130.987 111.319 133.987 110.608 134.378 107.374C134.678 104.897 133.178 101.664 134.706 98.7509C136.238 95.8299 140.584 95.2981 140.897 92.2836C141.171 89.6524 139.51 89.323 139.162 87.6715C138.802 85.9684 140.683 84.7433 140.147 82.7229C139.326 79.63 135.732 79.4893 133.773 79.4893H136.442V79.4905C142.016 79.4905 146.625 83.9816 146.757 89.5518C146.8 91.3771 146.366 93.0956 145.574 94.5974V94.5975Z" fill="#1A1A1A"/>
<path d="M132.702 128.922H112.537C112.437 128.922 112.349 128.856 112.321 128.76C112.293 128.664 112.332 128.561 112.416 128.508C114.704 127.045 117.747 126.685 120.69 126.336C123.775 125.971 126.689 125.626 128.111 124.003C129.573 122.335 129.487 120.693 129.387 118.791C129.311 117.345 129.232 115.849 129.803 114.145C130.257 112.789 131.134 111.901 131.982 111.041C132.993 110.016 133.949 109.047 134.155 107.347C134.26 106.476 134.134 105.496 134.001 104.458C133.766 102.633 133.501 100.565 134.507 98.647C135.227 97.2743 136.512 96.431 137.755 95.6155C139.173 94.6849 140.513 93.8058 140.673 92.2611C140.832 90.7335 140.324 90.0555 139.785 89.3376C139.442 88.8791 139.086 88.405 138.941 87.7186C138.757 86.8461 139.109 86.0929 139.45 85.3645C139.832 84.5471 140.193 83.775 139.929 82.7812C139.208 80.0633 136.26 79.7148 133.773 79.7148C133.648 79.7148 133.548 79.6141 133.548 79.49C133.548 79.3659 133.648 79.2651 133.773 79.2651H136.442C136.45 79.2651 136.458 79.2656 136.466 79.2664C142.133 79.2793 146.848 83.8864 146.982 89.5472C147.024 91.3288 146.612 93.0999 145.79 94.6717C145.784 94.6881 145.776 94.7042 145.767 94.7194L145.755 94.7379C145.625 94.9818 145.485 95.2215 145.338 95.4503C138.269 107.623 136.785 115.303 136.522 125.213C136.467 127.293 134.789 128.922 132.702 128.922V128.922ZM113.386 128.472H132.702C134.543 128.472 136.023 127.035 136.072 125.201C136.337 115.216 137.831 107.48 144.954 95.2154C145.101 94.9867 145.236 94.7559 145.361 94.5208C145.363 94.5178 145.364 94.5147 145.366 94.5118C145.369 94.5053 145.372 94.4991 145.375 94.4928C146.173 92.9809 146.573 91.2742 146.532 89.5574C146.413 84.5146 142.496 80.3454 137.58 79.7807C138.819 80.2322 139.943 81.0785 140.364 82.6655C140.67 83.817 140.238 84.74 139.857 85.5543C139.534 86.2463 139.228 86.9 139.382 87.6253C139.506 88.2145 139.817 88.6289 140.146 89.0676C140.686 89.7879 141.298 90.6044 141.121 92.3069C140.939 94.0641 139.512 95 138.002 95.991C136.807 96.7751 135.571 97.5859 134.905 98.8554C133.965 100.648 134.21 102.556 134.447 104.401C134.584 105.467 134.713 106.474 134.601 107.401C134.377 109.253 133.322 110.322 132.302 111.357C131.49 112.18 130.65 113.031 130.229 114.287C129.686 115.91 129.762 117.363 129.836 118.767C129.937 120.684 130.032 122.494 128.45 124.299C126.913 126.052 123.916 126.407 120.742 126.783C118.157 127.089 115.494 127.404 113.385 128.472L113.386 128.472Z" fill="#1A1A1A"/>
<path d="M110.982 96.5296C114.702 96.5296 117.718 93.5165 117.718 89.7997C117.718 86.0829 114.702 83.0698 110.982 83.0698C107.263 83.0698 104.247 86.0829 104.247 89.7997C104.247 93.5165 107.263 96.5296 110.982 96.5296Z" fill="#219F94"/>
<path d="M110.982 96.7545C107.144 96.7545 104.022 93.6347 104.022 89.7998C104.022 85.965 107.144 82.8452 110.982 82.8452C114.82 82.8452 117.943 85.9651 117.943 89.7998C117.943 93.6346 114.82 96.7545 110.982 96.7545ZM110.982 83.2948C107.393 83.2948 104.472 86.2129 104.472 89.7997C104.472 93.3866 107.393 96.3048 110.982 96.3048C114.572 96.3048 117.493 93.3866 117.493 89.7997C117.493 86.2129 114.572 83.2948 110.982 83.2948Z" fill="#1A1A1A"/>
<path d="M111 94.3397C108.98 94.3397 106.936 92.9361 106.936 90.2531C106.936 88.5438 108.488 86.9279 110.131 86.9279C112.06 86.9279 113.306 88.1836 113.306 90.127C113.306 90.2511 113.206 90.3519 113.081 90.3519C112.957 90.3519 112.856 90.2511 112.856 90.127C112.856 88.4311 111.812 87.3776 110.131 87.3776C108.745 87.3776 107.386 88.8019 107.386 90.2531C107.386 92.7519 109.259 93.89 111 93.89C113.68 93.89 115.411 91.9875 115.411 89.0432C115.411 86.4554 113.368 83.2944 110.982 83.2944C110.858 83.2944 110.757 83.1937 110.757 83.0696C110.757 82.9455 110.858 82.8447 110.982 82.8447C112.257 82.8447 113.497 83.5966 114.472 84.9617C115.342 86.18 115.862 87.7059 115.862 89.0432C115.862 92.702 113.42 94.3397 111 94.3397H111Z" fill="#1A1A1A"/>
<path d="M53.416 96.5296C57.1358 96.5296 60.1513 93.5165 60.1513 89.7997C60.1513 86.0829 57.1358 83.0698 53.416 83.0698C49.6962 83.0698 46.6807 86.0829 46.6807 89.7997C46.6807 93.5165 49.6962 96.5296 53.416 96.5296Z" fill="#219F94"/>
<path d="M53.4158 96.7545C49.578 96.7545 46.4556 93.6347 46.4556 89.7998C46.4556 85.965 49.578 82.8452 53.4158 82.8452C57.2536 82.8452 60.3761 85.9651 60.3761 89.7998C60.3761 93.6346 57.2537 96.7545 53.4158 96.7545ZM53.4158 83.2948C49.826 83.2948 46.9056 86.2129 46.9056 89.7997C46.9056 93.3866 49.826 96.3048 53.4158 96.3048C57.0055 96.3048 59.9261 93.3866 59.9261 89.7997C59.9261 86.2129 57.0055 83.2948 53.4158 83.2948Z" fill="#1A1A1A"/>
<path d="M53.4338 94.3397C51.4139 94.3397 49.3691 92.9361 49.3691 90.2531C49.3691 88.5438 50.9221 86.9279 52.5645 86.9279C54.4936 86.9279 55.7402 88.1836 55.7402 90.127C55.7402 90.2511 55.6393 90.3519 55.5151 90.3519C55.3909 90.3519 55.2901 90.2511 55.2901 90.127C55.2901 88.4311 54.2458 87.3776 52.5645 87.3776C51.1791 87.3776 49.8192 88.8019 49.8192 90.2531C49.8192 92.7519 51.6928 93.89 53.4338 93.89C56.1136 93.89 57.8451 91.9875 57.8451 89.0432C57.8451 86.4554 55.8012 83.2944 53.4159 83.2944C53.2917 83.2944 53.1909 83.1937 53.1909 83.0696C53.1909 82.9455 53.2917 82.8447 53.4159 82.8447C54.691 82.8447 55.9302 83.5966 56.9053 84.9616C57.7756 86.18 58.2953 87.7059 58.2953 89.0432C58.2953 92.702 55.8536 94.3397 53.4338 94.3397Z" fill="#1A1A1A"/>
<path d="M58.6791 128.697H64.7225L64.1662 129.697L58.4478 129.567L58.6791 128.697Z" fill="#1A1A1A"/>
<path d="M64.1666 129.922C64.1649 129.922 64.1632 129.922 64.1615 129.922L58.4431 129.792C58.3741 129.791 58.3096 129.758 58.2682 129.703C58.2268 129.648 58.213 129.577 58.2307 129.51L58.462 128.639C58.4881 128.541 58.5773 128.472 58.6795 128.472H64.7228C64.8026 128.472 64.8763 128.514 64.9168 128.583C64.9572 128.652 64.9583 128.736 64.9195 128.806L64.3634 129.806C64.3235 129.878 64.2484 129.922 64.1667 129.922L64.1666 129.922ZM58.739 129.349L64.0359 129.469L64.3403 128.922H58.8525L58.739 129.349Z" fill="#1A1A1A"/>
<path d="M85.5665 128.697H91.6099L90.7218 130.294L85.1758 130.17L85.5665 128.697Z" fill="#1A1A1A"/>
<path d="M90.7212 130.519C90.7195 130.519 90.7178 130.519 90.7161 130.519L85.1702 130.395C85.1012 130.393 85.0367 130.36 84.9953 130.305C84.9539 130.25 84.9401 130.179 84.9576 130.112L85.3485 128.639C85.3746 128.541 85.4639 128.472 85.5661 128.472H91.6095C91.6892 128.472 91.7629 128.514 91.8034 128.583C91.8438 128.652 91.845 128.736 91.8061 128.806L90.9179 130.404C90.8782 130.475 90.8029 130.519 90.7212 130.519ZM85.466 129.952L90.5905 130.067L91.2269 128.922H85.7393L85.466 129.952Z" fill="#1A1A1A"/>
<path d="M105.815 128.697L106.332 130.645L100.787 130.521L99.772 128.697H105.815Z" fill="#1A1A1A"/>
<path d="M106.332 130.87C106.331 130.87 106.329 130.87 106.327 130.87L100.782 130.746C100.703 130.744 100.63 130.7 100.591 130.63L99.5757 128.806C99.5369 128.737 99.538 128.652 99.5784 128.583C99.6188 128.514 99.6926 128.472 99.7724 128.472H105.816C105.918 128.472 106.007 128.541 106.033 128.639L106.55 130.588C106.568 130.656 106.553 130.729 106.509 130.785C106.466 130.839 106.401 130.87 106.332 130.87L106.332 130.87ZM100.921 130.299L106.038 130.414L105.642 128.922H100.155L100.921 130.299Z" fill="#1A1A1A"/>
<path d="M133.381 131.255L128.016 131.134L126.66 128.697H132.702L133.381 131.255Z" fill="#1A1A1A"/>
<path d="M133.381 131.48C133.379 131.48 133.378 131.48 133.376 131.48L128.011 131.359C127.931 131.357 127.858 131.313 127.82 131.243L126.464 128.806C126.425 128.737 126.426 128.652 126.467 128.583C126.507 128.514 126.581 128.472 126.661 128.472H132.703C132.805 128.472 132.894 128.541 132.92 128.639L133.599 131.197C133.617 131.266 133.602 131.339 133.558 131.394C133.515 131.448 133.45 131.48 133.381 131.48V131.48ZM128.15 130.912L133.087 131.023L132.53 128.922H127.043L128.15 130.912Z" fill="#1A1A1A"/>
</g>
<defs>
<clipPath id="clip0_297_1095">
<rect width="104.211" height="95.2552" fill="white" transform="translate(42.8354 42.3359)"/>
</clipPath>
</defs>
</svg>
