<svg width="184" height="173" viewBox="0 0 184 173" fill="none" xmlns="http://www.w3.org/2000/svg">
<path opacity="0.08" d="M153.378 46.0419C170.014 83.1428 153.899 126.492 117.383 142.865C80.8683 159.239 37.7808 142.436 21.145 105.335C4.50907 68.2339 105.453 182.441 89.7999 81.3493C74.1471 -19.7424 136.742 8.94103 153.378 46.0419Z" fill="black"/>
<g clip-path="url(#clip0_297_1643)">
<path d="M101.991 32.8281C84.2168 32.8281 56.8882 44.123 56.8882 65.8914C56.8882 84.0659 69.5251 99.7761 89.251 99.7761C117.093 99.7761 136.1 80.9855 136.1 63.7351C136.1 42.9935 126.237 32.8281 101.991 32.8281Z" fill="#30B7AB"/>
</g>
<g clip-path="url(#clip1_297_1643)">
<path d="M117.264 46.604H93.6167C92.167 46.604 90.9917 47.7795 90.9917 49.2296V90.8507C90.9917 92.3008 92.167 93.4763 93.6167 93.4763H117.264C118.714 93.4763 119.889 92.3008 119.889 90.8507V49.2296C119.889 47.7795 118.714 46.604 117.264 46.604Z" fill="white"/>
<path d="M112.26 46.604C111.176 47.8166 109.174 48.3046 107.922 49.4929C106.651 50.6996 106.143 52.6585 104.586 53.482C102.912 54.3676 100.873 53.5265 98.9716 53.5365C98.2984 53.5399 97.5648 53.6883 97.1397 54.2024C96.4707 55.0124 96.9008 56.2334 96.6199 57.2405C96.3667 58.1487 95.5644 58.7894 95.0244 59.5676C94.3738 60.5051 93.4208 61.4691 93.6002 62.5911C93.7411 63.4741 94.253 64.4198 94.2564 65.3146C94.2631 67.0329 93.4139 68.4916 92.2007 69.7277C91.7823 70.1537 91.3438 70.6527 90.9917 71.1994V49.2296C90.9917 47.7797 92.1671 46.604 93.6167 46.604H112.26Z" fill="#30B7AB"/>
<path d="M117.264 93.644H93.6168C92.077 93.644 90.8242 92.391 90.8242 90.8508V49.2292C90.8242 47.689 92.077 46.436 93.6168 46.436H117.264C118.803 46.436 120.056 47.689 120.056 49.2292V90.8508C120.056 92.3909 118.803 93.644 117.264 93.644ZM93.6168 46.7715C92.2619 46.7715 91.1596 47.874 91.1596 49.2292V90.8508C91.1596 92.206 92.2619 93.3085 93.6168 93.3085H117.264C118.619 93.3085 119.721 92.206 119.721 90.8508V49.2292C119.721 47.8739 118.619 46.7715 117.264 46.7715H93.6168Z" fill="#1A1A1A"/>
<path d="M100.921 55.9487H109.96V83.5881C109.96 86.0829 107.935 88.1084 105.44 88.1084C102.946 88.1084 100.921 86.0829 100.921 83.5881L100.921 55.9487Z" fill="white"/>
<path d="M105.44 88.2763C102.856 88.2763 100.753 86.1733 100.753 83.5883V55.949C100.753 55.9045 100.771 55.8618 100.802 55.8304C100.833 55.7989 100.876 55.7812 100.921 55.7812H109.959C110.004 55.7812 110.046 55.7989 110.078 55.8304C110.109 55.8618 110.127 55.9045 110.127 55.949V83.5883C110.127 86.1733 108.025 88.2763 105.44 88.2763ZM101.088 56.1167V83.5883C101.088 85.9883 103.041 87.9409 105.44 87.9409C107.84 87.9409 109.792 85.9883 109.792 83.5883V56.1167H101.088Z" fill="#1A1A1A"/>
<path d="M108.727 64.1904V83.383C108.727 85.1985 107.256 86.6702 105.44 86.6702C103.783 86.6702 102.413 85.4442 102.187 83.85C102.164 83.6974 102.153 83.5414 102.153 83.383V64.1904C102.153 63.7066 102.545 63.3149 103.029 63.3149H107.852C108.336 63.3149 108.727 63.7066 108.727 64.1904Z" fill="#30B7AB"/>
<path d="M105.44 86.838C103.731 86.838 102.261 85.5637 102.021 83.8738C101.997 83.7113 101.986 83.5473 101.986 83.3831V64.1907C101.986 63.6154 102.454 63.1475 103.029 63.1475H107.852C108.427 63.1475 108.895 63.6155 108.895 64.1907V83.3832C108.895 85.2883 107.345 86.8381 105.44 86.8381V86.838ZM103.029 63.4828C102.639 63.4828 102.321 63.8003 102.321 64.1906V83.3831C102.321 83.5347 102.332 83.6837 102.353 83.8256C102.57 85.3523 103.897 86.5026 105.44 86.5026C107.16 86.5026 108.56 85.1032 108.56 83.3831V64.1907C108.56 63.8004 108.242 63.4829 107.852 63.4829L103.029 63.4828Z" fill="#1A1A1A"/>
<path d="M110.728 52.7295H100.152C99.6691 52.7295 99.2773 53.1213 99.2773 53.6046V56.1007C99.2773 56.5841 99.6691 56.9759 100.152 56.9759H110.728C111.211 56.9759 111.603 56.5841 111.603 56.1007V53.6046C111.603 53.1213 111.211 52.7295 110.728 52.7295Z" fill="white"/>
<path d="M110.728 57.1438H100.153C99.5776 57.1438 99.1099 56.6759 99.1099 56.1009V53.6049C99.1099 53.0299 99.5776 52.562 100.153 52.562H110.728C111.303 52.562 111.771 53.0299 111.771 53.6049V56.1009C111.771 56.6759 111.303 57.1438 110.728 57.1438ZM100.153 52.8974C99.7625 52.8974 99.4452 53.2147 99.4452 53.6048V56.1008C99.4452 56.4909 99.7625 56.8082 100.153 56.8082H110.728C111.118 56.8082 111.435 56.4909 111.435 56.1008V53.6048C111.435 53.2147 111.118 52.8974 110.728 52.8974H100.153ZM114.294 63.4828H106.741C106.697 63.4828 106.654 63.4651 106.623 63.4337C106.591 63.4022 106.574 63.3596 106.574 63.3151C106.574 63.2706 106.591 63.228 106.623 63.1965C106.654 63.1651 106.697 63.1474 106.741 63.1474H114.294C114.339 63.1474 114.381 63.1651 114.413 63.1965C114.444 63.228 114.462 63.2706 114.462 63.3151C114.462 63.3596 114.444 63.4022 114.413 63.4337C114.381 63.4651 114.339 63.4828 114.294 63.4828ZM109.96 66.7019H106.741C106.697 66.7019 106.654 66.6842 106.623 66.6527C106.591 66.6213 106.574 66.5786 106.574 66.5342C106.574 66.4897 106.591 66.447 106.623 66.4156C106.654 66.3841 106.697 66.3664 106.741 66.3664H109.96C110.004 66.3664 110.047 66.3841 110.078 66.4156C110.11 66.447 110.127 66.4897 110.127 66.5342C110.127 66.5786 110.11 66.6213 110.078 66.6527C110.047 66.6842 110.004 66.7019 109.96 66.7019ZM109.96 69.9208H106.741C106.697 69.9208 106.654 69.9032 106.623 69.8717C106.591 69.8403 106.574 69.7976 106.574 69.7531C106.574 69.7086 106.591 69.666 106.623 69.6345C106.654 69.6031 106.697 69.5854 106.741 69.5854H109.96C110.004 69.5854 110.047 69.6031 110.078 69.6345C110.11 69.666 110.127 69.7086 110.127 69.7531C110.127 69.7976 110.11 69.8403 110.078 69.8717C110.047 69.9032 110.004 69.9208 109.96 69.9208ZM109.96 73.1399H106.741C106.697 73.1399 106.654 73.1222 106.623 73.0908C106.591 73.0593 106.574 73.0166 106.574 72.9722C106.574 72.9277 106.591 72.885 106.623 72.8536C106.654 72.8221 106.697 72.8045 106.741 72.8045H109.96C110.004 72.8045 110.047 72.8221 110.078 72.8536C110.11 72.885 110.127 72.9277 110.127 72.9722C110.127 73.0166 110.11 73.0593 110.078 73.0908C110.047 73.1222 110.004 73.1399 109.96 73.1399ZM109.96 76.3589H106.741C106.697 76.3589 106.654 76.3412 106.623 76.3097C106.591 76.2783 106.574 76.2356 106.574 76.1911C106.574 76.1467 106.591 76.104 106.623 76.0725C106.654 76.0411 106.697 76.0234 106.741 76.0234H109.96C110.004 76.0234 110.047 76.0411 110.078 76.0725C110.11 76.104 110.127 76.1467 110.127 76.1911C110.127 76.2356 110.11 76.2783 110.078 76.3097C110.047 76.3412 110.004 76.3589 109.96 76.3589ZM109.96 79.5779H106.741C106.697 79.5779 106.654 79.5602 106.623 79.5288C106.591 79.4973 106.574 79.4547 106.574 79.4102C106.574 79.3657 106.591 79.323 106.623 79.2916C106.654 79.2601 106.697 79.2425 106.741 79.2425H109.96C110.004 79.2425 110.047 79.2601 110.078 79.2916C110.11 79.323 110.127 79.3657 110.127 79.4102C110.127 79.4547 110.11 79.4973 110.078 79.5288C110.047 79.5602 110.004 79.5779 109.96 79.5779ZM109.96 82.7969H106.741C106.697 82.7969 106.654 82.7793 106.623 82.7478C106.591 82.7164 106.574 82.6737 106.574 82.6292C106.574 82.5848 106.591 82.5421 106.623 82.5106C106.654 82.4792 106.697 82.4615 106.741 82.4615H109.96C110.004 82.4615 110.047 82.4792 110.078 82.5106C110.11 82.5421 110.127 82.5848 110.127 82.6292C110.127 82.6737 110.11 82.7164 110.078 82.7478C110.047 82.7793 110.004 82.7969 109.96 82.7969ZM109.96 60.2639H106.741C106.697 60.2639 106.654 60.2462 106.623 60.2147C106.591 60.1833 106.574 60.1406 106.574 60.0961C106.574 60.0517 106.591 60.009 106.623 59.9775C106.654 59.9461 106.697 59.9284 106.741 59.9284H109.96C110.004 59.9284 110.047 59.9461 110.078 59.9775C110.11 60.009 110.127 60.0517 110.127 60.0961C110.127 60.1406 110.11 60.1833 110.078 60.2147C110.047 60.2462 110.004 60.2639 109.96 60.2639Z" fill="#1A1A1A"/>
<path d="M114.972 63.993C115.347 63.993 115.65 63.6894 115.65 63.3149C115.65 62.9403 115.347 62.6367 114.972 62.6367C114.598 62.6367 114.294 62.9403 114.294 63.3149C114.294 63.6894 114.598 63.993 114.972 63.993Z" fill="#1A1A1A"/>
<path d="M114.972 64.161C114.506 64.161 114.127 63.7815 114.127 63.3151C114.127 62.8487 114.506 62.4692 114.972 62.4692C115.439 62.4692 115.818 62.8487 115.818 63.3151C115.818 63.7815 115.439 64.161 114.972 64.161ZM114.972 62.8047C114.691 62.8047 114.462 63.0337 114.462 63.3151C114.462 63.5965 114.691 63.8256 114.972 63.8256C115.254 63.8256 115.483 63.5965 115.483 63.3151C115.483 63.0337 115.254 62.8047 114.972 62.8047ZM108.727 73.3963V83.383C108.727 85.1985 107.256 86.6702 105.44 86.6702C103.783 86.6702 102.413 85.4442 102.187 83.85C102.283 83.8299 102.385 83.7863 102.491 83.7134C102.672 83.5901 102.778 83.3838 102.943 83.2404C103.181 83.0324 103.539 82.9754 103.829 83.0995C104.038 83.1892 104.203 83.3586 104.405 83.4626C105.161 83.8526 106.099 83.1272 106.276 82.2953C106.453 81.4635 106.128 80.6173 105.855 79.8115C105.582 79.0064 105.359 78.0991 105.718 77.3276C105.981 76.7657 106.506 76.3825 106.93 75.9297C107.628 75.1842 108.103 74.1955 108.727 73.3963Z" fill="#1A1A1A"/>
<path d="M105.44 86.8379C103.731 86.8379 102.261 85.5635 102.021 83.8736C102.015 83.8315 102.025 83.7886 102.05 83.7537C102.074 83.7189 102.111 83.6946 102.153 83.6859C102.231 83.6695 102.313 83.6322 102.397 83.575C102.478 83.5193 102.547 83.4352 102.619 83.3464C102.684 83.2675 102.75 83.1859 102.833 83.1138C103.119 82.8635 103.546 82.7957 103.895 82.9454C104.027 83.0019 104.137 83.0817 104.244 83.159C104.325 83.2173 104.401 83.2723 104.481 83.3136C104.788 83.4718 105.09 83.3927 105.288 83.2985C105.689 83.1084 106.02 82.6912 106.112 82.2605C106.267 81.5322 106.006 80.7713 105.754 80.0356L105.696 79.8654C105.416 79.0393 105.181 78.0834 105.566 77.2568C105.769 76.8229 106.112 76.4942 106.444 76.1762C106.566 76.059 106.693 75.9378 106.808 75.815C107.204 75.3916 107.536 74.8738 107.856 74.373C108.089 74.0089 108.33 73.6324 108.595 73.293C108.617 73.2655 108.646 73.2453 108.68 73.2354C108.713 73.2255 108.749 73.2263 108.782 73.2377C108.815 73.249 108.844 73.2704 108.864 73.2989C108.884 73.3273 108.895 73.3614 108.895 73.3963V83.3829C108.895 85.288 107.345 86.8379 105.44 86.8379L105.44 86.8379ZM102.376 83.9664C102.652 85.4218 103.945 86.5025 105.44 86.5025C107.16 86.5025 108.56 85.1031 108.56 83.383V73.9112C108.415 74.1219 108.276 74.3401 108.139 74.5539C107.81 75.0674 107.47 75.5985 107.052 76.0443C106.931 76.1737 106.801 76.2981 106.676 76.4184C106.352 76.7286 106.046 77.0217 105.87 77.3987C105.535 78.1176 105.755 78.9945 106.014 79.7576L106.072 79.9269C106.338 80.7058 106.614 81.5112 106.44 82.3302C106.326 82.8663 105.93 83.3653 105.432 83.6015C105.054 83.7806 104.662 83.7842 104.328 83.6118C104.225 83.5591 104.135 83.4939 104.048 83.431C103.952 83.3614 103.86 83.2956 103.763 83.2538C103.533 83.1553 103.242 83.2018 103.054 83.3666C102.992 83.4204 102.937 83.4876 102.879 83.5586C102.795 83.662 102.708 83.7689 102.586 83.8519C102.52 83.8974 102.45 83.9358 102.376 83.9665L102.376 83.9664Z" fill="#1A1A1A"/>
</g>
<g clip-path="url(#clip2_297_1643)">
<path d="M92.1087 61.7236H69.7997C68.4215 61.7236 67.3042 62.8383 67.3042 64.2133V90.9868C67.3042 92.3618 68.4215 93.4765 69.7997 93.4765H92.1087C93.487 93.4765 94.6043 92.3618 94.6043 90.9868V64.2133C94.6043 62.8383 93.487 61.7236 92.1087 61.7236Z" fill="white"/>
<path d="M70.2397 62.5317H92.1826C93.5192 62.5317 94.6043 63.6144 94.6043 64.9478V91.0605C94.6043 92.394 93.5191 93.4765 92.1826 93.4765H70.6458C69.3092 93.4765 68.2241 92.3939 68.2241 91.0605V64.5427C68.2241 63.4328 69.1272 62.5317 70.2397 62.5317Z" fill="#30B7AB"/>
<path d="M92.1087 93.6442H69.7997C68.3311 93.6442 67.1362 92.4521 67.1362 90.9869V64.2134C67.1362 62.7482 68.3311 61.5562 69.7997 61.5562H92.1087C93.5775 61.5562 94.7722 62.7482 94.7722 64.2134V90.9869C94.7722 92.4521 93.5774 93.6442 92.1087 93.6442ZM69.7997 61.8913C68.5163 61.8913 67.4722 62.933 67.4722 64.2134V90.9869C67.4722 92.2673 68.5164 93.309 69.7997 93.309H92.1087C93.3922 93.309 94.4363 92.2673 94.4363 90.9869V64.2134C94.4363 62.933 93.3922 61.8913 92.1087 61.8913H69.7997Z" fill="#1A1A1A"/>
<path d="M72.1443 70.7271C72.999 70.7271 73.6919 70.0358 73.6919 69.1831C73.6919 68.3304 72.999 67.6392 72.1443 67.6392C71.2896 67.6392 70.5967 68.3304 70.5967 69.1831C70.5967 70.0358 71.2896 70.7271 72.1443 70.7271Z" fill="white"/>
<path d="M72.1443 70.8943C71.1983 70.8943 70.4287 70.1264 70.4287 69.1827C70.4287 68.239 71.1983 67.4712 72.1443 67.4712C73.0902 67.4712 73.8598 68.239 73.8598 69.1827C73.8598 70.1264 73.0902 70.8943 72.1443 70.8943ZM72.1443 67.8063C71.3835 67.8063 70.7646 68.4238 70.7646 69.1827C70.7646 69.9417 71.3835 70.5591 72.1443 70.5591C72.905 70.5591 73.5239 69.9417 73.5239 69.1827C73.5239 68.4238 72.905 67.8063 72.1443 67.8063Z" fill="#1A1A1A"/>
<path d="M91.0531 65.7612V69.5938H76.2217L87.0938 66.7843L91.0531 65.7612Z" fill="white"/>
<path d="M91.0531 69.761H76.2217C76.1808 69.761 76.1414 69.7461 76.1107 69.7191C76.08 69.6922 76.0602 69.655 76.0551 69.6146C76.0499 69.5741 76.0597 69.5332 76.0826 69.4994C76.1055 69.4657 76.14 69.4414 76.1795 69.4312L91.011 65.5986C91.0358 65.5922 91.0618 65.5915 91.0869 65.5967C91.112 65.6019 91.1356 65.6127 91.1559 65.6283C91.1762 65.644 91.1926 65.6641 91.2039 65.6871C91.2152 65.7101 91.2211 65.7353 91.2211 65.7609V69.5935C91.2211 69.6379 91.2034 69.6805 91.1719 69.712C91.1404 69.7434 91.0977 69.761 91.0531 69.761ZM77.54 69.4258H90.8852V65.9773L77.54 69.4258Z" fill="#1A1A1A"/>
<path d="M72.1443 79.7598C72.999 79.7598 73.6919 79.0686 73.6919 78.2158C73.6919 77.3631 72.999 76.6719 72.1443 76.6719C71.2896 76.6719 70.5967 77.3631 70.5967 78.2158C70.5967 79.0686 71.2896 79.7598 72.1443 79.7598Z" fill="white"/>
<path d="M72.1443 79.9275C71.1983 79.9275 70.4287 79.1596 70.4287 78.2159C70.4287 77.2722 71.1983 76.5044 72.1443 76.5044C73.0902 76.5044 73.8598 77.2722 73.8598 78.2159C73.8598 79.1596 73.0902 79.9275 72.1443 79.9275ZM72.1443 76.8395C71.3835 76.8395 70.7646 77.457 70.7646 78.2159C70.7646 78.9749 71.3835 79.5923 72.1443 79.5923C72.905 79.5923 73.5239 78.9749 73.5239 78.2159C73.5239 77.457 72.905 76.8395 72.1443 76.8395Z" fill="#1A1A1A"/>
<path d="M91.0531 74.7944V78.6261H76.2217L83.3351 76.7881L91.0531 74.7944Z" fill="white"/>
<path d="M91.0531 78.7938H76.2217C76.1808 78.7938 76.1414 78.779 76.1107 78.752C76.08 78.7251 76.0602 78.6879 76.0551 78.6474C76.0499 78.607 76.0597 78.5661 76.0826 78.5323C76.1055 78.4985 76.14 78.4743 76.1795 78.464L91.0111 74.6323C91.0359 74.6259 91.0619 74.6252 91.087 74.6304C91.1121 74.6355 91.1357 74.6464 91.156 74.662C91.1763 74.6777 91.1927 74.6978 91.204 74.7208C91.2152 74.7438 91.2211 74.769 91.2211 74.7946V78.6263C91.2211 78.6708 91.2034 78.7134 91.1719 78.7448C91.1404 78.7762 91.0977 78.7938 91.0531 78.7938ZM77.5402 78.4587H90.8852V75.011L77.5402 78.4587Z" fill="#1A1A1A"/>
<path d="M72.1443 88.793C72.999 88.793 73.6919 88.1018 73.6919 87.249C73.6919 86.3963 72.999 85.7051 72.1443 85.7051C71.2896 85.7051 70.5967 86.3963 70.5967 87.249C70.5967 88.1018 71.2896 88.793 72.1443 88.793Z" fill="white"/>
<path d="M72.1443 88.9607C71.1983 88.9607 70.4287 88.1929 70.4287 87.2491C70.4287 86.3054 71.1983 85.5376 72.1443 85.5376C73.0902 85.5376 73.8598 86.3054 73.8598 87.2491C73.8598 88.1929 73.0902 88.9607 72.1443 88.9607ZM72.1443 85.8728C71.3835 85.8728 70.7646 86.4902 70.7646 87.2491C70.7646 88.0081 71.3835 88.6255 72.1443 88.6255C72.905 88.6255 73.5239 88.0081 73.5239 87.2491C73.5239 86.4902 72.905 85.8728 72.1443 85.8728Z" fill="#1A1A1A"/>
<path d="M91.0531 83.8271V87.6597H76.2217L89.5096 84.2259L91.0531 83.8271Z" fill="white"/>
<path d="M91.0531 87.8276H76.2217C76.1808 87.8276 76.1414 87.8128 76.1107 87.7858C76.08 87.7589 76.0602 87.7217 76.0551 87.6812C76.0499 87.6408 76.0597 87.5999 76.0826 87.5661C76.1055 87.5323 76.14 87.5081 76.1795 87.4978L91.0111 83.6653C91.0359 83.6589 91.0619 83.6582 91.087 83.6634C91.1121 83.6685 91.1357 83.6793 91.156 83.695C91.1763 83.7107 91.1927 83.7308 91.204 83.7538C91.2152 83.7767 91.2211 83.802 91.2211 83.8276V87.6601C91.2211 87.7046 91.2034 87.7472 91.1719 87.7786C91.1404 87.8101 91.0977 87.8277 91.0531 87.8277V87.8276ZM77.54 87.4925H90.8852V84.0439L77.54 87.4925ZM87.0938 66.7842V69.5937H76.2217L87.0938 66.7842Z" fill="#1A1A1A"/>
<path d="M87.0938 69.7613H76.2217C76.1808 69.7613 76.1414 69.7465 76.1107 69.7195C76.08 69.6926 76.0602 69.6554 76.0551 69.615C76.0499 69.5745 76.0597 69.5336 76.0826 69.4998C76.1055 69.466 76.14 69.4418 76.1795 69.4315L87.0517 66.622C87.0765 66.6156 87.1025 66.615 87.1276 66.6201C87.1527 66.6253 87.1764 66.6361 87.1966 66.6518C87.2169 66.6675 87.2333 66.6875 87.2446 66.7105C87.2559 66.7335 87.2618 66.7587 87.2618 66.7843V69.5938C87.2618 69.6383 87.2441 69.6809 87.2126 69.7123C87.1811 69.7438 87.1384 69.7614 87.0938 69.7614L87.0938 69.7613ZM77.54 69.4262H86.9258V67.0008L77.54 69.4262ZM83.3351 76.7885V78.6265H76.2217L83.3351 76.7885Z" fill="#1A1A1A"/>
<path d="M83.3351 78.7943H76.2217C76.1808 78.7943 76.1414 78.7794 76.1107 78.7525C76.08 78.7255 76.0602 78.6884 76.0551 78.6479C76.0499 78.6075 76.0597 78.5665 76.0826 78.5328C76.1055 78.499 76.14 78.4747 76.1795 78.4645L83.2929 76.6264C83.3178 76.62 83.3438 76.6194 83.3689 76.6245C83.394 76.6297 83.4176 76.6405 83.4379 76.6562C83.4582 76.6718 83.4746 76.6919 83.4859 76.7149C83.4972 76.7379 83.5031 76.7631 83.5031 76.7887V78.6268C83.5031 78.6712 83.4854 78.7139 83.4539 78.7453C83.4224 78.7767 83.3797 78.7943 83.3351 78.7943ZM77.5402 78.4591H83.1671V77.0052L77.5402 78.4591ZM89.5096 84.2265V87.6604H76.2217L89.5096 84.2265Z" fill="#1A1A1A"/>
<path d="M89.5095 87.8275H76.2217C76.1808 87.8275 76.1414 87.8127 76.1107 87.7857C76.08 87.7588 76.0602 87.7216 76.0551 87.6812C76.0499 87.6407 76.0597 87.5998 76.0826 87.566C76.1055 87.5323 76.14 87.508 76.1795 87.4977L89.4674 84.0639C89.4923 84.0575 89.5182 84.0569 89.5434 84.062C89.5685 84.0672 89.5921 84.078 89.6124 84.0937C89.6327 84.1093 89.6491 84.1294 89.6604 84.1524C89.6717 84.1754 89.6775 84.2006 89.6775 84.2262V87.66C89.6775 87.7045 89.6599 87.7471 89.6284 87.7785C89.5968 87.81 89.5541 87.8276 89.5096 87.8276L89.5095 87.8275ZM77.5399 87.4924H89.3415V84.4427L77.5399 87.4924Z" fill="#1A1A1A"/>
</g>
<g clip-path="url(#clip3_297_1643)">
<path d="M121.244 40.7217H116.011C114.579 40.7217 113.417 41.883 113.417 43.3155V48.5484C113.417 49.981 114.579 51.1423 116.011 51.1423H121.244C122.677 51.1423 123.838 49.981 123.838 48.5484V43.3155C123.838 41.883 122.677 40.7217 121.244 40.7217Z" fill="#1A1A1A"/>
<path d="M121.244 51.3082H116.012C114.49 51.3082 113.252 50.0702 113.252 48.5486V43.3157C113.252 41.7941 114.49 40.5562 116.012 40.5562H121.244C122.766 40.5562 124.004 41.7941 124.004 43.3157V48.5486C124.004 50.0702 122.766 51.3082 121.244 51.3082ZM116.012 40.8876C114.673 40.8876 113.583 41.9769 113.583 43.3157V48.5486C113.583 49.8875 114.673 50.9768 116.012 50.9768H121.244C122.583 50.9768 123.673 49.8874 123.673 48.5486V43.3157C123.673 41.9768 122.583 40.8876 121.244 40.8876H116.012Z" fill="#1A1A1A"/>
<path d="M120.448 49.8341C121.753 49.8341 122.811 48.7765 122.811 47.4718C122.811 46.167 121.753 45.1094 120.448 45.1094C119.144 45.1094 118.086 46.167 118.086 47.4718C118.086 48.7765 119.144 49.8341 120.448 49.8341Z" fill="#30B7AB"/>
<path d="M120.448 50C119.054 50 117.92 48.8659 117.92 47.4719C117.92 46.078 119.054 44.9438 120.448 44.9438C121.843 44.9438 122.977 46.078 122.977 47.4719C122.977 48.8659 121.843 50 120.448 50ZM120.448 45.2752C119.237 45.2752 118.252 46.2607 118.252 47.4719C118.252 48.6832 119.237 49.6686 120.448 49.6686C121.66 49.6686 122.645 48.6832 122.645 47.4719C122.645 46.2607 121.66 45.2752 120.448 45.2752Z" fill="#1A1A1A"/>
<path d="M116.028 46.8116C116.929 46.8116 117.66 46.0809 117.66 45.1795C117.66 44.2781 116.929 43.5474 116.028 43.5474C115.126 43.5474 114.396 44.2781 114.396 45.1795C114.396 46.0809 115.126 46.8116 116.028 46.8116Z" fill="#30B7AB"/>
<path d="M116.028 46.9775C115.037 46.9775 114.23 46.1711 114.23 45.1797C114.23 44.1883 115.037 43.3818 116.028 43.3818C117.019 43.3818 117.826 44.1883 117.826 45.1797C117.826 46.1711 117.019 46.9775 116.028 46.9775ZM116.028 43.7132C115.219 43.7132 114.561 44.3711 114.561 45.1797C114.561 45.9883 115.219 46.6461 116.028 46.6461C116.836 46.6461 117.494 45.9883 117.494 45.1797C117.494 44.3711 116.836 43.7132 116.028 43.7132Z" fill="#1A1A1A"/>
<path d="M119.506 44.2368C120.159 44.2368 120.688 43.7074 120.688 43.0544C120.688 42.4014 120.159 41.8721 119.506 41.8721C118.853 41.8721 118.324 42.4014 118.324 43.0544C118.324 43.7074 118.853 44.2368 119.506 44.2368Z" fill="white"/>
<path d="M119.506 44.4026C118.763 44.4026 118.158 43.7979 118.158 43.0546C118.158 42.3113 118.763 41.7065 119.506 41.7065C120.25 41.7065 120.854 42.3113 120.854 43.0546C120.854 43.7979 120.25 44.4026 119.506 44.4026ZM119.506 42.0379C118.946 42.0379 118.49 42.494 118.49 43.0546C118.49 43.6152 118.946 44.0712 119.506 44.0712C120.067 44.0712 120.523 43.6152 120.523 43.0546C120.523 42.494 120.067 42.0379 119.506 42.0379Z" fill="#1A1A1A"/>
</g>
<g clip-path="url(#clip4_297_1643)">
<path d="M113.588 110.543V126.22C113.588 127.667 112.412 128.841 110.959 128.841H78.5009C77.0492 128.841 75.8721 127.667 75.8721 126.22V110.543C75.8721 109.096 77.0492 107.923 78.5009 107.923H110.959C112.412 107.923 113.588 109.096 113.588 110.543Z" fill="#30B7AB"/>
<path d="M110.959 129.008H78.5009C76.9588 129.008 75.7041 127.757 75.7041 126.22V110.543C75.7041 109.006 76.9588 107.756 78.5009 107.756H110.959C112.501 107.756 113.756 109.006 113.756 110.543V126.22C113.756 127.757 112.501 129.008 110.959 129.008ZM78.5009 108.091C77.144 108.091 76.04 109.191 76.04 110.543V126.22C76.04 127.573 77.1439 128.673 78.5009 128.673H110.959C112.316 128.673 113.42 127.573 113.42 126.22V110.543C113.42 109.191 112.316 108.091 110.959 108.091H78.5009Z" fill="#1A1A1A"/>
<path d="M89.3463 123.963L89.3367 123.963C89.3 123.961 89.2649 123.947 89.237 123.923C89.209 123.899 89.1897 123.867 89.182 123.831L86.8658 113.024L84.4597 122.36C84.4505 122.396 84.4295 122.428 84.4001 122.45C84.3707 122.473 84.3345 122.486 84.2973 122.486H84.2971C84.2599 122.486 84.2238 122.473 84.1943 122.451C84.1649 122.428 84.1439 122.396 84.1345 122.36L82.5832 116.401L81.5729 119.214C81.5613 119.247 81.5398 119.275 81.5115 119.295C81.4832 119.315 81.4494 119.325 81.4148 119.325H78.9443C78.8998 119.325 78.857 119.308 78.8256 119.276C78.7941 119.245 78.7764 119.202 78.7764 119.158C78.7764 119.113 78.7941 119.071 78.8256 119.039C78.857 119.008 78.8998 118.99 78.9443 118.99H81.2965L82.4508 115.777C82.4629 115.743 82.4855 115.714 82.5153 115.694C82.5451 115.674 82.5805 115.664 82.6164 115.666C82.6523 115.668 82.6867 115.681 82.7146 115.703C82.7425 115.726 82.7624 115.757 82.7714 115.791L84.2963 121.649L86.7182 112.252C86.7277 112.215 86.7493 112.183 86.7794 112.16C86.8095 112.137 86.8464 112.125 86.8842 112.126C86.9221 112.127 86.9586 112.14 86.9878 112.164C87.0169 112.188 87.0371 112.222 87.045 112.258L89.3822 123.163L91.5082 116.847C91.5192 116.815 91.54 116.786 91.5678 116.766C91.5956 116.745 91.6291 116.734 91.6636 116.733C91.6981 116.733 91.732 116.742 91.7607 116.762C91.7894 116.781 91.8115 116.808 91.824 116.84L92.6575 118.991H94.8309C94.8755 118.991 94.9182 119.008 94.9497 119.04C94.9812 119.071 94.9988 119.114 94.9988 119.158C94.9988 119.202 94.9812 119.245 94.9497 119.276C94.9182 119.308 94.8755 119.325 94.8309 119.325H92.5423C92.5084 119.325 92.4752 119.315 92.4473 119.296C92.4193 119.277 92.3978 119.25 92.3856 119.218L91.6784 117.394L89.5052 123.849C89.494 123.882 89.4727 123.911 89.4441 123.932C89.4156 123.952 89.3813 123.963 89.3461 123.963L89.3463 123.963Z" fill="#1A1A1A"/>
<path d="M105.233 123.963L105.223 123.963C105.186 123.961 105.151 123.947 105.123 123.923C105.095 123.899 105.076 123.867 105.068 123.831L102.752 113.024L100.346 122.36C100.337 122.396 100.316 122.428 100.286 122.45C100.257 122.473 100.221 122.486 100.183 122.486H100.183C100.146 122.486 100.11 122.473 100.081 122.451C100.051 122.428 100.03 122.396 100.021 122.36L98.4695 116.401L97.4592 119.214C97.4475 119.247 97.426 119.275 97.3977 119.295C97.3694 119.315 97.3357 119.325 97.301 119.325H94.8305C94.786 119.325 94.7433 119.308 94.7118 119.276C94.6803 119.245 94.6626 119.202 94.6626 119.158C94.6626 119.113 94.6803 119.071 94.7118 119.039C94.7433 119.008 94.786 118.99 94.8305 118.99H97.1827L98.337 115.777C98.3491 115.743 98.3717 115.714 98.4015 115.694C98.4313 115.674 98.4668 115.664 98.5026 115.666C98.5385 115.668 98.5729 115.681 98.6008 115.703C98.6287 115.726 98.6486 115.757 98.6576 115.791L100.182 121.649L102.604 112.252C102.614 112.215 102.635 112.183 102.666 112.16C102.696 112.137 102.733 112.125 102.77 112.126C102.808 112.127 102.845 112.14 102.874 112.164C102.903 112.188 102.923 112.222 102.931 112.258L105.268 123.163L107.394 116.847C107.405 116.815 107.426 116.786 107.454 116.766C107.482 116.745 107.515 116.734 107.55 116.733C107.584 116.732 107.618 116.742 107.647 116.761C107.676 116.781 107.698 116.808 107.71 116.84L108.544 118.991H110.717C110.762 118.991 110.804 119.008 110.836 119.04C110.867 119.071 110.885 119.114 110.885 119.158C110.885 119.202 110.867 119.245 110.836 119.276C110.804 119.308 110.762 119.325 110.717 119.325H108.429C108.395 119.325 108.362 119.315 108.334 119.296C108.306 119.277 108.284 119.25 108.272 119.218L107.565 117.394L105.392 123.849C105.38 123.882 105.359 123.911 105.33 123.932C105.302 123.952 105.268 123.963 105.232 123.963L105.233 123.963Z" fill="#1A1A1A"/>
<path d="M113.588 121.722V126.22C113.588 127.667 112.412 128.84 110.96 128.84H95.481C95.9453 128.657 96.3995 128.43 96.8722 128.131C97.9805 127.429 99.0326 126.64 100.015 125.774C100.601 125.257 101.215 124.686 101.989 124.572C102.126 124.552 102.273 124.548 102.397 124.611C102.842 124.835 102.567 125.497 102.582 125.994C102.604 126.785 103.571 127.27 104.347 127.103C105.123 126.936 105.725 126.344 106.281 125.778C107.298 124.742 108.315 123.706 109.331 122.67C109.468 122.531 109.634 122.38 109.828 122.403C110.106 122.436 110.211 122.794 110.172 123.071C110.132 123.348 110.018 123.635 110.114 123.897C110.598 124.047 111.06 123.645 111.431 123.299C112.084 122.691 112.81 122.16 113.588 121.722Z" fill="#1A1A1A"/>
<path d="M110.959 129.008H95.4809C95.4418 129.008 95.404 128.994 95.3739 128.97C95.3438 128.945 95.3233 128.91 95.316 128.872C95.3086 128.834 95.3149 128.794 95.3337 128.76C95.3525 128.726 95.3827 128.699 95.419 128.685C95.8902 128.499 96.3361 128.272 96.7821 127.99C97.8829 127.293 98.9266 126.51 99.9035 125.649L99.9849 125.577C100.571 125.058 101.176 124.522 101.964 124.407C102.097 124.387 102.295 124.372 102.473 124.461C102.895 124.674 102.833 125.165 102.783 125.56C102.765 125.707 102.746 125.86 102.749 125.99C102.759 126.315 102.956 126.536 103.12 126.664C103.443 126.917 103.911 127.025 104.312 126.94C105.064 126.778 105.672 126.159 106.161 125.661C107.178 124.625 108.194 123.589 109.21 122.553C109.331 122.43 109.556 122.202 109.848 122.238C109.983 122.253 110.101 122.322 110.189 122.436C110.34 122.632 110.365 122.905 110.338 123.095C110.327 123.173 110.311 123.251 110.295 123.325C110.262 123.48 110.231 123.627 110.251 123.757C110.606 123.806 110.971 123.499 111.316 123.177C111.979 122.559 112.715 122.022 113.506 121.577C113.531 121.562 113.56 121.555 113.589 121.555C113.619 121.555 113.648 121.563 113.673 121.578C113.698 121.593 113.719 121.614 113.734 121.639C113.748 121.665 113.756 121.693 113.756 121.723V126.22C113.756 127.758 112.501 129.008 110.959 129.008L110.959 129.008ZM96.2592 128.673H110.959C112.316 128.673 113.42 127.573 113.42 126.22V122.013C112.747 122.415 112.119 122.888 111.545 123.422C111.216 123.729 110.665 124.243 110.064 124.058C110.039 124.05 110.017 124.037 109.998 124.019C109.979 124.001 109.965 123.979 109.956 123.955C109.869 123.716 109.921 123.472 109.966 123.256C109.982 123.184 109.996 123.115 110.006 123.048C110.027 122.898 109.993 122.731 109.923 122.64C109.88 122.584 109.837 122.573 109.808 122.57C109.695 122.556 109.569 122.666 109.45 122.787C108.435 123.823 107.418 124.859 106.401 125.895C105.881 126.425 105.233 127.084 104.383 127.267C103.889 127.373 103.312 127.24 102.913 126.927C102.601 126.684 102.424 126.354 102.414 125.999C102.409 125.843 102.43 125.678 102.45 125.518C102.502 125.113 102.518 124.859 102.321 124.76C102.251 124.724 102.153 124.717 102.013 124.738C101.325 124.839 100.757 125.341 100.208 125.827L100.126 125.899C99.136 126.772 98.078 127.566 96.9622 128.272C96.7342 128.417 96.4997 128.551 96.2593 128.673H96.2592Z" fill="#1A1A1A"/>
</g>
<g clip-path="url(#clip5_297_1643)">
<path d="M52.5252 96.1657C52.1424 102.766 51.2599 108.699 50.1484 112.906C49.0815 116.943 47.8047 119.392 46.5587 119.319C45.4638 119.255 44.5716 117.258 43.9687 113.973C43.1699 109.619 42.8807 103.003 43.3089 95.6304C43.738 88.2252 44.797 81.6613 46.1016 77.4308C47.076 74.2718 48.1875 72.4141 49.2754 72.4771C50.5145 72.5489 51.4949 75.1001 52.0883 79.1923C52.7139 83.5042 52.9097 89.5284 52.5252 96.1657Z" fill="#1A1A1A"/>
<path d="M46.6139 119.488C46.5922 119.488 46.5706 119.488 46.5487 119.487C45.0962 119.402 44.2543 116.458 43.8038 114.004C42.9688 109.452 42.7275 102.751 43.1415 95.6209C43.5569 88.4528 44.5774 81.8048 45.9414 77.3815C46.6693 75.0217 47.8396 72.2264 49.2849 72.3099C50.9307 72.4052 51.8078 76.0922 52.2539 79.1684C52.9099 83.6899 53.0657 89.7298 52.6922 96.1756C52.3206 102.584 51.4746 108.541 50.3101 112.949C49.5184 115.944 48.238 119.488 46.6139 119.488ZM49.2227 72.6433C48.2881 72.6433 47.2117 74.3995 46.2615 77.4804C44.905 81.879 43.8897 88.4981 43.4759 95.6403C43.0633 102.745 43.3028 109.416 44.1332 113.943C44.7305 117.198 45.6181 119.097 46.5683 119.152C47.668 119.216 48.9132 116.924 49.9864 112.863C51.1453 108.477 51.9875 102.543 52.3579 96.1562C52.73 89.7323 52.5753 83.7163 51.9224 79.2166C51.326 75.1032 50.3576 72.7078 49.2656 72.6446C49.2513 72.6437 49.237 72.6433 49.2227 72.6433Z" fill="#1A1A1A"/>
<path d="M139.363 119.987C135.054 121.014 129.832 120.869 127.976 120.501C120.557 119.029 118.847 115.812 112.795 113.417C110.434 112.482 101.653 111.08 94.8104 110.454C92.615 110.252 90.6196 110.132 89.0991 110.132C85.5422 110.132 71.7759 110.662 59.4254 111.837C56.1624 112.148 52.999 112.503 50.148 112.906C47.847 113.23 45.7496 113.585 43.9686 113.973C43.1698 109.619 42.8809 103.003 43.3088 95.6308C43.7375 88.2257 44.7967 81.6612 46.1012 77.4307C48.043 78.0911 50.0467 78.676 52.088 79.1923C67.9795 83.2183 86.1149 83.1781 94.5324 83.1781C103.096 83.1781 117.991 80.6128 122.335 79.8761C126.911 79.1009 128.944 79.9608 130.133 81.7978V81.7986C130.411 82.226 130.642 82.7062 130.848 83.2317C131.418 84.6765 132.279 85.7048 133.076 86.6242V86.625C133.762 87.417 134.398 88.1285 134.755 88.9548C135.055 89.6454 135.213 90.2731 135.297 90.8513C135.298 90.853 135.298 90.8547 135.298 90.8564C135.301 90.8748 135.304 90.8932 135.306 90.9125C135.522 92.4805 135.205 93.6823 135.738 94.7986C136.414 96.2124 137.102 96.6817 137.787 97.4259L137.791 97.4293C138.249 97.9271 138.706 98.5489 139.158 99.6593C139.361 100.158 139.454 100.626 139.501 101.079C139.603 102.075 139.478 103.004 139.773 104.039C140.066 105.063 140.868 105.855 141.534 107.008C141.537 107.012 141.539 107.015 141.541 107.018C141.809 107.483 142.054 108.006 142.236 108.626C143.055 111.426 140.606 113.714 139.474 114.336C139.471 114.338 139.468 114.34 139.465 114.341C140.112 114.406 140.662 114.603 141.104 114.887C143.07 116.151 142.881 119.149 139.363 119.987Z" fill="#30B7AB"/>
<path d="M131.935 120.94C130.159 120.94 128.702 120.816 127.944 120.666C123.46 119.776 121.062 118.263 118.524 116.661C116.86 115.611 115.138 114.525 112.733 113.573C110.478 112.68 101.928 111.273 94.7949 110.621C92.5019 110.41 90.5322 110.299 89.0988 110.299C85.7576 110.299 72.0296 110.806 59.441 112.004C55.9602 112.336 52.8414 112.695 50.1711 113.072C47.7713 113.41 45.6963 113.768 44.0039 114.137C43.982 114.142 43.9593 114.142 43.9372 114.138C43.9151 114.134 43.8941 114.125 43.8754 114.113C43.8567 114.1 43.8407 114.084 43.8284 114.066C43.816 114.047 43.8076 114.026 43.8036 114.004C42.9689 109.453 42.7275 102.753 43.1414 95.6212C43.5564 88.4536 44.5768 81.8055 45.9411 77.3813C45.9477 77.3599 45.9585 77.3401 45.9729 77.3229C45.9874 77.3058 46.0051 77.2917 46.025 77.2815C46.0449 77.2713 46.0667 77.2653 46.089 77.2636C46.1114 77.262 46.1338 77.2649 46.155 77.2721C48.0346 77.9113 50.0445 78.5028 52.129 79.0299C67.8463 83.0118 85.7011 83.0118 94.285 83.0106H94.5324C102.871 83.0106 117.244 80.5705 121.967 79.7687L122.308 79.711C126.523 78.9968 128.905 79.5936 130.274 81.7067C130.276 81.7102 130.278 81.7136 130.28 81.7171C130.542 82.1232 130.779 82.5988 131.004 83.1703C131.587 84.65 132.521 85.7276 133.202 86.5144C133.205 86.5179 133.208 86.5214 133.211 86.525L133.307 86.6358C133.951 87.3786 134.559 88.0803 134.909 88.8882C135.184 89.5228 135.366 90.1567 135.463 90.8261L135.463 90.8272C135.467 90.849 135.47 90.8709 135.472 90.8936C135.556 91.5044 135.56 92.0706 135.564 92.5702C135.571 93.376 135.577 94.072 135.889 94.7263C136.401 95.7968 136.908 96.3005 137.444 96.8339C137.596 96.9856 137.754 97.1426 137.91 97.3122C138.331 97.7696 138.824 98.3953 139.313 99.596C139.499 100.054 139.612 100.519 139.668 101.062C139.704 101.418 139.712 101.768 139.72 102.106C139.735 102.742 139.748 103.342 139.934 103.993C140.112 104.615 140.484 105.146 140.916 105.761C141.168 106.12 141.429 106.491 141.675 106.917C141.679 106.923 141.683 106.93 141.687 106.936C141.999 107.477 142.232 108.015 142.397 108.579C143.146 111.141 141.255 113.331 139.938 114.244C140.402 114.339 140.823 114.507 141.194 114.746C142.17 115.373 142.665 116.418 142.486 117.472C142.267 118.759 141.143 119.736 139.402 120.15C136.917 120.742 134.173 120.94 131.935 120.94L131.935 120.94ZM89.0989 109.964C90.5424 109.964 92.5226 110.076 94.8256 110.287C101.282 110.877 110.365 112.275 112.857 113.261C115.291 114.224 117.025 115.319 118.703 116.378C121.214 117.963 123.586 119.459 128.009 120.337C129.699 120.672 134.917 120.874 139.324 119.824C140.928 119.442 141.961 118.564 142.156 117.416C142.312 116.497 141.874 115.582 141.013 115.028C140.569 114.742 140.042 114.568 139.449 114.508C139.413 114.505 139.379 114.49 139.352 114.466C139.326 114.441 139.308 114.409 139.301 114.374C139.294 114.339 139.298 114.302 139.314 114.27C139.329 114.237 139.354 114.21 139.386 114.193C140.6 113.525 142.844 111.303 142.075 108.673C141.918 108.136 141.696 107.623 141.397 107.105C141.395 107.101 141.392 107.097 141.389 107.092C141.149 106.676 140.891 106.309 140.642 105.954C140.212 105.34 139.805 104.761 139.612 104.085C139.414 103.393 139.4 102.743 139.385 102.114C139.378 101.782 139.37 101.439 139.335 101.096C139.282 100.587 139.176 100.15 139.003 99.7227C138.534 98.5715 138.065 97.9748 137.667 97.543C137.513 97.3754 137.358 97.2211 137.207 97.0718C136.675 96.5418 136.124 95.9938 135.587 94.871C135.242 94.1494 135.236 93.4189 135.229 92.573C135.225 92.0584 135.221 91.5264 135.139 90.9355C135.139 90.9327 135.139 90.9299 135.139 90.9271C135.137 90.9135 135.136 90.8999 135.133 90.8864L135.132 90.8814L135.131 90.8754C135.039 90.2356 134.865 89.6292 134.602 89.0216C134.273 88.261 133.681 87.5783 133.054 86.8555L132.949 86.7348C132.946 86.7314 132.943 86.7279 132.941 86.7243C132.073 85.7221 131.249 84.7045 130.692 83.2933C130.474 82.7382 130.245 82.2792 129.993 81.8899C129.991 81.8866 129.988 81.8831 129.987 81.8796C128.701 79.9038 126.42 79.3541 122.363 80.0415L122.023 80.0992C117.293 80.9022 102.899 83.3458 94.5323 83.3458H94.2849C85.6894 83.3465 67.8045 83.347 52.0468 79.3549C50.0141 78.8408 48.0516 78.2658 46.2108 77.6449C44.8794 82.0439 43.8842 88.5873 43.4758 95.6406C43.0686 102.658 43.2972 109.251 44.1024 113.773C45.7711 113.415 47.796 113.068 50.1245 112.74C52.7997 112.362 55.9235 112.003 59.4094 111.67C72.009 110.472 85.7532 109.964 89.0989 109.964V109.964Z" fill="#1A1A1A"/>
<path d="M94.8103 110.454C92.6148 110.253 90.6195 110.132 89.0989 110.132C85.542 110.132 71.7757 110.662 59.4253 111.837C59.4521 111.822 59.478 111.807 59.504 111.791C62.098 110.222 64.3671 108.187 66.8188 106.414C68.3435 105.311 69.9855 104.292 71.8243 103.895C72.654 103.716 73.5374 103.671 74.3387 103.952C76.6455 104.758 77.7282 107.986 80.1656 108.15C81.044 108.209 81.9047 107.826 82.7839 107.867C83.7594 107.91 84.6302 108.462 85.5621 108.755C87.2016 109.27 88.9683 108.972 90.6865 108.987C92.1861 109.001 93.8432 109.369 94.8103 110.454Z" fill="#1A1A1A"/>
<path d="M59.4252 112.005C59.3882 112.005 59.3522 111.993 59.3229 111.97C59.2936 111.947 59.2726 111.916 59.2633 111.88C59.2539 111.844 59.2567 111.806 59.2711 111.772C59.2856 111.738 59.3109 111.709 59.3432 111.691C59.3681 111.677 59.3923 111.663 59.4165 111.648C61.0681 110.649 62.6161 109.437 64.113 108.266C64.9595 107.604 65.8349 106.919 66.7207 106.278C68.1363 105.254 69.8455 104.151 71.7889 103.731C72.7846 103.516 73.6612 103.537 74.3941 103.794C75.4777 104.172 76.2929 105.057 77.0814 105.913C78.0215 106.933 78.9095 107.897 80.1769 107.982C80.6042 108.011 81.0255 107.931 81.4716 107.845C81.8994 107.763 82.3419 107.678 82.7916 107.699C83.4653 107.729 84.0888 107.99 84.6919 108.242C84.9924 108.368 85.3032 108.498 85.6123 108.595C86.768 108.958 88.0241 108.906 89.2388 108.855C89.7143 108.836 90.2059 108.815 90.688 108.819C91.7757 108.829 93.774 109.04 94.9353 110.342C94.9577 110.367 94.972 110.398 94.9764 110.432C94.9808 110.465 94.9751 110.499 94.9599 110.529C94.9448 110.559 94.921 110.584 94.8916 110.6C94.8621 110.617 94.8285 110.624 94.795 110.621C92.502 110.41 90.5324 110.299 89.0989 110.299C85.7577 110.299 72.0297 110.806 59.4411 112.004C59.4358 112.005 59.4305 112.005 59.4252 112.005V112.005ZM73.0735 103.919C72.6957 103.919 72.2903 103.966 71.8597 104.059C69.9767 104.466 68.3044 105.546 66.9169 106.55C66.0362 107.187 65.1633 107.87 64.3193 108.53C62.9758 109.582 61.5914 110.665 60.1229 111.603C72.5233 110.453 85.8164 109.964 89.099 109.964C90.4429 109.964 92.2521 110.061 94.3538 110.244C93.2538 109.323 91.6182 109.163 90.6851 109.155C90.2115 109.15 89.7241 109.171 89.2527 109.19C88.0093 109.242 86.7235 109.296 85.512 108.915C85.1882 108.813 84.8703 108.68 84.5628 108.551C83.9602 108.299 83.391 108.061 82.7765 108.034C82.3662 108.015 81.9622 108.093 81.5345 108.175C81.0872 108.26 80.6248 108.349 80.1544 108.317C78.7538 108.223 77.7784 107.164 76.8352 106.14C76.0747 105.315 75.2884 104.461 74.2836 104.11C73.9203 103.983 73.5157 103.919 73.0736 103.919L73.0735 103.919ZM141.104 114.887C139.784 116.256 132.943 118.633 132.113 117.277C131.283 115.922 126.958 116.971 124.949 116.49C122.939 116.009 121.629 113.998 124.044 114.649C128.66 115.892 136.696 116.017 139.465 114.34C139.468 114.339 139.471 114.338 139.474 114.336C139.471 114.338 139.468 114.34 139.465 114.341C140.112 114.406 140.662 114.603 141.104 114.887Z" fill="#1A1A1A"/>
<path d="M133.303 117.848C133.168 117.848 133.041 117.842 132.923 117.829C132.448 117.777 132.127 117.621 131.97 117.365C131.514 116.62 129.729 116.689 128.003 116.756C126.877 116.8 125.712 116.845 124.909 116.653C123.726 116.37 122.758 115.575 122.596 115.01C122.542 114.82 122.576 114.649 122.693 114.53C122.909 114.311 123.378 114.296 124.088 114.487C128.703 115.73 136.665 115.84 139.378 114.197C139.382 114.195 139.386 114.193 139.391 114.19C139.414 114.176 139.44 114.168 139.467 114.166C139.495 114.165 139.522 114.17 139.546 114.182C140.167 114.252 140.721 114.442 141.194 114.746C141.215 114.759 141.232 114.777 141.245 114.798C141.259 114.819 141.267 114.843 141.27 114.868C141.273 114.892 141.27 114.917 141.262 114.941C141.254 114.964 141.241 114.986 141.224 115.003C140.14 116.129 135.564 117.848 133.303 117.848V117.848ZM129.495 116.381C130.782 116.381 131.848 116.524 132.256 117.189C132.354 117.35 132.598 117.456 132.959 117.496C134.84 117.702 139.486 116.043 140.825 114.917C140.436 114.704 139.992 114.569 139.501 114.514C138.035 115.367 135.186 115.752 132.134 115.752C129.278 115.752 126.246 115.415 124.001 114.811C123.163 114.585 122.964 114.733 122.932 114.765C122.921 114.776 122.888 114.811 122.918 114.917C123.036 115.327 123.88 116.062 124.987 116.327C125.745 116.508 126.887 116.464 127.99 116.421C128.507 116.401 129.016 116.381 129.495 116.381L129.495 116.381ZM135.964 120.727C135.927 120.727 135.89 120.715 135.861 120.692C135.832 120.669 135.811 120.637 135.802 120.601C135.645 119.986 135.55 119.1 135.99 118.368C136.29 117.867 136.791 117.528 137.477 117.361C139.294 116.918 141.617 117.301 142.007 118.476C142.021 118.518 142.018 118.564 141.998 118.604C141.978 118.643 141.944 118.674 141.901 118.688C141.859 118.702 141.813 118.698 141.774 118.678C141.734 118.658 141.704 118.624 141.69 118.581C141.366 117.607 139.164 117.295 137.556 117.687C136.96 117.832 136.53 118.119 136.277 118.54C135.897 119.173 135.985 119.965 136.126 120.518C136.132 120.543 136.133 120.569 136.128 120.594C136.123 120.619 136.112 120.643 136.096 120.663C136.08 120.683 136.06 120.699 136.037 120.71C136.014 120.722 135.989 120.727 135.964 120.727ZM123.799 85.1212H123.794C123.316 85.1061 122.89 84.8919 122.626 84.5334C122.377 84.195 122.3 83.7602 122.415 83.3404C122.421 83.3192 122.431 83.2994 122.445 83.282C122.458 83.2646 122.475 83.2501 122.494 83.2392C122.513 83.2283 122.534 83.2213 122.556 83.2186C122.578 83.2158 122.6 83.2175 122.621 83.2233C122.642 83.2291 122.662 83.2391 122.68 83.2526C122.697 83.2661 122.711 83.2829 122.722 83.3021C122.733 83.3212 122.74 83.3423 122.743 83.3641C122.746 83.386 122.744 83.4081 122.738 83.4294C122.649 83.7541 122.705 84.0756 122.896 84.3345C123.098 84.6097 123.43 84.7743 123.804 84.7862C123.848 84.7876 123.89 84.8062 123.92 84.838C123.95 84.8698 123.967 84.9123 123.966 84.9563C123.966 85.0003 123.948 85.0422 123.916 85.0731C123.885 85.104 123.843 85.1213 123.799 85.1213V85.1212ZM126.456 93.0753C125.729 93.0753 124.999 92.6927 124.612 92.0737C124.589 92.036 124.581 91.9905 124.591 91.9472C124.601 91.9039 124.628 91.8663 124.666 91.8427C124.703 91.8192 124.749 91.8115 124.792 91.8215C124.835 91.8315 124.873 91.8583 124.896 91.896C125.286 92.52 126.091 92.8594 126.809 92.7027C126.83 92.6981 126.853 92.6977 126.874 92.7016C126.896 92.7055 126.917 92.7136 126.935 92.7255C126.954 92.7374 126.97 92.7528 126.982 92.7709C126.995 92.789 127.003 92.8094 127.008 92.8309C127.013 92.8524 127.013 92.8746 127.009 92.8963C127.005 92.9179 126.997 92.9386 126.985 92.9572C126.974 92.9757 126.958 92.9917 126.94 93.0042C126.922 93.0168 126.902 93.0257 126.88 93.0303C126.741 93.0605 126.599 93.0755 126.456 93.0753ZM130.255 101.577C129.56 101.577 128.879 101.239 128.461 100.681C128.447 100.664 128.438 100.644 128.432 100.622C128.427 100.601 128.426 100.579 128.429 100.557C128.432 100.535 128.439 100.514 128.451 100.495C128.462 100.476 128.477 100.46 128.494 100.447C128.512 100.434 128.532 100.424 128.553 100.418C128.574 100.413 128.597 100.412 128.618 100.415C128.64 100.418 128.661 100.425 128.68 100.437C128.699 100.448 128.715 100.463 128.729 100.48C129.099 100.974 129.712 101.266 130.329 101.24C130.351 101.239 130.373 101.243 130.393 101.25C130.414 101.258 130.433 101.27 130.449 101.285C130.465 101.299 130.478 101.317 130.488 101.337C130.497 101.357 130.502 101.379 130.503 101.401C130.504 101.423 130.501 101.445 130.493 101.466C130.485 101.486 130.474 101.505 130.459 101.521C130.444 101.538 130.426 101.551 130.406 101.56C130.386 101.569 130.365 101.574 130.343 101.575C130.313 101.576 130.284 101.577 130.255 101.577V101.577ZM135.067 110.139C134.82 110.139 134.567 110.086 134.325 109.98C133.813 109.757 133.439 109.331 133.323 108.842C133.313 108.799 133.321 108.753 133.344 108.716C133.367 108.678 133.405 108.651 133.448 108.641C133.491 108.63 133.537 108.638 133.574 108.661C133.612 108.684 133.639 108.722 133.649 108.765C133.741 109.152 134.043 109.491 134.459 109.673C134.875 109.855 135.329 109.847 135.675 109.651C135.694 109.64 135.715 109.633 135.737 109.63C135.759 109.628 135.781 109.629 135.802 109.635C135.823 109.641 135.843 109.651 135.86 109.664C135.878 109.678 135.892 109.695 135.903 109.714C135.914 109.733 135.921 109.754 135.923 109.776C135.926 109.798 135.924 109.82 135.919 109.841C135.913 109.863 135.903 109.882 135.889 109.9C135.876 109.917 135.859 109.932 135.84 109.942C135.609 110.073 135.343 110.139 135.067 110.139L135.067 110.139ZM127.146 119.765C127.114 119.765 127.082 119.756 127.056 119.739C127.029 119.722 127.007 119.697 126.994 119.668C126.98 119.639 126.976 119.607 126.98 119.575C126.984 119.544 126.997 119.514 127.018 119.489C127.436 118.993 127.677 118.371 127.704 117.722C127.705 117.7 127.71 117.679 127.72 117.659C127.729 117.639 127.742 117.621 127.758 117.606C127.774 117.591 127.793 117.579 127.814 117.572C127.834 117.564 127.856 117.561 127.878 117.562C127.9 117.563 127.922 117.568 127.942 117.577C127.962 117.586 127.98 117.599 127.995 117.615C128.01 117.632 128.021 117.651 128.029 117.671C128.036 117.692 128.04 117.714 128.039 117.736C128.009 118.459 127.74 119.152 127.273 119.706C127.24 119.745 127.193 119.765 127.145 119.765L127.146 119.765ZM128.083 120.074C128.052 120.074 128.022 120.065 127.995 120.049C127.969 120.032 127.947 120.009 127.934 119.981C127.92 119.953 127.914 119.922 127.917 119.891C127.92 119.859 127.931 119.83 127.95 119.805L129.306 118.017C129.334 117.982 129.373 117.959 129.417 117.954C129.461 117.948 129.505 117.96 129.54 117.986C129.575 118.013 129.598 118.052 129.604 118.096C129.611 118.14 129.599 118.184 129.573 118.219L128.217 120.008C128.184 120.051 128.134 120.074 128.083 120.074Z" fill="#1A1A1A"/>
<path d="M99.8391 83.283C99.7957 82.7444 99.3525 82.3267 98.8126 82.3267H92.1735C91.6337 82.3267 91.1904 82.7444 91.147 83.283C91.014 84.9339 90.5143 86.5866 89.4067 87.9047C91.1506 89.7283 95.4932 87.9047 95.4932 87.9047C95.4932 87.9047 99.8358 89.7283 101.58 87.9047C100.472 86.5866 99.9722 84.9339 99.8393 83.283H99.8391Z" fill="#30B7AB"/>
<path d="M99.2187 88.8857C97.5766 88.8857 95.8583 88.2322 95.4931 88.0854C94.9182 88.3165 90.9906 89.803 89.2857 88.0202C89.2572 87.9903 89.2407 87.951 89.2393 87.9097C89.238 87.8684 89.252 87.828 89.2785 87.7964C90.2597 86.6288 90.8322 85.1056 90.9801 83.2691C91.031 82.636 91.5442 82.1587 92.1735 82.1587H98.8127C99.442 82.1587 99.9552 82.636 100.006 83.2691C100.154 85.1057 100.727 86.6289 101.708 87.7965C101.734 87.8281 101.748 87.8684 101.747 87.9097C101.746 87.951 101.729 87.9904 101.7 88.0202C101.079 88.6703 100.161 88.8858 99.2187 88.8858V88.8857ZM89.6339 87.8915C91.3458 89.4356 95.3868 87.7671 95.4284 87.7497C95.4489 87.7411 95.4709 87.7367 95.4931 87.7367C95.5154 87.7367 95.5374 87.7411 95.5579 87.7497C95.5994 87.7672 99.6406 89.4356 101.352 87.8915C100.386 86.6866 99.821 85.1412 99.6724 83.296C99.6356 82.8387 99.266 82.4938 98.8128 82.4938H92.1736C91.7203 82.4938 91.3508 82.8387 91.314 83.296C91.1654 85.1413 90.6002 86.6865 89.6339 87.8915Z" fill="#1A1A1A"/>
<path d="M91.1472 111.168C91.1906 111.706 91.6338 112.124 92.1737 112.124H98.8128C99.3526 112.124 99.7959 111.706 99.8393 111.168C99.9722 109.517 100.472 107.864 101.58 106.546C99.8357 104.722 95.4931 106.546 95.4931 106.546C95.4931 106.546 91.1505 104.722 89.4067 106.546C90.5144 107.864 91.014 109.517 91.147 111.168H91.1472Z" fill="#30B7AB"/>
<path d="M98.8126 112.292H92.1735C91.5442 112.292 91.031 111.814 90.9801 111.181C90.8322 109.345 90.2596 107.821 89.2785 106.654C89.252 106.622 89.238 106.582 89.2393 106.541C89.2407 106.499 89.2572 106.46 89.2857 106.43C90.9906 104.647 94.9183 106.134 95.4931 106.365C96.068 106.134 99.9956 104.647 101.701 106.43C101.729 106.46 101.746 106.499 101.747 106.541C101.748 106.582 101.734 106.622 101.708 106.654C100.727 107.821 100.154 109.345 100.006 111.181C99.9552 111.814 99.4421 112.292 98.8128 112.292H98.8126ZM91.3139 111.154C91.3507 111.612 91.7202 111.956 92.1735 111.956H98.8126C99.2659 111.956 99.6354 111.612 99.6722 111.154C99.8209 109.309 100.386 107.764 101.352 106.559C99.6403 105.015 95.5993 106.683 95.5577 106.7C95.5372 106.709 95.5152 106.713 95.493 106.713C95.4707 106.713 95.4487 106.709 95.4282 106.7C95.3867 106.683 91.3456 105.015 89.6338 106.559C90.6002 107.764 91.1652 109.309 91.3138 111.154H91.3139Z" fill="#1A1A1A"/>
<path d="M101.244 87.0415H89.742C88.7195 87.0415 87.8906 87.8711 87.8906 88.8945V105.51C87.8906 106.533 88.7195 107.363 89.742 107.363H101.244C102.266 107.363 103.095 106.533 103.095 105.51V88.8945C103.095 87.8711 102.266 87.0415 101.244 87.0415Z" fill="#1A1A1A"/>
<path d="M101.244 107.53H89.7425C88.6293 107.53 87.7236 106.624 87.7236 105.51V88.8947C87.7236 87.7805 88.6293 86.874 89.7425 86.874H101.244C102.357 86.874 103.263 87.7805 103.263 88.8947V105.51C103.263 106.624 102.357 107.53 101.244 107.53ZM89.7425 87.2092C88.814 87.2092 88.0586 87.9653 88.0586 88.8947V105.51C88.0586 106.439 88.814 107.195 89.7425 107.195H101.244C102.173 107.195 102.928 106.439 102.928 105.51V88.8947C102.928 87.9653 102.173 87.2092 101.244 87.2092H89.7425Z" fill="#1A1A1A"/>
<path d="M92.5943 92.1523C91.8003 90.0647 89.5093 90.6465 89.5093 91.9812C89.5093 93.3159 90.7061 94.7533 92.5943 95.6089C94.4825 94.7533 95.6793 93.3159 95.6793 91.9812C95.6793 90.6465 93.3883 90.0646 92.5943 92.1523Z" fill="#30B7AB"/>
<path d="M92.5943 95.7763C92.5707 95.7763 92.5471 95.7713 92.5252 95.7614C90.5913 94.8851 89.3418 93.4012 89.3418 91.981C89.3418 91.3232 89.8428 90.7716 90.5602 90.6395C91.1975 90.5222 92.0718 90.7572 92.5943 91.7448C93.1168 90.7571 93.9911 90.5222 94.6284 90.6395C95.3457 90.7716 95.8467 91.3232 95.8467 91.981C95.8467 93.4012 94.5972 94.8851 92.6633 95.7614C92.6416 95.7712 92.6181 95.7763 92.5943 95.7763ZM90.8649 90.9472C90.7801 90.9472 90.6982 90.9549 90.6207 90.9692C90.0649 91.0715 89.6767 91.4875 89.6767 91.981C89.6767 93.2535 90.8193 94.5992 92.5943 95.4243C94.3691 94.5992 95.5118 93.2535 95.5118 91.981C95.5118 91.4876 95.1236 91.0715 94.5678 90.9692C93.9881 90.8624 93.1645 91.1239 92.7508 92.2117C92.7387 92.2435 92.7173 92.2708 92.6893 92.2901C92.6614 92.3095 92.6282 92.3198 92.5943 92.3198C92.5603 92.3198 92.5271 92.3095 92.4992 92.2901C92.4712 92.2708 92.4498 92.2435 92.4378 92.2117C92.0794 91.2695 91.4133 90.9472 90.8649 90.9472Z" fill="#1A1A1A"/>
<path d="M93.9624 104.806C93.8513 104.806 93.7448 104.762 93.6663 104.684C93.5878 104.605 93.5437 104.498 93.5437 104.387V98.589H90.3171C90.2061 98.589 90.0996 98.5449 90.0211 98.4663C89.9425 98.3877 89.8984 98.2811 89.8984 98.17C89.8984 98.0589 89.9425 97.9523 90.0211 97.8737C90.0996 97.7951 90.2061 97.751 90.3171 97.751H93.9624C94.0734 97.751 94.1799 97.7951 94.2584 97.8737C94.3369 97.9523 94.381 98.0589 94.381 98.17V104.387C94.381 104.498 94.3369 104.605 94.2584 104.684C94.1799 104.762 94.0734 104.806 93.9624 104.806ZM100.472 104.806H96.8636C96.7526 104.806 96.6461 104.762 96.5676 104.684C96.4891 104.605 96.445 104.498 96.445 104.387V98.2445C96.445 98.1334 96.4891 98.0268 96.5676 97.9482C96.6461 97.8696 96.7526 97.8255 96.8636 97.8255H100.472C100.583 97.8255 100.689 97.8696 100.768 97.9482C100.846 98.0268 100.89 98.1334 100.89 98.2445V104.387C100.89 104.498 100.846 104.605 100.768 104.684C100.689 104.762 100.583 104.806 100.472 104.806ZM97.2823 103.968H100.053V98.6635H97.2823V103.968Z" fill="white"/>
<path d="M133.076 86.6239C132.293 85.7037 130.698 86.5074 130.016 84.6151C129.721 83.7946 130.54 83.1392 130.133 81.7983C130.411 82.2257 130.642 82.706 130.849 83.2314C131.418 84.6762 132.279 85.7045 133.076 86.6239Z" fill="#1A1A1A"/>
<path d="M133.076 86.7916C133.029 86.7916 132.982 86.772 132.949 86.7337L132.935 86.7177C132.663 86.4087 132.279 86.3263 131.835 86.231C131.116 86.0768 130.302 85.902 129.859 84.6719C129.708 84.2522 129.811 83.8796 129.921 83.4849C130.05 83.0192 130.183 82.5377 129.973 81.8471C129.962 81.8085 129.964 81.7669 129.981 81.73C129.997 81.6932 130.026 81.6635 130.063 81.6465C130.1 81.6295 130.141 81.6262 130.18 81.6374C130.219 81.6485 130.252 81.6733 130.274 81.7071C130.539 82.1154 130.778 82.594 131.004 83.1701C131.583 84.6388 132.507 85.7116 133.187 86.4968L133.203 86.5153C133.224 86.5396 133.237 86.5694 133.242 86.6011C133.246 86.6328 133.241 86.6651 133.228 86.6942C133.215 86.7232 133.193 86.7478 133.166 86.7651C133.139 86.7824 133.108 86.7915 133.076 86.7916H133.076ZM130.414 82.6492C130.401 83.0064 130.317 83.309 130.243 83.5745C130.14 83.9458 130.059 84.2392 130.174 84.5585C130.554 85.6133 131.21 85.7541 131.905 85.9033C132.048 85.9341 132.193 85.9652 132.335 86.0053C131.698 85.2184 131.117 84.3705 130.693 83.2931C130.608 83.0753 130.515 82.8605 130.414 82.6493V82.6492ZM137.787 97.4258C136.78 96.3723 135.354 96.8249 134.57 95.3055C134.057 94.3099 135.493 92.5206 135.306 90.9124C135.522 92.4804 135.205 93.6822 135.739 94.7985C136.414 96.2123 137.102 96.6816 137.787 97.4258Z" fill="#1A1A1A"/>
<path d="M137.787 97.5935C137.765 97.5935 137.742 97.589 137.721 97.5801C137.701 97.5712 137.682 97.5582 137.666 97.5418C137.262 97.1189 136.789 96.9568 136.288 96.7851C135.605 96.5512 134.899 96.3093 134.421 95.3824C134.123 94.8033 134.396 94.0263 134.686 93.2037C134.951 92.4497 135.225 91.6701 135.139 90.9319C135.136 90.9101 135.138 90.8879 135.144 90.8667C135.149 90.8455 135.159 90.8256 135.173 90.8082C135.186 90.7908 135.203 90.7762 135.222 90.7653C135.241 90.7543 135.262 90.7473 135.284 90.7445C135.306 90.7417 135.328 90.7433 135.349 90.7491C135.37 90.7549 135.39 90.7648 135.408 90.7782C135.425 90.7917 135.44 90.8085 135.451 90.8276C135.461 90.8467 135.468 90.8678 135.471 90.8896C135.556 91.502 135.56 92.0694 135.564 92.5702C135.571 93.3761 135.577 94.072 135.889 94.7263C136.401 95.7968 136.907 96.3005 137.444 96.8339C137.596 96.9857 137.754 97.1426 137.91 97.3122C137.932 97.3362 137.947 97.3661 137.952 97.3982C137.958 97.4303 137.954 97.4633 137.941 97.4931C137.928 97.523 137.906 97.5484 137.879 97.5662C137.852 97.584 137.82 97.5935 137.787 97.5935ZM135.23 92.6392C135.158 92.8707 135.078 93.0971 135.002 93.3151C134.737 94.0675 134.487 94.7783 134.719 95.2288C135.135 96.0359 135.748 96.2457 136.396 96.468C136.509 96.5066 136.622 96.5455 136.736 96.5877C136.353 96.1716 135.967 95.665 135.587 94.8709C135.251 94.1682 135.237 93.457 135.23 92.6392ZM141.534 107.008C140.786 105.801 139.058 105.893 138.732 104.192C138.55 103.245 139.583 102.455 139.501 101.079C139.603 102.075 139.478 103.004 139.773 104.039C140.066 105.063 140.868 105.855 141.534 107.008Z" fill="#1A1A1A"/>
<path d="M141.535 107.176C141.506 107.176 141.478 107.169 141.453 107.155C141.428 107.141 141.407 107.121 141.392 107.096C141.102 106.628 140.652 106.369 140.175 106.095C139.485 105.699 138.772 105.29 138.568 104.224C138.47 103.715 138.68 103.261 138.902 102.78C139.134 102.279 139.374 101.76 139.334 101.089C139.332 101.045 139.346 101.002 139.375 100.969C139.404 100.936 139.444 100.915 139.488 100.912C139.532 100.908 139.575 100.922 139.609 100.95C139.642 100.978 139.664 101.018 139.668 101.062C139.705 101.418 139.713 101.768 139.72 102.106C139.735 102.741 139.749 103.342 139.935 103.993C140.112 104.615 140.485 105.146 140.916 105.761C141.169 106.122 141.431 106.495 141.679 106.924C141.694 106.95 141.702 106.979 141.702 107.008C141.702 107.037 141.694 107.066 141.68 107.092C141.665 107.117 141.644 107.139 141.618 107.153C141.593 107.168 141.564 107.176 141.535 107.176V107.176ZM139.396 102.496C139.335 102.644 139.269 102.785 139.206 102.921C138.999 103.37 138.819 103.758 138.897 104.161C139.072 105.076 139.689 105.43 140.341 105.805C140.453 105.869 140.565 105.933 140.675 106.001L140.642 105.953C140.212 105.34 139.806 104.761 139.613 104.085C139.455 103.532 139.413 103.006 139.396 102.496V102.496Z" fill="#1A1A1A"/>
<path d="M89.4067 88.4553C89.3623 88.4553 89.3197 88.4377 89.2883 88.4062C89.2569 88.3748 89.2393 88.3322 89.2393 88.2877C89.2393 88.2433 89.2569 88.2006 89.2883 88.1692C89.3197 88.1378 89.3623 88.1201 89.4067 88.1201H93.7425C93.7869 88.1201 93.8295 88.1378 93.8609 88.1692C93.8923 88.2006 93.91 88.2433 93.91 88.2877C93.91 88.3322 93.8923 88.3748 93.8609 88.4062C93.8295 88.4377 93.7869 88.4553 93.7425 88.4553H89.4067ZM96.0579 88.4553H95.2606C95.2162 88.4553 95.1736 88.4377 95.1422 88.4062C95.1108 88.3748 95.0932 88.3322 95.0932 88.2877C95.0932 88.2433 95.1108 88.2006 95.1422 88.1692C95.1736 88.1378 95.2162 88.1201 95.2606 88.1201H96.0579C96.1024 88.1201 96.1449 88.1378 96.1764 88.1692C96.2078 88.2006 96.2254 88.2433 96.2254 88.2877C96.2254 88.3322 96.2078 88.3748 96.1764 88.4062C96.1449 88.4377 96.1024 88.4553 96.0579 88.4553Z" fill="white"/>
<path d="M50.7263 78.0764C50.686 78.0764 50.647 78.0617 50.6165 78.0352C50.5861 78.0086 50.5663 77.972 50.5607 77.932C50.2598 75.7702 49.7766 74.3203 49.2348 73.9539C49.2166 73.9416 49.201 73.9258 49.1889 73.9074C49.1767 73.8891 49.1684 73.8685 49.1642 73.8469C49.16 73.8253 49.1601 73.8031 49.1645 73.7815C49.1689 73.7599 49.1775 73.7394 49.1899 73.7212C49.2022 73.703 49.218 73.6873 49.2363 73.6752C49.2547 73.6631 49.2752 73.6547 49.2968 73.6505C49.3184 73.6463 49.3406 73.6464 49.3621 73.6509C49.3837 73.6553 49.4042 73.6639 49.4224 73.6762C50.229 74.2217 50.667 76.2665 50.8925 77.8857C50.8958 77.9095 50.8939 77.9336 50.8871 77.9566C50.8803 77.9796 50.8686 78.0009 50.8528 78.019C50.8371 78.037 50.8176 78.0515 50.7958 78.0614C50.774 78.0714 50.7503 78.0765 50.7263 78.0764Z" fill="#30B7AB"/>
</g>
<g clip-path="url(#clip6_297_1643)">
<path d="M78.1978 123.127H66.9931C65.5407 123.127 64.3633 124.299 64.3633 125.746V135.127C64.3633 136.573 65.5407 137.745 66.9931 137.745H78.1978C79.6502 137.745 80.8276 136.573 80.8276 135.127V125.746C80.8276 124.299 79.6502 123.127 78.1978 123.127Z" fill="white"/>
<path d="M75.8334 137.745H66.9931C65.5409 137.745 64.3633 136.573 64.3633 135.127V130.643C64.6631 130.944 65.0915 131.101 65.414 131.382C66.4724 132.297 66.0667 134.125 67.0544 135.111C67.5483 135.604 68.295 135.776 69.0039 135.805C69.7137 135.834 70.4268 135.744 71.1323 135.817C72.8348 135.995 74.261 137.078 75.8334 137.745Z" fill="#30B7AB"/>
<path d="M78.1982 137.912H66.9934C65.4508 137.912 64.1958 136.662 64.1958 135.126V125.746C64.1958 124.21 65.4508 122.96 66.9934 122.96H78.1982C79.7408 122.96 80.9958 124.21 80.9958 125.746V135.126C80.9958 136.662 79.7408 137.912 78.1982 137.912ZM66.9934 123.294C65.636 123.294 64.5318 124.394 64.5318 125.746V135.126C64.5318 136.478 65.636 137.577 66.9934 137.577H78.1982C79.5556 137.577 80.6598 136.478 80.6598 135.126V125.746C80.6598 124.394 79.5556 123.294 78.1982 123.294H66.9934Z" fill="#1A1A1A"/>
<path d="M77.1236 128.778H74.2608V125.928H70.9311V128.778H68.0684V132.094H70.9311V134.944H74.2608V132.094H77.1236V128.778Z" fill="#30B7AB"/>
<path d="M74.2609 135.111H70.9311C70.8866 135.111 70.8438 135.094 70.8123 135.062C70.7808 135.031 70.7631 134.988 70.7631 134.944V132.261H68.0684C68.0238 132.261 67.9811 132.243 67.9496 132.212C67.9181 132.18 67.9004 132.138 67.9004 132.093V128.778C67.9004 128.734 67.9181 128.691 67.9496 128.66C67.9811 128.628 68.0238 128.611 68.0684 128.611H70.7631V125.928C70.7631 125.883 70.7808 125.841 70.8123 125.809C70.8438 125.778 70.8866 125.76 70.9311 125.76H74.2609C74.3054 125.76 74.3481 125.778 74.3797 125.809C74.4112 125.841 74.4289 125.883 74.4289 125.928V128.611H77.1236C77.1682 128.611 77.2109 128.628 77.2424 128.66C77.2739 128.691 77.2916 128.734 77.2916 128.778V132.093C77.2916 132.138 77.2739 132.18 77.2424 132.212C77.2109 132.243 77.1682 132.261 77.1236 132.261H74.4289V134.944C74.4289 134.988 74.4112 135.031 74.3797 135.062C74.3481 135.094 74.3054 135.111 74.2609 135.111ZM71.0991 134.777H74.0929V132.093C74.0929 132.049 74.1106 132.007 74.1421 131.975C74.1736 131.944 74.2163 131.926 74.2609 131.926H76.9556V128.945H74.2609C74.2163 128.945 74.1736 128.928 74.1421 128.896C74.1106 128.865 74.0929 128.822 74.0929 128.778V126.095H71.0991V128.778C71.0991 128.822 71.0814 128.865 71.0499 128.896C71.0184 128.928 70.9757 128.945 70.9311 128.945H68.2364V131.926H70.9311C70.9757 131.926 71.0184 131.944 71.0499 131.975C71.0814 132.007 71.0991 132.049 71.0991 132.093V134.777Z" fill="#1A1A1A"/>
</g>
<defs>
<clipPath id="clip0_297_1643">
<rect width="79.212" height="66.948" fill="white" transform="translate(56.8882 32.8281)"/>
</clipPath>
<clipPath id="clip1_297_1643">
<rect width="29.232" height="47.208" fill="white" transform="translate(90.8242 46.436)"/>
</clipPath>
<clipPath id="clip2_297_1643">
<rect width="27.636" height="32.088" fill="white" transform="translate(67.1362 61.5562)"/>
</clipPath>
<clipPath id="clip3_297_1643">
<rect width="10.752" height="10.752" fill="white" transform="translate(113.252 40.5562)"/>
</clipPath>
<clipPath id="clip4_297_1643">
<rect width="38.052" height="21.252" fill="white" transform="translate(75.7041 107.756)"/>
</clipPath>
<clipPath id="clip5_297_1643">
<rect width="99.624" height="48.636" fill="white" transform="translate(42.9438 72.3081)"/>
</clipPath>
<clipPath id="clip6_297_1643">
<rect width="16.8" height="14.952" fill="white" transform="translate(64.1958 122.96)"/>
</clipPath>
</defs>
</svg>
