<svg width="184" height="173" viewBox="0 0 184 173" fill="none" xmlns="http://www.w3.org/2000/svg">
<path opacity="0.08" d="M153.378 46.0419C170.014 83.1428 153.899 126.492 117.383 142.865C80.8683 159.239 37.7808 142.436 21.145 105.335C4.50907 68.2339 105.453 182.441 89.7999 81.3493C74.1471 -19.7424 136.742 8.94103 153.378 46.0419Z" fill="black"/>
<g clip-path="url(#clip0_297_1177)">
<path d="M62.8639 94.6233C50.4194 95.463 43.9982 86.8888 44.4891 76.5834C45.0158 65.5288 56.0173 47.9626 70.1359 40.9391C78.3929 36.8316 90.6538 33.9894 100.204 41.4495C123.488 59.6384 138.573 57.8799 140.53 74.2846C141.413 81.69 134.388 89.533 122.337 86.6203C78.2528 75.9654 90.1688 92.7808 62.8639 94.6233Z" fill="#219F94"/>
</g>
<g clip-path="url(#clip1_297_1177)">
<path d="M94.6634 131.43L100.043 118.988H82.6662L77.7893 130.266C76.5808 133.061 78.6301 136.179 81.6753 136.179H102.661C103.107 136.179 103.469 135.817 103.469 135.371C103.469 134.925 103.107 134.563 102.661 134.563H96.7229C95.1091 134.563 94.0231 132.911 94.6635 131.43L94.6634 131.43Z" fill="#219F94"/>
<path d="M102.661 136.344H81.6754C80.1895 136.344 78.8152 135.603 77.9992 134.362C77.1832 133.12 77.048 131.565 77.6377 130.201L82.5146 118.922C82.5274 118.893 82.5485 118.868 82.5755 118.85C82.6024 118.832 82.634 118.823 82.6662 118.823H100.044C100.071 118.823 100.098 118.83 100.122 118.843C100.146 118.855 100.167 118.874 100.182 118.897C100.197 118.92 100.206 118.946 100.208 118.974C100.211 119.001 100.206 119.028 100.195 119.053L94.8152 131.496C94.6779 131.812 94.6217 132.157 94.6515 132.5C94.6813 132.843 94.7963 133.174 94.986 133.461C95.1748 133.75 95.4325 133.986 95.7358 134.15C96.0391 134.314 96.3784 134.399 96.723 134.398H102.661C103.198 134.398 103.634 134.835 103.634 135.371C103.634 135.908 103.198 136.344 102.661 136.344ZM82.7748 119.153L77.941 130.332C77.3956 131.593 77.5206 133.032 78.2753 134.18C79.03 135.328 80.3011 136.014 81.6754 136.014H102.661C103.015 136.014 103.304 135.726 103.304 135.371C103.304 135.017 103.015 134.729 102.661 134.729H96.723C95.9093 134.729 95.1567 134.323 94.7098 133.643C94.2629 132.963 94.189 132.111 94.5119 131.364L99.7921 119.153H82.7747H82.7748Z" fill="#1A1A1A"/>
<path d="M102.661 134.563H81.6483C79.5919 134.563 78.2079 132.458 79.024 130.57L84.0324 118.988H82.6662L77.7892 130.266C76.5808 133.061 78.6301 136.179 81.6753 136.179H102.661C103.107 136.179 103.469 135.817 103.469 135.371C103.469 134.925 103.107 134.563 102.661 134.563H102.661Z" fill="#219F94"/>
<path d="M102.661 136.344H81.6754C80.1895 136.344 78.8152 135.603 77.9991 134.362C77.1832 133.12 77.0481 131.565 77.6377 130.201L82.5145 118.922C82.5273 118.893 82.5485 118.868 82.5754 118.85C82.6024 118.832 82.6339 118.823 82.6662 118.823H84.0325C84.0598 118.823 84.0868 118.83 84.1109 118.843C84.135 118.855 84.1556 118.874 84.1706 118.897C84.1856 118.92 84.1947 118.946 84.1971 118.974C84.1995 119.001 84.195 119.028 84.1841 119.053L79.1758 130.636C78.9979 131.046 78.9249 131.493 78.9636 131.938C79.0022 132.383 79.1513 132.811 79.3971 133.184C79.6418 133.558 79.9759 133.864 80.3689 134.076C80.762 134.288 81.2018 134.399 81.6484 134.398H102.661C103.197 134.398 103.634 134.835 103.634 135.371C103.634 135.908 103.197 136.344 102.661 136.344V136.344ZM82.7747 119.153L77.9409 130.332C77.3955 131.593 77.5205 133.032 78.2753 134.18C79.0299 135.329 80.301 136.014 81.6754 136.014H102.661C103.015 136.014 103.304 135.726 103.304 135.371C103.304 135.017 103.015 134.729 102.661 134.729H81.6484C80.6268 134.729 79.682 134.219 79.121 133.365C78.56 132.512 78.4671 131.442 78.8725 130.505L83.781 119.153H82.7747Z" fill="#1A1A1A"/>
<path d="M82.9937 121.379C86.1778 121.379 86.9211 123.9 88.828 123.997C90.9966 124.107 93.0368 122.51 94.5185 123.603C95.8345 124.574 95.0335 126.582 96.5675 127.027L100.043 118.988H84.0324L82.9937 121.379Z" fill="#1A1A1A"/>
<path d="M96.5677 127.192C96.5525 127.192 96.5369 127.19 96.5217 127.185C95.6097 126.921 95.4366 126.154 95.2692 125.412C95.1295 124.793 94.9851 124.153 94.4206 123.736C93.607 123.136 92.5977 123.415 91.4292 123.738C90.5937 123.969 89.7302 124.208 88.8199 124.162C87.9498 124.117 87.3096 123.602 86.6318 123.055C85.7526 122.347 84.7562 121.544 82.9939 121.544C82.9665 121.544 82.9395 121.538 82.9153 121.525C82.8912 121.512 82.8707 121.493 82.8556 121.47C82.8406 121.447 82.8315 121.421 82.8292 121.393C82.8269 121.366 82.8314 121.338 82.8424 121.313L83.8812 118.922C83.894 118.893 83.9152 118.867 83.9421 118.85C83.969 118.832 84.0005 118.823 84.0327 118.823H100.044C100.071 118.823 100.098 118.83 100.122 118.843C100.146 118.855 100.167 118.874 100.182 118.897C100.197 118.92 100.206 118.946 100.208 118.974C100.211 119.001 100.206 119.028 100.195 119.053L96.7194 127.092C96.7066 127.122 96.6854 127.147 96.6585 127.165C96.6316 127.183 96.6001 127.192 96.5678 127.192L96.5677 127.192ZM93.2734 123.054C93.751 123.054 94.2022 123.165 94.6168 123.471C95.2803 123.96 95.4457 124.693 95.5915 125.339C95.7406 126 95.8706 126.576 96.4767 126.821L99.7923 119.153H84.141L83.2435 121.219C84.9669 121.29 85.959 122.089 86.839 122.798C87.5014 123.332 88.0735 123.793 88.8366 123.832C89.6933 123.875 90.531 123.644 91.341 123.42C92.0132 123.234 92.6646 123.054 93.2734 123.054V123.054Z" fill="#1A1A1A"/>
<path d="M120.189 73.6826H58.0163C55.8268 73.6826 54.0518 75.4573 54.0518 77.6465V117.415C54.0518 119.604 55.8268 121.379 58.0163 121.379H120.189C122.378 121.379 124.153 119.604 124.153 117.415V77.6465C124.153 75.4573 122.378 73.6826 120.189 73.6826Z" fill="white"/>
<path d="M120.189 73.6826H58.695C56.5055 73.6826 54.7305 75.4573 54.7305 77.6465V117.415C54.7305 119.604 56.5055 121.379 58.695 121.379H120.189C122.378 121.379 124.153 119.604 124.153 117.415V77.6465C124.153 75.4573 122.378 73.6826 120.189 73.6826Z" fill="#219F94"/>
<path d="M120.189 121.544H58.0165C55.7393 121.544 53.8867 119.692 53.8867 117.415V77.6467C53.8867 75.3699 55.7393 73.5176 58.0165 73.5176H120.189C122.466 73.5176 124.319 75.3699 124.319 77.6467V117.415C124.319 119.692 122.466 121.544 120.189 121.544ZM58.0165 73.8479C55.9215 73.8479 54.2171 75.5521 54.2171 77.6467V117.415C54.2171 119.51 55.9215 121.214 58.0165 121.214H120.189C122.284 121.214 123.988 119.51 123.988 117.415V77.6467C123.988 75.5521 122.284 73.8479 120.189 73.8479H58.0165Z" fill="#1A1A1A"/>
<path d="M120.189 73.6826H60.6345C58.4449 73.6826 56.6699 75.4573 56.6699 77.6465V117.415C56.6699 119.604 58.4449 121.379 60.6345 121.379H120.189C122.379 121.379 124.154 119.604 124.154 117.415V77.6465C124.154 75.4573 122.379 73.6826 120.189 73.6826Z" fill="#1A1A1A"/>
<path d="M120.189 121.544H60.6346C58.3575 121.544 56.5049 119.692 56.5049 117.415V77.6467C56.5049 75.3699 58.3574 73.5176 60.6346 73.5176H120.189C122.466 73.5176 124.319 75.3699 124.319 77.6467V117.415C124.319 119.692 122.466 121.544 120.189 121.544ZM60.6346 73.8479C58.5397 73.8479 56.8353 75.5521 56.8353 77.6467V117.415C56.8353 119.51 58.5397 121.214 60.6346 121.214H120.189C122.284 121.214 123.989 119.51 123.989 117.415V77.6467C123.989 75.5521 122.284 73.8479 120.189 73.8479H60.6346Z" fill="#1A1A1A"/>
<path d="M56.6699 113.042H124.154V117.415C124.154 119.603 122.377 121.379 120.189 121.379H60.6345C58.4464 121.379 56.6699 119.603 56.6699 117.415V113.042Z" fill="white"/>
<path d="M56.6699 113.753H124.154V117.415C124.154 119.603 122.377 121.379 120.189 121.379H60.6345C58.4464 121.379 56.6699 119.603 56.6699 117.415V113.753Z" fill="#219F94"/>
<path d="M120.189 121.544H60.6346C58.3575 121.544 56.5049 119.692 56.5049 117.415V113.042C56.5049 112.998 56.5223 112.956 56.5533 112.925C56.5842 112.894 56.6263 112.876 56.6701 112.876H124.154C124.198 112.876 124.24 112.894 124.271 112.925C124.302 112.956 124.319 112.998 124.319 113.042V117.415C124.319 119.692 122.466 121.544 120.189 121.544ZM56.8353 113.207V117.415C56.8353 119.51 58.5397 121.214 60.6346 121.214H120.189C122.284 121.214 123.989 119.51 123.989 117.415V113.207H56.8353Z" fill="#1A1A1A"/>
<path d="M92.9007 119.314C91.7404 119.314 90.7964 118.37 90.7964 117.21C90.7964 116.05 91.7404 115.106 92.9007 115.106C94.0611 115.106 95.0052 116.05 95.0052 117.21C95.0052 118.37 94.0611 119.314 92.9007 119.314ZM92.9007 115.436C91.9226 115.436 91.1268 116.232 91.1268 117.21C91.1268 118.188 91.9226 118.984 92.9007 118.984C93.8789 118.984 94.6748 118.188 94.6748 117.21C94.6748 116.232 93.879 115.436 92.9007 115.436Z" fill="#1A1A1A"/>
<path d="M92.9006 115.271C92.7966 115.272 92.6929 115.28 92.5903 115.297C93.5137 115.445 94.2193 116.245 94.2193 117.21C94.2193 118.175 93.5137 118.976 92.5903 119.124C92.6929 119.141 92.7966 119.149 92.9006 119.149C93.9716 119.149 94.8397 118.281 94.8397 117.21C94.8397 116.14 93.9716 115.271 92.9006 115.271Z" fill="#1A1A1A"/>
<path d="M92.9005 119.314C92.789 119.314 92.6759 119.305 92.564 119.287C92.5252 119.281 92.4899 119.261 92.4644 119.231C92.4389 119.201 92.4249 119.163 92.4248 119.124C92.4248 119.085 92.4388 119.047 92.4643 119.017C92.4898 118.987 92.5252 118.967 92.564 118.961C93.4273 118.822 94.054 118.086 94.054 117.21C94.054 116.334 93.4273 115.598 92.564 115.459C92.5252 115.453 92.4898 115.433 92.4643 115.403C92.4388 115.373 92.4248 115.335 92.4248 115.296C92.4248 115.257 92.4388 115.219 92.4643 115.189C92.4898 115.159 92.5252 115.139 92.564 115.133C92.6752 115.115 92.7877 115.106 92.9004 115.106C94.0608 115.106 95.0049 116.05 95.0049 117.21C95.0049 118.37 94.0608 119.314 92.9004 119.314L92.9005 119.314ZM93.6333 115.595C94.097 115.982 94.3844 116.564 94.3844 117.21C94.3844 117.856 94.0969 118.438 93.6332 118.825C94.2468 118.546 94.6745 117.927 94.6745 117.21C94.6745 116.493 94.2468 115.874 93.6332 115.595H93.6333Z" fill="#1A1A1A"/>
</g>
<g clip-path="url(#clip2_297_1177)">
<path d="M115.934 78.5617H110.288L110.285 78.5615L110.282 78.5617H104.671L104.668 78.5615L104.664 78.5617H74.7964L74.7933 78.5615L74.7901 78.5617H64.4198C64.082 78.5617 63.8081 78.8309 63.8081 79.163V107.965C63.8081 108.297 64.082 108.566 64.4198 108.566H115.934C116.272 108.566 116.546 108.297 116.546 107.965V79.163C116.546 78.8308 116.272 78.5617 115.934 78.5617ZM104.056 92.9622H75.4051V89.3647H104.056V92.9622ZM105.279 89.3647H109.673V92.9622H105.279V89.3647ZM74.1816 92.9622H65.0316V89.3647H74.1816V92.9622ZM65.0316 94.1649H74.1816V97.7625H65.0316V94.1649ZM75.4051 94.1649H104.056V97.7625H75.4051V94.1649ZM105.279 94.1649H109.673V97.7625H105.279V94.1649ZM110.897 94.1649H115.323V97.7625H110.897V94.1649ZM110.897 92.9622V89.3647H115.323V92.9622H110.897ZM110.897 88.162V84.5645H115.323V88.162H110.897ZM109.673 88.162H105.279V84.5645H109.673V88.162ZM105.279 83.3618V79.7644H109.673V83.3618H105.279ZM104.056 83.3618H75.4051V79.7644H104.056V83.3618H104.056ZM104.056 84.5645V88.162H75.4051V84.5645H104.056H104.056ZM74.1816 88.162H65.0316V84.5645H74.1816V88.162ZM65.0316 98.9652H74.1816V102.563H65.0316V98.9652ZM75.4051 98.9652H104.056V102.563H75.4051V98.9652ZM104.056 103.765V107.363H75.4051V103.765H104.056H104.056ZM105.279 103.765H109.673V107.363H105.279V103.765ZM105.279 102.563V98.9652H109.673V102.563H105.279ZM110.897 98.9652H115.323V102.563H110.897V98.9652ZM115.323 83.3618H110.897V79.7644H115.323V83.3618ZM74.1816 79.7644V83.3618H65.0316V79.7644H74.1816ZM65.0316 103.765H74.1816V107.363H65.0316V103.765ZM110.897 107.363V103.765H115.323V107.363H110.897Z" fill="#219F94"/>
<path d="M115.934 108.733H64.4199C63.9905 108.733 63.6411 108.388 63.6411 107.965V79.163C63.6411 78.7394 63.9905 78.3947 64.4199 78.3947H74.7864C74.7914 78.3945 74.7955 78.3945 74.8004 78.3947H104.661C104.666 78.3945 104.67 78.3945 104.675 78.3947H110.278C110.283 78.3945 110.287 78.3945 110.292 78.3947H115.934C116.364 78.3947 116.713 78.7394 116.713 79.163V107.965C116.713 108.388 116.364 108.733 115.934 108.733L115.934 108.733ZM64.4199 78.7288C64.1746 78.7288 63.9751 78.9235 63.9751 79.163V107.965C63.9751 108.204 64.1746 108.399 64.4199 108.399H115.934C116.18 108.399 116.379 108.204 116.379 107.965V79.163C116.379 78.9235 116.18 78.7288 115.934 78.7288H64.4199ZM115.323 107.53H110.897C110.852 107.53 110.81 107.513 110.779 107.482C110.747 107.45 110.73 107.408 110.73 107.363V103.765C110.73 103.721 110.747 103.679 110.779 103.647C110.81 103.616 110.852 103.598 110.897 103.598H115.323C115.367 103.598 115.409 103.616 115.441 103.647C115.472 103.679 115.49 103.721 115.49 103.765V107.363C115.49 107.408 115.472 107.45 115.441 107.482C115.409 107.513 115.367 107.53 115.323 107.53ZM111.064 107.196H115.156V103.932H111.064V107.196ZM109.673 107.53H105.279C105.235 107.53 105.193 107.513 105.161 107.482C105.13 107.45 105.112 107.408 105.112 107.363V103.765C105.112 103.721 105.13 103.679 105.161 103.647C105.193 103.616 105.235 103.598 105.279 103.598H109.673C109.718 103.598 109.76 103.616 109.791 103.647C109.823 103.679 109.84 103.721 109.84 103.765V107.363C109.84 107.408 109.823 107.45 109.791 107.482C109.76 107.513 109.718 107.53 109.673 107.53ZM105.446 107.196H109.506V103.932H105.446V107.196ZM104.056 107.53H75.4051C75.3608 107.53 75.3183 107.513 75.287 107.482C75.2557 107.45 75.2381 107.408 75.2381 107.363V103.765C75.2381 103.721 75.2557 103.679 75.287 103.647C75.3183 103.616 75.3608 103.598 75.4051 103.598H104.056C104.1 103.598 104.143 103.616 104.174 103.647C104.205 103.679 104.223 103.721 104.223 103.765V107.363C104.223 107.408 104.205 107.45 104.174 107.482C104.143 107.513 104.1 107.53 104.056 107.53ZM75.572 107.196H103.889V103.932H75.5721L75.572 107.196ZM74.1815 107.53H65.0316C64.9873 107.53 64.9448 107.513 64.9135 107.482C64.8822 107.45 64.8646 107.408 64.8646 107.363V103.765C64.8646 103.721 64.8822 103.679 64.9135 103.647C64.9448 103.616 64.9873 103.598 65.0316 103.598H74.1816C74.2259 103.598 74.2684 103.616 74.2997 103.647C74.331 103.679 74.3486 103.721 74.3486 103.765V107.363C74.3486 107.408 74.331 107.45 74.2997 107.482C74.2684 107.513 74.2258 107.53 74.1815 107.53ZM65.1985 107.196H74.0146V103.932H65.1986V107.196H65.1985ZM115.323 102.73H110.897C110.852 102.73 110.81 102.712 110.779 102.681C110.747 102.65 110.73 102.607 110.73 102.563V98.9652C110.73 98.9209 110.747 98.8784 110.779 98.8471C110.81 98.8158 110.852 98.7982 110.897 98.7982H115.323C115.367 98.7982 115.409 98.8158 115.441 98.8471C115.472 98.8784 115.49 98.9209 115.49 98.9652V102.563C115.49 102.607 115.472 102.65 115.441 102.681C115.409 102.712 115.367 102.73 115.323 102.73ZM111.064 102.396H115.156V99.1323H111.064V102.396ZM109.673 102.73H105.279C105.235 102.73 105.193 102.712 105.161 102.681C105.13 102.65 105.112 102.607 105.112 102.563V98.9652C105.112 98.9209 105.13 98.8784 105.161 98.8471C105.193 98.8158 105.235 98.7982 105.279 98.7982H109.673C109.718 98.7982 109.76 98.8158 109.791 98.8471C109.823 98.8784 109.84 98.9209 109.84 98.9652V102.563C109.84 102.607 109.823 102.65 109.791 102.681C109.76 102.712 109.718 102.73 109.673 102.73ZM105.446 102.396H109.506V99.1323H105.446V102.396ZM104.056 102.73H75.4051C75.3608 102.73 75.3183 102.712 75.287 102.681C75.2557 102.65 75.2381 102.607 75.2381 102.563V98.9652C75.2381 98.9209 75.2557 98.8784 75.287 98.8471C75.3183 98.8158 75.3608 98.7982 75.4051 98.7982H104.056C104.1 98.7982 104.143 98.8158 104.174 98.8471C104.205 98.8784 104.223 98.9209 104.223 98.9652V102.563C104.223 102.607 104.205 102.65 104.174 102.681C104.143 102.712 104.1 102.73 104.056 102.73H104.056ZM75.5719 102.396H103.889V99.1323H75.5721V102.396H75.5719ZM74.1814 102.73H65.0316C64.9873 102.73 64.9448 102.712 64.9135 102.681C64.8822 102.65 64.8646 102.607 64.8646 102.563V98.9652C64.8646 98.9209 64.8822 98.8784 64.9135 98.8471C64.9448 98.8158 64.9873 98.7982 65.0316 98.7982H74.1816C74.2259 98.7982 74.2684 98.8158 74.2997 98.8471C74.331 98.8784 74.3486 98.9209 74.3486 98.9652V102.563C74.3486 102.607 74.331 102.65 74.2997 102.681C74.2684 102.712 74.2259 102.73 74.1816 102.73H74.1814ZM65.1984 102.396H74.0146V99.1323H65.1986V102.396H65.1984ZM115.322 97.9296H110.897C110.852 97.9296 110.81 97.912 110.779 97.8806C110.747 97.8493 110.73 97.8068 110.73 97.7625V94.1649C110.73 94.1206 110.747 94.0781 110.779 94.0468C110.81 94.0155 110.852 93.9979 110.897 93.9979H115.322C115.367 93.9979 115.409 94.0155 115.441 94.0468C115.472 94.0781 115.489 94.1206 115.489 94.1649V97.7625C115.489 97.8068 115.472 97.8493 115.441 97.8806C115.409 97.912 115.367 97.9296 115.322 97.9296ZM111.064 97.5955H115.155V94.332H111.064V97.5955ZM109.673 97.9296H105.279C105.235 97.9296 105.192 97.912 105.161 97.8806C105.13 97.8493 105.112 97.8068 105.112 97.7625V94.1649C105.112 94.1206 105.13 94.0781 105.161 94.0468C105.192 94.0155 105.235 93.9979 105.279 93.9979H109.673C109.717 93.9979 109.76 94.0155 109.791 94.0468C109.823 94.0781 109.84 94.1206 109.84 94.1649V97.7625C109.84 97.8068 109.823 97.8493 109.791 97.8806C109.76 97.912 109.717 97.9296 109.673 97.9296ZM105.446 97.5955H109.506V94.332H105.446V97.5955ZM104.056 97.9296H75.4051C75.3608 97.9296 75.3183 97.912 75.287 97.8806C75.2557 97.8493 75.2381 97.8068 75.2381 97.7625V94.1649C75.2381 94.1206 75.2557 94.0781 75.287 94.0468C75.3183 94.0155 75.3608 93.9979 75.4051 93.9979H104.056C104.1 93.9979 104.143 94.0155 104.174 94.0468C104.205 94.0781 104.223 94.1206 104.223 94.1649V97.7625C104.223 97.8068 104.205 97.8493 104.174 97.8806C104.143 97.912 104.1 97.9296 104.056 97.9296H104.056ZM75.5719 97.5955H103.889V94.332H75.5721V97.5955H75.5719ZM74.1814 97.9296H65.0316C64.9873 97.9296 64.9448 97.912 64.9135 97.8806C64.8822 97.8493 64.8646 97.8068 64.8646 97.7625V94.1649C64.8646 94.1206 64.8822 94.0781 64.9135 94.0468C64.9448 94.0155 64.9873 93.9979 65.0316 93.9979H74.1816C74.2259 93.9979 74.2684 94.0155 74.2997 94.0468C74.331 94.0781 74.3486 94.1206 74.3486 94.1649V97.7625C74.3486 97.8068 74.331 97.8493 74.2997 97.8806C74.2684 97.912 74.2259 97.9296 74.1816 97.9296H74.1814ZM65.1984 97.5955H74.0146V94.332H65.1986V97.5955H65.1984ZM115.322 93.1293H110.897C110.852 93.1293 110.81 93.1117 110.778 93.0804C110.747 93.049 110.73 93.0065 110.73 92.9622V89.3647C110.73 89.3204 110.747 89.2779 110.778 89.2466C110.81 89.2153 110.852 89.1977 110.897 89.1977H115.322C115.367 89.1977 115.409 89.2153 115.44 89.2466C115.472 89.2779 115.489 89.3204 115.489 89.3647V92.9622C115.489 93.0065 115.472 93.049 115.44 93.0804C115.409 93.1117 115.367 93.1293 115.322 93.1293ZM111.064 92.7952H115.155V89.5318H111.064V92.7952ZM109.673 93.1293H105.279C105.235 93.1293 105.192 93.1117 105.161 93.0804C105.13 93.049 105.112 93.0065 105.112 92.9622V89.3647C105.112 89.3204 105.13 89.2779 105.161 89.2466C105.192 89.2153 105.235 89.1977 105.279 89.1977H109.673C109.717 89.1977 109.76 89.2153 109.791 89.2466C109.822 89.2779 109.84 89.3204 109.84 89.3647V92.9622C109.84 93.0065 109.822 93.049 109.791 93.0804C109.76 93.1117 109.717 93.1293 109.673 93.1293ZM105.446 92.7952H109.506V89.5318H105.446V92.7952ZM104.056 93.1293H75.4051C75.3608 93.1293 75.3183 93.1117 75.287 93.0804C75.2557 93.049 75.2381 93.0065 75.2381 92.9622V89.3647C75.2381 89.3204 75.2557 89.2779 75.287 89.2466C75.3183 89.2153 75.3608 89.1977 75.4051 89.1977H104.056C104.1 89.1977 104.143 89.2153 104.174 89.2466C104.205 89.2779 104.223 89.3204 104.223 89.3647V92.9622C104.223 93.0065 104.205 93.049 104.174 93.0804C104.143 93.1117 104.1 93.1293 104.056 93.1293H104.056ZM75.5718 92.7952H103.889V89.5318H75.5721V92.7952H75.5718ZM74.1813 93.1293H65.0316C64.9873 93.1293 64.9448 93.1117 64.9135 93.0804C64.8822 93.049 64.8646 93.0065 64.8646 92.9622V89.3647C64.8646 89.3204 64.8822 89.2779 64.9135 89.2466C64.9448 89.2153 64.9873 89.1977 65.0316 89.1977H74.1816C74.2259 89.1977 74.2684 89.2153 74.2997 89.2466C74.331 89.2779 74.3486 89.3204 74.3486 89.3647V92.9622C74.3486 93.0065 74.331 93.049 74.2997 93.0804C74.2684 93.1117 74.2259 93.1293 74.1816 93.1293H74.1813ZM65.1983 92.7952H74.0146V89.5318H65.1986V92.7952H65.1983ZM115.322 88.3291H110.896C110.852 88.3291 110.81 88.3115 110.778 88.2802C110.747 88.2488 110.729 88.2063 110.729 88.162V84.5645C110.729 84.5202 110.747 84.4777 110.778 84.4464C110.81 84.4151 110.852 84.3975 110.896 84.3975H115.322C115.367 84.3975 115.409 84.4151 115.44 84.4464C115.472 84.4777 115.489 84.5202 115.489 84.5645V88.162C115.489 88.2063 115.472 88.2488 115.44 88.2802C115.409 88.3115 115.367 88.3291 115.322 88.3291ZM111.063 87.995H115.155V84.7316H111.063V87.995ZM109.673 88.3291H105.279C105.235 88.3291 105.192 88.3115 105.161 88.2802C105.13 88.2488 105.112 88.2063 105.112 88.162V84.5645C105.112 84.5202 105.13 84.4777 105.161 84.4464C105.192 84.4151 105.235 84.3975 105.279 84.3975H109.673C109.717 84.3975 109.76 84.4151 109.791 84.4464C109.822 84.4777 109.84 84.5202 109.84 84.5645V88.162C109.84 88.2063 109.822 88.2488 109.791 88.2802C109.76 88.3115 109.717 88.3291 109.673 88.3291ZM105.446 87.995H109.506V84.7316H105.446V87.995ZM104.056 88.3291H75.4051C75.3608 88.3291 75.3183 88.3115 75.287 88.2802C75.2557 88.2488 75.2381 88.2063 75.2381 88.162V84.5645C75.2381 84.5202 75.2557 84.4777 75.287 84.4464C75.3183 84.4151 75.3608 84.3975 75.4051 84.3975H104.056C104.1 84.3975 104.143 84.4151 104.174 84.4464C104.205 84.4777 104.223 84.5202 104.223 84.5645V88.162C104.223 88.2063 104.205 88.2488 104.174 88.2802C104.143 88.3115 104.1 88.3291 104.056 88.3291H104.056ZM75.5717 87.995H103.889V84.7316H75.5721V87.995H75.5717ZM74.1812 88.3291H65.0316C64.9873 88.3291 64.9448 88.3115 64.9135 88.2802C64.8822 88.2488 64.8646 88.2063 64.8646 88.162V84.5645C64.8646 84.5202 64.8822 84.4777 64.9135 84.4464C64.9448 84.4151 64.9873 84.3975 65.0316 84.3975H74.1816C74.2259 84.3975 74.2684 84.4151 74.2997 84.4464C74.331 84.4777 74.3486 84.5202 74.3486 84.5645V88.162C74.3486 88.2063 74.331 88.2488 74.2997 88.2802C74.2684 88.3115 74.2259 88.3291 74.1816 88.3291H74.1812ZM65.1982 87.995H74.0146V84.7316H65.1986V87.995H65.1982ZM115.323 83.5289H110.897C110.852 83.5289 110.81 83.5113 110.779 83.48C110.747 83.4486 110.73 83.4061 110.73 83.3618V79.7644C110.73 79.7201 110.747 79.6776 110.779 79.6463C110.81 79.615 110.852 79.5974 110.897 79.5974H115.323C115.367 79.5974 115.409 79.615 115.441 79.6463C115.472 79.6776 115.49 79.7201 115.49 79.7644V83.3618C115.49 83.4061 115.472 83.4486 115.441 83.48C115.409 83.5113 115.367 83.5289 115.323 83.5289ZM111.064 83.1948H115.156V79.9315H111.064V83.1948ZM109.673 83.5289H105.279C105.235 83.5289 105.193 83.5113 105.161 83.48C105.13 83.4486 105.112 83.4061 105.112 83.3618V79.7644C105.112 79.7201 105.13 79.6776 105.161 79.6463C105.193 79.615 105.235 79.5974 105.279 79.5974H109.673C109.718 79.5974 109.76 79.615 109.791 79.6463C109.823 79.6776 109.84 79.7201 109.84 79.7644V83.3618C109.84 83.4061 109.823 83.4486 109.791 83.48C109.76 83.5113 109.718 83.5289 109.673 83.5289ZM105.446 83.1948H109.506V79.9315H105.446V83.1948ZM104.056 83.5289H75.4051C75.3608 83.5289 75.3183 83.5113 75.287 83.48C75.2557 83.4486 75.2381 83.4061 75.2381 83.3618V79.7644C75.2381 79.7201 75.2557 79.6776 75.287 79.6463C75.3183 79.615 75.3608 79.5974 75.4051 79.5974H104.056C104.1 79.5974 104.143 79.615 104.174 79.6463C104.205 79.6776 104.223 79.7201 104.223 79.7644V83.3618C104.223 83.4061 104.205 83.4486 104.174 83.48C104.143 83.5113 104.1 83.5289 104.056 83.5289ZM75.572 83.1948H103.889V79.9315H75.5721L75.572 83.1948ZM74.1815 83.5289H65.0316C64.9873 83.5289 64.9448 83.5113 64.9135 83.48C64.8822 83.4486 64.8646 83.4061 64.8646 83.3618V79.7644C64.8646 79.7201 64.8822 79.6776 64.9135 79.6463C64.9448 79.615 64.9873 79.5974 65.0316 79.5974H74.1816C74.2259 79.5974 74.2684 79.615 74.2997 79.6463C74.331 79.6776 74.3486 79.7201 74.3486 79.7644V83.3618C74.3486 83.4061 74.331 83.4486 74.2997 83.48C74.2684 83.5113 74.2258 83.5289 74.1815 83.5289ZM65.1985 83.1948H74.0146V79.9315H65.1986V83.1948H65.1985Z" fill="#1A1A1A"/>
</g>
<g clip-path="url(#clip3_297_1177)">
<path d="M84.0607 54.5039V86.8271L79.3989 81.6807H61.1406V58.6461L65.4102 54.5039H84.0607Z" fill="white"/>
<path d="M60.9232 59.3607C60.9358 59.4019 60.9323 59.4463 60.9136 59.4851L60.9232 59.3607ZM74.1296 81.6807H61.1406V59.2637C61.6558 63.5279 61.6581 63.6441 61.8114 64.2079C62.13 65.3852 62.1437 65.1551 61.8933 66.5706C61.5121 68.7296 62.1452 70.9614 61.8347 73.1308C61.4937 75.5111 61.9775 74.5239 61.9559 75.9618C61.9038 79.4088 61.8476 79.4865 62.0683 79.7592C62.0947 79.7921 63.0335 80.5107 63.0415 80.5163C64.1978 81.3046 65.7424 80.8282 67.1321 80.659C69.0939 80.42 72.1341 81.0336 74.1296 81.6807Z" fill="#219F94"/>
<path d="M84.0605 86.9922C84.0148 86.9922 83.97 86.9732 83.9381 86.938L79.3259 81.8455H61.1401C61.0963 81.8455 61.0544 81.8281 61.0234 81.7972C60.9925 81.7663 60.9751 81.7243 60.9751 81.6806V58.6462C60.9751 58.6016 60.9932 58.5589 61.0252 58.5279L65.2953 54.3855C65.3261 54.3556 65.3673 54.3389 65.4102 54.3389H84.0604C84.1041 54.3389 84.1461 54.3562 84.1771 54.3872C84.208 54.4181 84.2254 54.46 84.2254 54.5038V86.8273C84.2254 86.871 84.208 86.913 84.1771 86.9439C84.1461 86.9748 84.1041 86.9922 84.0604 86.9922H84.0605ZM61.3051 81.5157H79.399C79.422 81.5157 79.4448 81.5205 79.4659 81.5299C79.487 81.5392 79.5058 81.5529 79.5213 81.5699L83.8954 86.3994V54.6687H65.4771L61.3051 58.7159V81.5157Z" fill="#1A1A1A"/>
<path d="M61.1401 58.6463L65.8288 59.3367L65.4102 54.5039L61.1401 58.6463Z" fill="#1A1A1A"/>
<path d="M65.8289 59.5015C65.8209 59.5015 65.8129 59.5009 65.8048 59.4997L61.1161 58.8093C61.0856 58.8048 61.057 58.7919 61.0335 58.772C61.01 58.7522 60.9925 58.7261 60.9831 58.6968C60.9736 58.6675 60.9725 58.6362 60.98 58.6063C60.9874 58.5764 61.0031 58.5492 61.0252 58.5278L65.2953 54.3854C65.3177 54.3637 65.3458 54.3488 65.3763 54.3424C65.4069 54.336 65.4386 54.3384 65.4678 54.3493C65.4971 54.3601 65.5226 54.3791 65.5415 54.4039C65.5604 54.4287 65.5719 54.4584 65.5746 54.4895L65.9933 59.3223C65.9952 59.3451 65.9924 59.368 65.9851 59.3896C65.9777 59.4113 65.9659 59.4311 65.9504 59.448C65.935 59.4648 65.9162 59.4783 65.8953 59.4875C65.8743 59.4967 65.8517 59.5014 65.8288 59.5014L65.8289 59.5015ZM61.495 58.5317L65.6464 59.1429L65.2758 54.8639L61.495 58.5317Z" fill="#1A1A1A"/>
<path d="M61.1401 58.6463L66.6661 58.3325L65.4102 54.5039L61.1401 58.6463Z" fill="white"/>
<path d="M61.1401 58.8111C61.1072 58.8111 61.0752 58.8013 61.0479 58.7829C61.0207 58.7646 60.9995 58.7385 60.9872 58.7081C60.9749 58.6777 60.9719 58.6443 60.9786 58.6122C60.9854 58.5801 61.0016 58.5507 61.0252 58.5278L65.2953 54.3854C65.3154 54.3659 65.3401 54.3519 65.3671 54.3446C65.3941 54.3373 65.4225 54.337 65.4497 54.3437C65.4768 54.3504 65.5019 54.3638 65.5224 54.3829C65.5429 54.4019 65.5582 54.4258 65.5669 54.4524L66.8229 58.281C66.8307 58.305 66.8329 58.3305 66.8294 58.3555C66.8258 58.3805 66.8165 58.4044 66.8023 58.4253C66.7881 58.4461 66.7692 58.4635 66.7472 58.4759C66.7252 58.4884 66.7007 58.4956 66.6754 58.4971L61.1495 58.8108C61.1464 58.811 61.1432 58.8111 61.1401 58.8111ZM65.3357 54.8059L61.5726 58.4564L66.4425 58.1798L65.3357 54.8059Z" fill="#1A1A1A"/>
</g>
<g clip-path="url(#clip4_297_1177)">
<path d="M127.708 50.013V88.3116C127.708 89.5749 126.685 90.5989 125.423 90.5989H99.1884C99.1884 90.5989 94.1375 96.1039 93.9136 96.3273C93.6905 96.5515 93.9136 90.5989 93.9136 90.5989V50.013C93.9136 48.7496 94.9365 47.7256 96.1984 47.7256H125.423C126.685 47.7256 127.708 48.7496 127.708 50.013V50.013Z" fill="white"/>
<path d="M127.708 50.013V70.5706C127.626 70.3763 127.551 70.1789 127.484 69.9789C126.897 68.2252 126.876 66.3404 126.86 64.4914C126.84 62.1339 126.819 59.7764 126.8 57.4188C126.787 55.9229 126.771 54.4041 126.341 52.9714C125.912 51.5388 127.397 49.7226 126.04 49.0981C124.141 48.2243 119.517 49.4137 117.445 49.1439C116.616 49.0356 115.813 48.7664 114.98 48.6979C113.284 48.5599 111.622 49.2651 109.92 49.2758C108.119 49.2865 106.368 48.5195 104.57 48.6277C103.133 48.7146 101.756 49.3581 100.317 49.3177C98.8341 49.2766 97.2691 48.5255 95.9386 49.1835C94.7551 49.7683 94.3172 51.2147 94.0826 52.5154C94.0195 52.8653 93.9632 53.2164 93.9136 53.5684V50.013C93.9136 48.7496 94.9364 47.7256 96.1983 47.7256H125.423C126.685 47.7256 127.708 48.7496 127.708 50.013V50.013Z" fill="#219F94"/>
<path d="M93.9016 96.4987C93.8779 96.4987 93.854 96.4939 93.8313 96.484C93.6968 96.4251 93.6078 96.3863 93.6672 93.4303C93.6955 92.0224 93.7483 90.6068 93.7489 90.5926V50.0127C93.7488 48.6603 94.8477 47.5601 96.1986 47.5601H125.424C126.774 47.5601 127.873 48.6603 127.873 50.0127V88.3115C127.873 89.6639 126.774 90.7642 125.424 90.7642H99.2611C98.7091 91.3656 94.2447 96.2298 94.0306 96.4442C94.0137 96.4613 93.9936 96.475 93.9715 96.4843C93.9493 96.4937 93.9256 96.4985 93.9016 96.4987ZM96.1986 47.8906C95.0298 47.8906 94.0789 48.8425 94.0789 50.0127V90.5989C94.0126 92.3693 93.9436 95.123 94.0002 95.9946C94.9767 94.9445 99.0218 90.5366 99.0672 90.4871C99.0826 90.4703 99.1014 90.4568 99.1224 90.4476C99.1433 90.4384 99.1659 90.4337 99.1887 90.4337H125.424C126.592 90.4337 127.543 89.4817 127.543 88.3115V50.0127C127.543 48.8425 126.592 47.8906 125.424 47.8906H96.1986Z" fill="#1A1A1A"/>
</g>
<g clip-path="url(#clip5_297_1177)">
<path d="M73.9634 78.1289C73.9323 78.1289 73.9018 78.1201 73.8754 78.1034L67.8884 74.323C67.855 74.3018 67.8302 74.2693 67.8186 74.2314C67.8071 74.1935 67.8096 74.1527 67.8256 74.1165L70.358 68.395L65.6656 63.3737C65.6433 63.3498 65.6285 63.3198 65.6233 63.2875C65.618 63.2552 65.6224 63.2221 65.636 63.1924C65.6497 63.1627 65.6718 63.1378 65.6996 63.1206C65.7274 63.1035 65.7596 63.0949 65.7922 63.096L73.9792 63.4073L76.0448 58.1805C76.0609 58.1398 76.0924 58.1072 76.1326 58.0898C76.1727 58.0724 76.2181 58.0716 76.2588 58.0877C76.2994 58.1038 76.332 58.1354 76.3494 58.1756C76.3668 58.2158 76.3675 58.2612 76.3515 58.3019L74.2781 63.5485L78.2009 68.4811C78.214 68.4975 78.2238 68.5162 78.2298 68.5364L80.0384 74.5564C80.0492 74.5922 80.0475 74.6307 80.0336 74.6654C80.0197 74.7001 79.9944 74.7291 79.9619 74.7476L74.0448 78.1073C74.0195 78.1217 73.9915 78.1288 73.9635 78.1288L73.9634 78.1289ZM68.1849 74.1198L73.9679 77.7714L79.6846 74.5253L77.923 68.6618L74.0077 63.7386L66.1801 63.441L70.6734 68.2492C70.7186 68.2975 70.7305 68.3682 70.7037 68.4288L68.1849 74.1198Z" fill="#1A1A1A"/>
<path d="M73.9635 78.1286L73.9576 78.1285C73.9245 78.1273 73.8926 78.1163 73.866 78.0967C73.8393 78.0771 73.8192 78.05 73.8081 78.0189L70.399 68.4206C70.3919 68.4021 70.3883 68.3825 70.3882 68.3627C70.3882 68.3594 70.3882 68.3561 70.3884 68.3528C70.3901 68.3199 70.4017 68.2882 70.4217 68.262L73.9571 63.4783C73.9834 63.4439 74.0221 63.4213 74.065 63.4152C74.1078 63.4091 74.1513 63.4202 74.1861 63.446C74.2209 63.4717 74.2441 63.5101 74.2509 63.5529C74.2576 63.5957 74.2473 63.6394 74.2221 63.6747L70.8731 68.2062L78.0766 68.4188C78.1036 68.4195 78.13 68.4269 78.1534 68.4403C78.1769 68.4537 78.1967 68.4727 78.2111 68.4955C78.2255 68.5184 78.2341 68.5444 78.2362 68.5714C78.2382 68.5983 78.2335 68.6253 78.2227 68.6501L74.1143 78.03C74.1014 78.0594 74.0803 78.0843 74.0535 78.1019C74.0267 78.1194 73.9954 78.1288 73.9633 78.1288L73.9635 78.1286ZM70.7893 68.5338L73.9795 77.5159L77.8227 68.7414L70.7893 68.5338Z" fill="#1A1A1A"/>
<path d="M76.1981 59.5811C76.9374 59.5811 77.5367 58.9811 77.5367 58.241C77.5367 57.5009 76.9374 56.9009 76.1981 56.9009C75.4587 56.9009 74.8594 57.5009 74.8594 58.241C74.8594 58.9811 75.4587 59.5811 76.1981 59.5811Z" fill="#1A1A1A"/>
<path d="M76.1978 59.7465C75.5044 59.7465 74.8791 59.2623 74.7279 58.5568C74.5541 57.7453 75.0721 56.9435 75.8827 56.7695C76.6934 56.5954 77.4942 57.114 77.6681 57.9255C77.8419 58.737 77.3239 59.5387 76.5133 59.7128C76.4096 59.7351 76.3038 59.7464 76.1977 59.7464L76.1978 59.7465ZM76.1983 57.066C76.117 57.066 76.0345 57.0745 75.9518 57.0923C75.319 57.2281 74.9146 57.8541 75.0503 58.4876C75.1861 59.1211 75.8114 59.526 76.4442 59.39C77.077 59.2542 77.4814 58.6282 77.3457 57.9947C77.2276 57.444 76.7396 57.066 76.1983 57.066Z" fill="#1A1A1A"/>
<path d="M65.8065 64.5967C66.5458 64.5967 67.1451 63.9967 67.1451 63.2566C67.1451 62.5165 66.5458 61.9165 65.8065 61.9165C65.0671 61.9165 64.4678 62.5165 64.4678 63.2566C64.4678 63.9967 65.0671 64.5967 65.8065 64.5967Z" fill="#219F94"/>
<path d="M65.8062 64.7616C65.1127 64.7616 64.4875 64.2775 64.3363 63.5719C64.1625 62.7604 64.6805 61.9587 65.4911 61.7846C65.6841 61.7426 65.8835 61.7393 66.0778 61.775C66.2721 61.8107 66.4574 61.8846 66.6229 61.9924C66.7891 62.0994 66.9324 62.2382 67.0446 62.401C67.1567 62.5637 67.2356 62.7471 67.2765 62.9406C67.3184 63.1338 67.3217 63.3334 67.2861 63.5279C67.2504 63.7224 67.1766 63.9079 67.0689 64.0736C66.9621 64.24 66.8234 64.3834 66.6608 64.4957C66.4982 64.608 66.315 64.6869 66.1217 64.7278C66.018 64.7501 65.9122 64.7614 65.8061 64.7614L65.8062 64.7616ZM65.8088 62.0809C65.7262 62.0809 65.643 62.0896 65.5602 62.1075C64.9274 62.2433 64.523 62.8693 64.6587 63.5028C64.7945 64.1363 65.42 64.5412 66.0526 64.4052C66.3591 64.3394 66.6218 64.158 66.792 63.8945C66.9622 63.631 67.0199 63.3168 66.9541 63.0099C66.9222 62.8589 66.8606 62.7157 66.773 62.5886C66.6855 62.4616 66.5736 62.3532 66.4438 62.2697C66.2548 62.1467 66.0342 62.0811 65.8087 62.081L65.8088 62.0809Z" fill="#1A1A1A"/>
<path d="M74.0897 64.9165C74.829 64.9165 75.4283 64.3166 75.4283 63.5764C75.4283 62.8363 74.829 62.2363 74.0897 62.2363C73.3503 62.2363 72.751 62.8363 72.751 63.5764C72.751 64.3166 73.3503 64.9165 74.0897 64.9165Z" fill="#219F94"/>
<path d="M74.0893 65.0818C73.3959 65.0818 72.7707 64.5977 72.6195 63.8922C72.5776 63.699 72.5743 63.4993 72.61 63.3048C72.6456 63.1104 72.7194 62.9249 72.8271 62.7591C72.9339 62.5928 73.0726 62.4494 73.2352 62.3371C73.3978 62.2248 73.581 62.1459 73.7743 62.1049C74.5848 61.9309 75.3858 62.4495 75.5597 63.2609C75.7335 64.0724 75.2155 64.8742 74.4049 65.0482C74.3012 65.0706 74.1954 65.0818 74.0893 65.0818ZM74.0899 62.4014C74.0086 62.4014 73.9261 62.4099 73.8434 62.4276C73.5369 62.4935 73.2743 62.6749 73.104 62.9384C72.9338 63.2019 72.8761 63.5161 72.9419 63.8229C73.0777 64.4565 73.703 64.8612 74.3358 64.7254C74.9686 64.5895 75.373 63.9636 75.2373 63.3301C75.1192 62.7794 74.6311 62.4014 74.0899 62.4014Z" fill="#1A1A1A"/>
<path d="M70.5379 69.7051C71.2772 69.7051 71.8766 69.1051 71.8766 68.365C71.8766 67.6249 71.2772 67.0249 70.5379 67.0249C69.7986 67.0249 69.1992 67.6249 69.1992 68.365C69.1992 69.1051 69.7986 69.7051 70.5379 69.7051Z" fill="#1A1A1A"/>
<path d="M70.5349 69.8707C70.2484 69.8707 69.9676 69.7883 69.7213 69.6289C69.5552 69.5219 69.4119 69.3831 69.2997 69.2203C69.1875 69.0576 69.1087 68.8742 69.0678 68.6807C69.0258 68.4875 69.0226 68.2879 69.0582 68.0934C69.0938 67.8989 69.1676 67.7134 69.2753 67.5477C69.3822 67.3813 69.5209 67.2379 69.6835 67.1256C69.846 67.0133 70.0293 66.9344 70.2225 66.8935C70.4155 66.8515 70.6149 66.8482 70.8092 66.8839C71.0035 66.9196 71.1888 66.9935 71.3543 67.1014C71.5205 67.2083 71.6638 67.3472 71.776 67.5099C71.8881 67.6727 71.967 67.8561 72.0079 68.0495C72.0498 68.2427 72.053 68.4424 72.0174 68.6369C71.9818 68.8313 71.908 69.0168 71.8003 69.1826C71.6935 69.3489 71.5547 69.4924 71.3922 69.6047C71.2296 69.717 71.0464 69.7958 70.8531 69.8368C70.7485 69.8593 70.6418 69.8707 70.5348 69.8708L70.5349 69.8707ZM70.5402 67.1897C70.4576 67.1897 70.3744 67.1984 70.2918 67.2162C69.9852 67.2821 69.7226 67.4635 69.5523 67.727C69.3821 67.9905 69.3245 68.3047 69.3903 68.6115C69.4222 68.7626 69.4837 68.9058 69.5713 69.0328C69.6589 69.1599 69.7708 69.2683 69.9005 69.3517C70.0297 69.4359 70.1744 69.4936 70.3261 69.5215C70.4777 69.5493 70.6334 69.5468 70.7841 69.514C70.935 69.4821 71.078 69.4205 71.2049 69.3328C71.3319 69.2451 71.4401 69.1331 71.5235 69.0032C71.6938 68.7397 71.7514 68.4255 71.6856 68.1187C71.6537 67.9677 71.5922 67.8245 71.5046 67.6974C71.417 67.5704 71.3052 67.462 71.1754 67.3785C70.9864 67.2554 70.7658 67.1898 70.5403 67.1897H70.5402Z" fill="#1A1A1A"/>
<path d="M73.9637 79.3037C74.703 79.3037 75.3024 78.7038 75.3024 77.9636C75.3024 77.2235 74.703 76.6235 73.9637 76.6235C73.2243 76.6235 72.625 77.2235 72.625 77.9636C72.625 78.7038 73.2243 79.3037 73.9637 79.3037Z" fill="#219F94"/>
<path d="M73.9607 79.4692C73.6742 79.4692 73.3934 79.3868 73.1471 79.2274C72.981 79.1204 72.8377 78.9816 72.7255 78.8188C72.6133 78.6561 72.5344 78.4727 72.4935 78.2792C72.4516 78.086 72.4484 77.8864 72.484 77.6919C72.5196 77.4974 72.5934 77.3119 72.7011 77.1462C72.8079 76.9798 72.9467 76.8364 73.1092 76.7241C73.2718 76.6118 73.455 76.5329 73.6483 76.492C74.0409 76.4077 74.4429 76.4815 74.7801 76.6999C75.1173 76.9182 75.3495 77.2549 75.4336 77.648C75.4756 77.8412 75.4788 78.0409 75.4432 78.2354C75.4076 78.4298 75.3338 78.6153 75.2261 78.7811C75.1192 78.9474 74.9805 79.0909 74.8179 79.2032C74.6554 79.3155 74.4721 79.3944 74.2789 79.4353C74.1743 79.4578 74.0676 79.4692 73.9606 79.4693L73.9607 79.4692ZM73.966 76.7881C73.8834 76.7881 73.8002 76.7968 73.7175 76.8146C73.411 76.8805 73.1484 77.0619 72.9781 77.3254C72.8079 77.5889 72.7503 77.9031 72.816 78.21C72.8817 78.5169 73.063 78.7797 73.3263 78.9502C73.5895 79.1206 73.9034 79.1783 74.2099 79.1124C74.3608 79.0805 74.5038 79.0189 74.6307 78.9312C74.7576 78.8435 74.8659 78.7315 74.9493 78.6016C75.1195 78.3381 75.1772 78.0239 75.1114 77.7171C75.0795 77.5661 75.018 77.4229 74.9304 77.2958C74.8428 77.1688 74.7309 77.0604 74.6012 76.9769C74.4122 76.8538 74.1915 76.7882 73.966 76.7881Z" fill="#1A1A1A"/>
<path d="M79.8284 75.856C80.5678 75.856 81.1671 75.256 81.1671 74.5159C81.1671 73.7758 80.5678 73.1758 79.8284 73.1758C79.0891 73.1758 78.4897 73.7758 78.4897 74.5159C78.4897 75.256 79.0891 75.856 79.8284 75.856Z" fill="#219F94"/>
<path d="M79.8252 76.0216C79.5387 76.0216 79.2579 75.9392 79.0117 75.7798C78.6745 75.5614 78.4423 75.2247 78.3581 74.8316C78.274 74.4385 78.3477 74.0361 78.5657 73.6986C78.6725 73.5323 78.8113 73.3888 78.9738 73.2765C79.1364 73.1642 79.3196 73.0853 79.5129 73.0444C80.3235 72.8703 81.1244 73.3889 81.2983 74.2004C81.3403 74.3936 81.3435 74.5932 81.3079 74.7877C81.2722 74.9822 81.1984 75.1677 81.0907 75.3334C80.9839 75.4997 80.8452 75.6432 80.6826 75.7555C80.52 75.8678 80.3368 75.9467 80.1436 75.9876C80.039 76.0102 79.9323 76.0216 79.8253 76.0216H79.8252ZM79.8285 73.3408C79.7472 73.3408 79.6648 73.3493 79.5821 73.3671C79.2755 73.4329 79.0129 73.6143 78.8426 73.8778C78.6724 74.1414 78.6148 74.4555 78.6806 74.7624C78.7463 75.0693 78.9275 75.3322 79.1907 75.5026C79.4539 75.673 79.7678 75.7307 80.0743 75.6648C80.2252 75.6329 80.3682 75.5713 80.4952 75.4836C80.6221 75.396 80.7304 75.2839 80.8137 75.1541C80.984 74.8906 81.0415 74.5764 80.9758 74.2695C80.8578 73.7188 80.3697 73.3408 79.8284 73.3408H79.8285Z" fill="#1A1A1A"/>
<path d="M78.0643 69.8882C78.8036 69.8882 79.403 69.2882 79.403 68.5481C79.403 67.808 78.8036 67.208 78.0643 67.208C77.3249 67.208 76.7256 67.808 76.7256 68.5481C76.7256 69.2882 77.3249 69.8882 78.0643 69.8882Z" fill="#219F94"/>
<path d="M78.0613 70.0539C77.7724 70.0537 77.4898 69.9697 77.2477 69.8121C77.0816 69.7051 76.9383 69.5662 76.8261 69.4035C76.7139 69.2407 76.6351 69.0573 76.5941 68.8639C76.4203 68.0524 76.9383 67.2506 77.7489 67.0766C78.5593 66.9027 79.3604 67.4212 79.5343 68.2326C79.6185 68.6257 79.5448 69.0281 79.3266 69.3657C79.1085 69.7032 78.7721 69.9356 78.3795 70.0199C78.2749 70.0424 78.1682 70.0538 78.0612 70.0539H78.0613ZM78.0645 67.3731C77.9832 67.3731 77.9007 67.3816 77.8181 67.3993C77.1852 67.5352 76.7809 68.1612 76.9166 68.7946C76.9485 68.9457 77.01 69.0889 77.0976 69.2159C77.1852 69.343 77.2971 69.4514 77.4268 69.5348C77.556 69.619 77.7007 69.6767 77.8524 69.7046C78.004 69.7324 78.1597 69.7299 78.3104 69.6971C78.4613 69.6651 78.6043 69.6035 78.7312 69.5159C78.8581 69.4282 78.9664 69.3162 79.0498 69.1863C79.2201 68.9228 79.2777 68.6086 79.2119 68.3018C79.0938 67.751 78.6057 67.373 78.0645 67.373V67.3731Z" fill="#1A1A1A"/>
<path d="M67.9769 75.5235C68.7162 75.5235 69.3155 74.9235 69.3155 74.1834C69.3155 73.4432 68.7162 72.8433 67.9769 72.8433C67.2375 72.8433 66.6382 73.4432 66.6382 74.1834C66.6382 74.9235 67.2375 75.5235 67.9769 75.5235Z" fill="#219F94"/>
<path d="M67.9738 75.6891C67.6874 75.6891 67.4066 75.6067 67.1603 75.4472C66.9942 75.3403 66.8508 75.2014 66.7386 75.0387C66.6265 74.8759 66.5476 74.6925 66.5067 74.4991C66.4648 74.3058 66.4615 74.1062 66.4972 73.9117C66.5328 73.7173 66.6066 73.5318 66.7143 73.366C66.8211 73.1997 66.9598 73.0562 67.1224 72.9439C67.285 72.8317 67.4682 72.7528 67.6615 72.7118C67.8545 72.6698 68.0539 72.6666 68.2482 72.7023C68.4425 72.738 68.6277 72.8119 68.7933 72.9197C68.9595 73.0266 69.1028 73.1655 69.2149 73.3283C69.3271 73.491 69.4059 73.6744 69.4468 73.8679C69.4888 74.0611 69.492 74.2607 69.4564 74.4552C69.4207 74.6497 69.3469 74.8352 69.2392 75.0009C69.1324 75.1673 68.9937 75.3107 68.8311 75.423C68.6685 75.5353 68.4853 75.6142 68.2921 75.6551C68.1875 75.6777 68.0808 75.6891 67.9738 75.6891L67.9738 75.6891ZM67.9792 73.008C67.8966 73.008 67.8134 73.0168 67.7307 73.0346C67.4242 73.1004 67.1615 73.2818 66.9913 73.5454C66.8211 73.8089 66.7634 74.1231 66.8292 74.4299C66.8611 74.5809 66.9227 74.7241 67.0103 74.8512C67.0978 74.9782 67.2097 75.0866 67.3395 75.1701C67.4687 75.2543 67.6133 75.312 67.765 75.3399C67.9167 75.3677 68.0724 75.3652 68.2231 75.3324C68.3739 75.3004 68.517 75.2388 68.6439 75.1512C68.7708 75.0635 68.8791 74.9515 68.9625 74.8216C69.1327 74.5581 69.1903 74.2439 69.1246 73.937C69.0927 73.786 69.0311 73.6428 68.9436 73.5158C68.856 73.3887 68.7441 73.2803 68.6144 73.1968C68.4254 73.0737 68.2047 73.0082 67.9792 73.008Z" fill="#1A1A1A"/>
</g>
<g clip-path="url(#clip6_297_1177)">
<path d="M113.125 50.864H97.4533C97.4091 50.864 97.3667 50.8468 97.3355 50.816C97.3042 50.7853 97.2866 50.7436 97.2866 50.7001C97.2866 50.6566 97.3042 50.6149 97.3355 50.5842C97.3667 50.5534 97.4091 50.5361 97.4533 50.5361H113.125C113.17 50.5361 113.212 50.5534 113.243 50.5842C113.274 50.6149 113.292 50.6566 113.292 50.7001C113.292 50.7436 113.274 50.7853 113.243 50.816C113.212 50.8468 113.17 50.864 113.125 50.864ZM120.349 50.864H116.055C116.011 50.864 115.968 50.8467 115.937 50.816C115.906 50.7852 115.888 50.7435 115.888 50.7C115.888 50.6566 115.906 50.6149 115.937 50.5841C115.968 50.5534 116.011 50.5361 116.055 50.5361H120.349C120.394 50.5361 120.436 50.5534 120.467 50.5842C120.498 50.6149 120.516 50.6566 120.516 50.7001C120.516 50.7436 120.498 50.7853 120.467 50.816C120.436 50.8468 120.393 50.864 120.349 50.864ZM120.349 53.4295H108.47C108.426 53.4295 108.383 53.4122 108.352 53.3814C108.321 53.3507 108.303 53.309 108.303 53.2655C108.303 53.222 108.321 53.1803 108.352 53.1496C108.383 53.1188 108.426 53.1016 108.47 53.1016H120.349C120.393 53.1016 120.436 53.1188 120.467 53.1496C120.498 53.1803 120.516 53.222 120.516 53.2655C120.516 53.309 120.498 53.3507 120.467 53.3814C120.436 53.4122 120.393 53.4295 120.349 53.4295Z" fill="#1A1A1A"/>
</g>
<g clip-path="url(#clip7_297_1177)">
<path d="M119.865 136.261H59.1752C59.1315 136.261 59.0897 136.244 59.0588 136.213C59.0279 136.182 59.0106 136.14 59.0106 136.096C59.0106 136.052 59.0279 136.01 59.0588 135.979C59.0897 135.948 59.1315 135.931 59.1752 135.931H119.865C119.909 135.931 119.951 135.948 119.981 135.979C120.012 136.01 120.03 136.052 120.03 136.096C120.03 136.14 120.012 136.182 119.981 136.213C119.951 136.244 119.909 136.261 119.865 136.261ZM127.016 136.261H122.635C122.592 136.261 122.55 136.244 122.519 136.213C122.488 136.182 122.471 136.14 122.471 136.096C122.471 136.052 122.488 136.01 122.519 135.979C122.55 135.948 122.592 135.931 122.635 135.931H127.016C127.06 135.931 127.102 135.948 127.133 135.979C127.164 136.01 127.181 136.052 127.181 136.096C127.181 136.14 127.164 136.182 127.133 136.213C127.102 136.244 127.06 136.261 127.016 136.261ZM140.192 136.261H132.009C131.966 136.261 131.924 136.244 131.893 136.213C131.862 136.182 131.845 136.14 131.845 136.096C131.845 136.052 131.862 136.01 131.893 135.979C131.924 135.948 131.966 135.931 132.009 135.931H140.192C140.235 135.931 140.277 135.948 140.308 135.979C140.339 136.01 140.356 136.052 140.356 136.096C140.356 136.14 140.339 136.182 140.308 136.213C140.277 136.244 140.235 136.261 140.192 136.261ZM55.5244 136.261H49.3395C49.2958 136.261 49.2539 136.244 49.223 136.213C49.1922 136.182 49.1748 136.14 49.1748 136.096C49.1748 136.052 49.1922 136.01 49.223 135.979C49.2539 135.948 49.2958 135.931 49.3395 135.931H55.5244C55.5681 135.931 55.61 135.948 55.6409 135.979C55.6717 136.01 55.6891 136.052 55.6891 136.096C55.6891 136.14 55.6717 136.182 55.6409 136.213C55.61 136.244 55.5681 136.261 55.5244 136.261Z" fill="#1A1A1A"/>
</g>
<g clip-path="url(#clip8_297_1177)">
<path d="M97.6997 55.2476H103.301V81.6192H97.6997V55.2476Z" fill="#219F94"/>
<path d="M103.301 81.7839H97.6997C97.6559 81.7839 97.6139 81.7665 97.583 81.7356C97.5521 81.7046 97.5347 81.6627 97.5347 81.619V55.2474C97.5347 55.2037 97.5521 55.1617 97.583 55.1308C97.6139 55.0999 97.6559 55.0825 97.6997 55.0825H103.301C103.344 55.0825 103.386 55.0999 103.417 55.1308C103.448 55.1617 103.466 55.2037 103.466 55.2474V81.619C103.466 81.6627 103.448 81.7046 103.417 81.7356C103.386 81.7665 103.344 81.7839 103.301 81.7839ZM97.8647 81.4541H103.135V55.4122H97.8647V81.4541Z" fill="#1A1A1A"/>
<path d="M103.3 57.4502H108.901V81.6192H103.3V57.4502Z" fill="#219F94"/>
<path d="M108.901 81.7839H103.3C103.257 81.7839 103.215 81.7665 103.184 81.7356C103.153 81.7047 103.135 81.6628 103.135 81.619V57.45C103.135 57.4063 103.153 57.3644 103.184 57.3334C103.215 57.3025 103.257 57.2852 103.3 57.2852H108.901C108.945 57.2852 108.987 57.3025 109.018 57.3334C109.049 57.3644 109.066 57.4063 109.066 57.45V81.619C109.066 81.6628 109.049 81.7047 109.018 81.7356C108.987 81.7665 108.945 81.7839 108.901 81.7839ZM103.465 81.4542H108.736V57.6149H103.465V81.4542Z" fill="#1A1A1A"/>
<path d="M108.901 62.1528H114.502V81.6191H108.901V62.1528Z" fill="#219F94"/>
<path d="M114.502 81.7837H108.901C108.858 81.7837 108.816 81.7663 108.785 81.7354C108.754 81.7045 108.736 81.6625 108.736 81.6188V62.1527C108.736 62.1089 108.754 62.067 108.785 62.0361C108.816 62.0052 108.858 61.9878 108.901 61.9878H114.502C114.546 61.9878 114.588 62.0052 114.619 62.0361C114.65 62.067 114.667 62.1089 114.667 62.1527V81.6189C114.667 81.6626 114.65 81.7045 114.619 81.7355C114.588 81.7664 114.546 81.7837 114.502 81.7837V81.7837ZM109.066 81.4539H114.337V62.3175H109.066V81.454V81.4539Z" fill="#1A1A1A"/>
<path d="M114.502 67.5303H120.103V81.619H114.502V67.5303Z" fill="#219F94"/>
<path d="M120.103 81.7841H114.502C114.458 81.7841 114.416 81.7667 114.385 81.7358C114.354 81.7049 114.337 81.6629 114.337 81.6192V67.5306C114.337 67.4869 114.354 67.4449 114.385 67.414C114.416 67.3831 114.458 67.3657 114.502 67.3657H120.103C120.147 67.3657 120.189 67.3831 120.219 67.414C120.25 67.4449 120.268 67.4869 120.268 67.5306V81.6193C120.268 81.663 120.25 81.705 120.219 81.7359C120.189 81.7668 120.147 81.7842 120.103 81.7842V81.7841ZM114.667 81.4544H119.938V67.6955H114.667V81.4544V81.4544ZM103.3 57.4502L104.79 81.5597L103.3 81.6192V57.4502Z" fill="#1A1A1A"/>
<path d="M103.3 81.784C103.257 81.784 103.215 81.7666 103.184 81.7357C103.153 81.7048 103.135 81.6628 103.135 81.6191V57.4501C103.135 57.4072 103.152 57.3661 103.182 57.3353C103.212 57.3046 103.252 57.2866 103.295 57.2853C103.338 57.2836 103.38 57.2989 103.412 57.3278C103.444 57.3567 103.463 57.397 103.465 57.4399L104.955 81.5494C104.956 81.5714 104.953 81.5933 104.946 81.614C104.938 81.6348 104.927 81.6538 104.912 81.6701C104.898 81.6864 104.88 81.6996 104.86 81.7089C104.84 81.7182 104.818 81.7235 104.796 81.7244L103.307 81.7839L103.3 81.7841V81.784ZM103.465 62.7967V81.4476L104.615 81.4016L103.465 62.7967ZM108.901 62.153L110.391 81.6191H108.901V62.153Z" fill="#1A1A1A"/>
<path d="M110.39 81.7842H108.901C108.857 81.7842 108.815 81.7668 108.784 81.7359C108.753 81.705 108.736 81.663 108.736 81.6193V62.1532C108.736 62.1105 108.752 62.0695 108.782 62.0388C108.812 62.0081 108.852 61.99 108.895 61.9884C108.937 61.9869 108.979 62.0019 109.011 62.0302C109.042 62.0586 109.062 62.0981 109.065 62.1406L110.555 81.6068C110.557 81.6294 110.554 81.6522 110.546 81.6736C110.539 81.6951 110.527 81.7147 110.511 81.7314C110.496 81.7481 110.477 81.7613 110.456 81.7704C110.436 81.7795 110.413 81.7842 110.39 81.7843V81.7842ZM109.066 81.4544H110.212L109.066 66.4723V81.4544ZM114.502 67.5307L115.991 81.6193H114.502V67.5307Z" fill="#1A1A1A"/>
<path d="M115.991 81.7841H114.502C114.458 81.7841 114.416 81.7668 114.385 81.7358C114.354 81.7049 114.337 81.663 114.337 81.6193V67.5306C114.337 67.4884 114.353 67.4478 114.382 67.4171C114.411 67.3865 114.451 67.3682 114.493 67.366C114.535 67.3637 114.577 67.3778 114.609 67.4052C114.641 67.4326 114.662 67.4713 114.666 67.5133L116.156 81.602C116.158 81.625 116.156 81.6483 116.148 81.6702C116.141 81.6922 116.13 81.7125 116.114 81.7296C116.099 81.7468 116.08 81.7606 116.059 81.77C116.037 81.7794 116.015 81.7842 115.991 81.7842V81.7841ZM114.667 81.4544H115.808L114.667 70.6606V81.4544Z" fill="#1A1A1A"/>
</g>
<g clip-path="url(#clip9_297_1177)">
<path d="M120.191 82.7479C118.358 83.8112 116.228 84.4197 113.956 84.4197C113.786 84.4197 113.617 84.4167 113.449 84.4098C110.938 84.3093 108.619 83.4646 106.706 82.0921C103.562 79.8361 101.515 76.1528 101.515 71.9912C101.515 67.8296 103.562 64.1463 106.706 61.8911C108.747 60.4257 111.251 59.5635 113.956 59.5635C120.827 59.5635 126.396 65.1273 126.396 71.9912C126.396 76.5855 123.901 80.597 120.191 82.7479H120.191Z" fill="white"/>
<path d="M113.448 63.5566V84.4097C110.938 84.3092 108.618 83.4645 106.706 82.092V63.5566H113.448Z" fill="#219F94"/>
<path d="M113.449 84.5748C113.446 84.5748 113.444 84.5748 113.442 84.5746C110.976 84.4759 108.613 83.6637 106.609 82.2261C106.588 82.2108 106.571 82.1906 106.559 82.1673C106.547 82.144 106.541 82.1182 106.541 82.092V63.5567C106.541 63.5129 106.558 63.4709 106.589 63.44C106.62 63.409 106.662 63.3916 106.706 63.3916H113.449C113.492 63.3916 113.534 63.409 113.565 63.44C113.596 63.4709 113.614 63.5129 113.614 63.5567V84.4097C113.614 84.4535 113.596 84.4955 113.565 84.5264C113.534 84.5574 113.492 84.5748 113.449 84.5748ZM106.871 82.007C108.761 83.3433 110.972 84.1121 113.283 84.2367V63.7218H106.871V82.007Z" fill="#1A1A1A"/>
<path d="M106.706 63.5566L109.272 84.6578L106.706 84.4196V63.5566Z" fill="#1A1A1A"/>
<path d="M109.272 84.8231C109.267 84.8231 109.262 84.8229 109.257 84.8224L106.69 84.5842C106.649 84.5804 106.611 84.5614 106.584 84.531C106.556 84.5006 106.541 84.461 106.541 84.4198V63.5569C106.541 63.5149 106.557 63.4745 106.586 63.4439C106.614 63.4134 106.654 63.3949 106.696 63.3924C106.738 63.3899 106.779 63.4034 106.811 63.4303C106.844 63.4571 106.865 63.4953 106.87 63.537L109.436 84.6381C109.439 84.6613 109.436 84.6848 109.43 84.7071C109.423 84.7294 109.411 84.75 109.395 84.7675C109.38 84.785 109.361 84.799 109.34 84.8086C109.318 84.8181 109.295 84.8231 109.272 84.8231ZM106.871 84.2694L109.083 84.4747L106.871 66.2845V84.2694Z" fill="#1A1A1A"/>
<path d="M106.706 61.8911V82.0922C103.562 79.8362 101.515 76.1529 101.515 71.9913C101.515 67.8297 103.562 64.1463 106.706 61.8911Z" fill="#219F94"/>
<path d="M106.705 82.257C106.671 82.2569 106.637 82.2461 106.609 82.2259C103.316 79.8624 101.35 76.0363 101.35 71.991C101.35 67.9457 103.316 64.1194 106.609 61.7568C106.634 61.739 106.663 61.7283 106.693 61.7261C106.724 61.7238 106.754 61.7299 106.781 61.7438C106.808 61.7577 106.831 61.7787 106.847 61.8047C106.862 61.8307 106.871 61.8605 106.871 61.8909V82.092C106.871 82.1357 106.853 82.1777 106.822 82.2086C106.791 82.2396 106.749 82.257 106.705 82.257L106.705 82.257ZM106.54 62.2179C103.491 64.5308 101.68 68.1598 101.68 71.991C101.68 75.8222 103.491 79.4511 106.54 81.7647V62.2179Z" fill="#1A1A1A"/>
<path d="M120.19 69.7261V82.7479C118.357 83.8112 116.227 84.4198 113.955 84.4198C113.785 84.4198 113.617 84.4167 113.448 84.4099V69.7262H120.19V69.7261Z" fill="#219F94"/>
<path d="M113.955 84.5849C113.776 84.5849 113.608 84.5816 113.442 84.5748C113.399 84.5731 113.359 84.5549 113.329 84.5242C113.3 84.4934 113.283 84.4525 113.283 84.4099V69.7261C113.283 69.6823 113.301 69.6403 113.332 69.6094C113.363 69.5784 113.405 69.561 113.448 69.561H120.191C120.234 69.561 120.276 69.5784 120.307 69.6094C120.338 69.6403 120.356 69.6823 120.356 69.7261V82.748C120.356 82.8068 120.325 82.8612 120.274 82.8907C118.363 83.999 116.178 84.5848 113.955 84.5848V84.5849ZM113.614 84.2503C113.724 84.2533 113.837 84.2547 113.955 84.2547C116.088 84.2547 118.185 83.701 120.025 82.6526V69.8913H113.614V84.2503Z" fill="#1A1A1A"/>
<path d="M113.448 69.7261L115.656 85.6712L113.448 85.7905V69.7261Z" fill="#1A1A1A"/>
<path d="M113.448 85.9555C113.427 85.9555 113.405 85.9513 113.385 85.943C113.365 85.9347 113.347 85.9225 113.332 85.9072C113.316 85.8919 113.304 85.8737 113.296 85.8536C113.287 85.8336 113.283 85.8121 113.283 85.7904V69.726C113.283 69.6842 113.299 69.644 113.328 69.6134C113.356 69.5829 113.395 69.5643 113.437 69.5614C113.479 69.5586 113.52 69.5716 113.553 69.598C113.585 69.6243 113.606 69.662 113.612 69.7034L115.82 85.6485C115.823 85.6712 115.821 85.6942 115.815 85.7162C115.809 85.7382 115.798 85.7587 115.784 85.7763C115.769 85.7939 115.751 85.8083 115.731 85.8186C115.71 85.8289 115.688 85.8348 115.665 85.836L113.457 85.9552C113.454 85.9553 113.451 85.9554 113.448 85.9554V85.9555ZM113.614 72.1245V85.6162L115.468 85.5161L113.614 72.1245Z" fill="#1A1A1A"/>
<path d="M113.956 59.5636C111.251 59.5636 108.747 60.4258 106.706 61.8911C105.838 62.5139 105.054 63.2451 104.373 64.0669C104.734 63.7369 105.115 63.4283 105.512 63.1428C107.553 61.6775 110.057 60.8153 112.762 60.8153C119.633 60.8153 125.203 66.3791 125.203 73.243C125.203 76.2516 124.133 79.0101 122.352 81.1601C124.837 78.888 126.396 75.622 126.396 71.9912C126.396 65.1273 120.826 59.5635 113.956 59.5635L113.956 59.5636Z" fill="#1A1A1A"/>
<path d="M122.352 81.3252C122.321 81.3252 122.29 81.3163 122.263 81.2995C122.237 81.2827 122.216 81.2588 122.202 81.2304C122.189 81.2021 122.184 81.1705 122.188 81.1395C122.192 81.1084 122.205 81.0791 122.225 81.0549C124.038 78.8649 125.037 76.0905 125.037 73.243C125.037 66.4814 119.531 60.9804 112.762 60.9804C110.175 60.9804 107.701 61.7746 105.609 63.2769C105.216 63.5587 104.841 63.8632 104.484 64.1888C104.453 64.2171 104.412 64.2325 104.371 64.2321C104.329 64.2317 104.289 64.2154 104.258 64.1865C104.228 64.1577 104.21 64.1184 104.207 64.0766C104.205 64.0349 104.218 63.9938 104.245 63.9616C104.936 63.1289 105.73 62.388 106.609 61.757C108.758 60.214 111.298 59.3984 113.955 59.3984C120.906 59.3984 126.561 65.0475 126.561 71.9913C126.561 75.5145 125.068 78.9008 122.463 81.2819C122.432 81.3108 122.392 81.3252 122.352 81.3252H122.352ZM112.762 60.6502C119.713 60.6502 125.368 66.2993 125.368 73.243C125.368 75.3596 124.83 77.4368 123.827 79.2756C125.373 77.1813 126.231 74.6256 126.231 71.9913C126.231 65.2296 120.724 59.7286 113.955 59.7286C111.368 59.7286 108.894 60.5227 106.802 62.0251C106.592 62.1757 106.387 62.3328 106.187 62.4963C108.162 61.2857 110.416 60.6502 112.762 60.6502Z" fill="#1A1A1A"/>
<path d="M124.566 57.4771L136.679 45.3768C137.406 44.6504 138.587 44.6504 139.314 45.3768C140.041 46.1031 140.041 47.2827 139.314 48.0091L127.201 60.1094L124.566 57.4771Z" fill="#219F94"/>
<path d="M127.202 60.2745C127.158 60.2744 127.116 60.257 127.085 60.2261L124.45 57.5938C124.434 57.5784 124.422 57.5602 124.414 57.5402C124.406 57.5202 124.401 57.4987 124.401 57.477C124.401 57.4553 124.406 57.4339 124.414 57.4138C124.422 57.3938 124.434 57.3756 124.45 57.3603L136.563 45.26C137.353 44.47 138.64 44.47 139.431 45.26C140.222 46.0502 140.222 47.3357 139.431 48.1258L127.318 60.2262C127.287 60.2571 127.245 60.2745 127.202 60.2745V60.2745ZM124.8 57.4771L127.202 59.8759L139.198 47.8923C139.86 47.2309 139.86 46.1548 139.198 45.4934C138.535 44.8321 137.458 44.8321 136.796 45.4934L124.8 57.4771Z" fill="#1A1A1A"/>
<path d="M123.794 61.9903L127.201 60.1093L124.566 57.4771L122.684 60.8813L123.794 61.9903Z" fill="#1A1A1A"/>
<path d="M123.794 62.1554C123.751 62.1554 123.709 62.1388 123.677 62.107L122.567 60.998C122.542 60.9727 122.525 60.9398 122.52 60.9044C122.515 60.8689 122.522 60.8328 122.539 60.8014L124.422 57.3972C124.434 57.3748 124.452 57.3556 124.473 57.3411C124.494 57.3266 124.518 57.3172 124.544 57.3136C124.569 57.3101 124.595 57.3124 124.619 57.3205C124.643 57.3286 124.665 57.3422 124.684 57.3603L127.319 59.9926C127.337 60.0107 127.35 60.0328 127.358 60.057C127.367 60.0813 127.369 60.1071 127.365 60.1325C127.362 60.1578 127.352 60.182 127.338 60.203C127.323 60.2241 127.304 60.2415 127.282 60.2539L123.874 62.1348C123.849 62.1487 123.821 62.1555 123.794 62.1555V62.1554ZM122.889 60.8524L123.823 61.7858L126.93 60.0711L124.605 57.749L122.889 60.8524Z" fill="#1A1A1A"/>
<path d="M113.955 57.2388C105.799 57.2388 99.1875 63.8438 99.1875 71.9915C99.1875 80.1392 105.799 86.7442 113.955 86.7442C122.111 86.7442 128.723 80.1392 128.723 71.9915C128.723 63.8438 122.111 57.2388 113.955 57.2388ZM120.19 82.748C118.357 83.8112 116.227 84.4198 113.955 84.4198C113.785 84.4198 113.617 84.4167 113.448 84.4099C110.938 84.3094 108.618 83.4647 106.705 82.0922C103.562 79.8362 101.515 76.1529 101.515 71.9913C101.515 67.8297 103.562 64.1463 106.705 61.8911C108.746 60.4257 111.25 59.5636 113.955 59.5636C120.826 59.5636 126.396 65.1274 126.396 71.9913C126.396 76.5856 123.901 80.5971 120.19 82.748H120.19Z" fill="#219F94"/>
<path d="M106.021 84.0351C105.82 84.0351 105.618 83.9747 105.443 83.849C103.485 82.4435 101.89 80.5603 100.832 78.4027C100.591 77.9117 100.795 77.3186 101.286 77.078C101.778 76.8375 102.372 77.0406 102.612 77.5316C103.527 79.3968 104.906 81.0252 106.6 82.2408C107.044 82.5598 107.146 83.1786 106.826 83.6226C106.735 83.7504 106.614 83.8545 106.474 83.9263C106.333 83.998 106.178 84.0354 106.021 84.0351ZM100.341 72.9814C99.7939 72.9814 99.3501 72.5381 99.3501 71.9913C99.3501 69.6357 99.9253 67.2951 101.014 65.2225C102.067 63.2173 103.598 61.4579 105.443 60.1342C105.888 59.8153 106.507 59.9167 106.826 60.3609C107.146 60.8051 107.044 61.4237 106.6 61.7427C103.301 64.1088 101.332 67.94 101.332 71.9913C101.332 72.5381 100.889 72.9814 100.341 72.9814Z" fill="white"/>
<path d="M113.955 86.909C105.721 86.909 99.0225 80.217 99.0225 71.9913C99.0225 63.7655 105.721 57.0735 113.955 57.0735C122.19 57.0735 128.889 63.7655 128.889 71.9913C128.889 80.217 122.19 86.909 113.955 86.909ZM113.955 57.4036C105.904 57.4036 99.353 63.9476 99.353 71.9913C99.353 80.0349 105.904 86.5789 113.955 86.5789C122.007 86.5789 128.558 80.0349 128.558 71.9913C128.558 63.9476 122.007 57.4036 113.955 57.4036ZM113.955 84.5847C113.776 84.5847 113.608 84.5814 113.442 84.5746C110.976 84.4759 108.613 83.6637 106.609 82.226C103.316 79.8626 101.35 76.0364 101.35 71.991C101.35 67.9456 103.316 64.1195 106.609 61.7568C108.758 60.2138 111.299 59.3983 113.955 59.3983C120.906 59.3983 126.561 65.0474 126.561 71.9911C126.561 74.2382 125.962 76.4438 124.827 78.3694C123.723 80.2419 122.155 81.7989 120.274 82.8906C118.363 83.9988 116.178 84.5847 113.955 84.5847ZM113.955 59.7284C111.368 59.7284 108.895 60.5225 106.802 62.025C103.595 64.3258 101.68 68.0514 101.68 71.9911C101.68 75.9307 103.595 79.6563 106.802 81.958C108.753 83.3578 111.054 84.1486 113.455 84.2448C113.617 84.2514 113.78 84.2545 113.955 84.2545C116.12 84.2545 118.247 83.6842 120.108 82.6051C123.884 80.4158 126.231 76.3488 126.231 71.9911C126.231 65.2295 120.724 59.7284 113.955 59.7284H113.955ZM128.133 59.3445L128.127 59.3444C128.105 59.3437 128.084 59.3387 128.064 59.3297C128.045 59.3207 128.027 59.308 128.012 59.2921C127.997 59.2763 127.986 59.2576 127.978 59.2373C127.97 59.217 127.967 59.1954 127.968 59.1738C128.028 57.4125 128.893 55.7436 130.28 54.7096C131.392 53.8817 132.763 53.4885 133.972 53.1417C133.993 53.1357 134.015 53.1339 134.036 53.1363C134.058 53.1388 134.079 53.1455 134.098 53.156C134.117 53.1665 134.134 53.1806 134.147 53.1976C134.161 53.2145 134.171 53.234 134.177 53.2548C134.183 53.2757 134.184 53.2975 134.182 53.319C134.18 53.3406 134.173 53.3614 134.162 53.3804C134.152 53.3993 134.138 53.416 134.121 53.4295C134.104 53.443 134.084 53.4531 134.063 53.459C132.823 53.8147 131.541 54.1825 130.478 54.9743C129.19 55.9344 128.354 57.5479 128.298 59.1852C128.296 59.2279 128.278 59.2684 128.248 59.2982C128.217 59.3279 128.176 59.3445 128.133 59.3445H128.133ZM125.66 59.7245C125.627 59.7246 125.594 59.7143 125.566 59.6951C125.538 59.6759 125.517 59.6487 125.505 59.6172C125.494 59.5857 125.492 59.5513 125.5 59.5187C125.508 59.4861 125.526 59.4568 125.552 59.4347C125.723 59.2862 125.885 59.1272 126.037 58.9587C126.92 57.9831 127.556 56.5978 127.877 54.952C127.948 54.5888 128.003 54.2272 128.064 53.796C128.07 53.7527 128.094 53.7135 128.129 53.6872C128.164 53.6609 128.208 53.6495 128.251 53.6556C128.294 53.6618 128.334 53.6849 128.36 53.7198C128.386 53.7548 128.398 53.7988 128.392 53.8422C128.33 54.2786 128.274 54.6451 128.202 55.0153C127.869 56.7201 127.205 58.1602 126.282 59.1799C126.121 59.3584 125.95 59.5269 125.768 59.6843C125.738 59.7104 125.7 59.7247 125.66 59.7247V59.7245ZM125.049 58.7992C125.017 58.7992 124.985 58.7898 124.958 58.7723C124.931 58.7547 124.91 58.7297 124.897 58.7004C124.884 58.671 124.88 58.6385 124.886 58.6068C124.891 58.5752 124.905 58.5458 124.927 58.5222C125.032 58.4085 125.132 58.29 125.225 58.167C125.779 57.4367 126.125 56.5619 126.226 55.6376C126.228 55.616 126.234 55.5951 126.245 55.576C126.255 55.5569 126.269 55.5401 126.286 55.5265C126.303 55.5129 126.323 55.5028 126.343 55.4967C126.364 55.4907 126.386 55.4888 126.408 55.4912C126.429 55.4936 126.45 55.5001 126.469 55.5105C126.488 55.5209 126.505 55.535 126.519 55.5519C126.532 55.5688 126.542 55.5882 126.548 55.609C126.555 55.6298 126.556 55.6516 126.554 55.6731C126.447 56.657 126.079 57.5884 125.489 58.3667C125.388 58.4981 125.282 58.6246 125.17 58.746C125.155 58.7628 125.136 58.7762 125.115 58.7853C125.094 58.7945 125.072 58.7992 125.049 58.7992ZM129.7 53.9621C129.54 53.9621 129.393 53.932 129.261 53.8712C128.986 53.7443 128.806 53.4898 128.755 53.1547C128.75 53.1121 128.761 53.0692 128.787 53.035C128.813 53.0009 128.851 52.9781 128.894 52.9716C128.936 52.9651 128.98 52.9754 129.015 53.0003C129.05 53.0251 129.074 53.0626 129.081 53.1048C129.116 53.33 129.226 53.4914 129.399 53.5715C129.691 53.7061 130.136 53.6119 130.621 53.313C130.671 53.2818 130.739 53.2373 130.824 53.1818C131.554 52.7039 133.492 51.4344 136.535 50.5823C136.577 50.5705 136.622 50.5759 136.661 50.5974C136.699 50.6188 136.727 50.6546 136.739 50.6967C136.751 50.7389 136.745 50.784 136.724 50.8222C136.702 50.8604 136.666 50.8884 136.624 50.9003C133.631 51.7386 131.723 52.9877 131.005 53.458C130.935 53.5041 130.865 53.5495 130.794 53.594C130.4 53.8376 130.025 53.9621 129.7 53.9621ZM132.89 50.577C132.431 50.577 132.056 50.5022 131.769 50.3529C131.73 50.3326 131.701 50.2978 131.688 50.2561C131.675 50.2145 131.679 50.1693 131.699 50.1306C131.719 50.0919 131.754 50.0627 131.796 50.0495C131.837 50.0363 131.882 50.0401 131.921 50.0601C132.199 50.2045 132.752 50.3392 133.807 50.161C135.186 49.9289 136.281 49.164 137.44 48.3543L137.598 48.244C138.269 47.7775 138.981 47.3728 139.725 47.0348C139.764 47.0183 139.809 47.0179 139.849 47.0336C139.889 47.0493 139.921 47.0799 139.939 47.1189C139.957 47.1579 139.959 47.2023 139.944 47.2427C139.93 47.2831 139.9 47.3163 139.862 47.3353C139.136 47.665 138.442 48.0597 137.787 48.5147L137.63 48.6248C136.439 49.4564 135.315 50.242 133.862 50.4865C133.505 50.5467 133.181 50.577 132.89 50.577ZM134.142 48.0768C134.101 48.0769 134.061 48.0616 134.03 48.0339C134 48.0061 133.981 47.968 133.977 47.9269C133.973 47.8858 133.985 47.8448 134.01 47.8119C134.035 47.7791 134.071 47.7568 134.112 47.7494C135.947 47.4073 137.824 46.4526 139.134 45.1954C139.15 45.1804 139.169 45.1686 139.189 45.1607C139.209 45.1528 139.231 45.149 139.252 45.1494C139.274 45.1499 139.295 45.1546 139.315 45.1633C139.335 45.172 139.353 45.1845 139.368 45.2001C139.383 45.2158 139.395 45.2342 139.403 45.2544C139.411 45.2746 139.415 45.2962 139.414 45.3178C139.414 45.3395 139.409 45.3609 139.4 45.3807C139.392 45.4006 139.379 45.4185 139.363 45.4336C138.009 46.7335 136.068 47.7205 134.173 48.074C134.163 48.0758 134.152 48.0768 134.142 48.0768H134.142Z" fill="#1A1A1A"/>
</g>
<g clip-path="url(#clip10_297_1177)">
<path d="M66.9523 119.55C66.9523 130.998 52.8258 136.223 45.292 127.844C43.9389 126.34 42.9487 124.503 42.4585 122.472L54.5323 119.55L42.9354 115.097C45.0309 109.651 50.6729 106.426 56.2242 107.253C62.1189 108.014 66.9523 113.167 66.9523 119.55Z" fill="#219F94"/>
<path d="M45.9389 127.52C44.6208 126.055 43.6485 124.274 43.1459 122.305L42.4585 122.472C42.9487 124.503 43.9389 126.339 45.292 127.843C49.4996 132.524 55.7634 132.959 60.4744 130.438C55.8491 132.588 49.9566 131.989 45.9389 127.52Z" fill="white"/>
<path d="M54.4337 132.13C53.5654 132.13 52.6995 132.04 51.85 131.861C49.2911 131.32 46.9807 129.969 45.1688 127.954C43.7762 126.406 42.7833 124.523 42.2976 122.51C42.2873 122.468 42.2944 122.423 42.3172 122.386C42.3401 122.348 42.3768 122.321 42.4194 122.311L53.9778 119.514L42.8759 115.251C42.8556 115.243 42.837 115.231 42.8213 115.216C42.8056 115.201 42.7929 115.184 42.7841 115.164C42.7753 115.144 42.7705 115.122 42.7699 115.101C42.7694 115.079 42.7731 115.057 42.7809 115.037C44.8799 109.582 50.5435 106.239 56.2483 107.089C59.1789 107.467 61.9051 108.921 63.9218 111.183C65.9825 113.494 67.1173 116.465 67.1173 119.55C67.1173 122.276 66.3085 124.827 64.7786 126.927C63.3578 128.877 61.381 130.377 59.0617 131.265C57.5621 131.84 55.9951 132.13 54.4336 132.13H54.4337ZM42.6588 122.593C43.1449 124.493 44.0955 126.267 45.4147 127.733C47.8126 130.4 51.0321 131.814 54.403 131.814C55.9063 131.814 57.4392 131.533 58.9435 130.957C63.7814 129.104 66.7868 124.733 66.7868 119.55C66.7868 113.411 62.2367 108.195 56.2029 107.416C50.7011 106.597 45.2403 109.781 43.1498 115.002L54.5912 119.396C54.6241 119.408 54.6521 119.431 54.6711 119.461C54.6902 119.49 54.6992 119.525 54.6969 119.561C54.6946 119.596 54.6812 119.629 54.6585 119.656C54.6358 119.683 54.6051 119.702 54.5708 119.71L42.6588 122.593Z" fill="#1A1A1A"/>
<path d="M65.7891 114.299C66.5355 115.894 66.9521 117.673 66.9521 119.55C66.9521 122.683 65.7899 125.546 63.8731 127.731L54.532 119.55L53.5641 117.705L48.7642 108.555C50.0908 107.858 54.1088 106.145 58.8475 107.908C59.1236 108.011 59.4013 108.125 59.6815 108.252H59.6824L68.6837 105.344L65.7883 114.298V114.299H65.7891Z" fill="white"/>
<path d="M58.8475 107.908C58.5996 108.162 58.345 108.29 57.7631 108.113C57.1109 107.915 56.4215 107.708 55.7586 107.866C55.0949 108.024 54.5047 108.701 54.7006 109.354C54.8378 109.81 55.285 110.085 55.6288 110.416C56.0344 110.809 56.3153 111.312 56.4364 111.863C56.5158 112.229 56.5207 112.622 56.3703 112.966C56.2182 113.315 55.9256 113.577 55.6528 113.842C55.1255 114.355 54.637 114.93 54.3782 115.618C54.1807 116.143 54.1245 116.718 53.879 117.223C53.7946 117.396 53.6888 117.558 53.5641 117.704L48.7642 108.555C50.0908 107.858 54.1088 106.144 58.8475 107.908Z" fill="#219F94"/>
<path d="M63.8733 127.895C63.8346 127.895 63.7957 127.882 63.7644 127.854L54.4233 119.674C54.408 119.661 54.3953 119.644 54.3858 119.626L48.618 108.632C48.5977 108.593 48.5936 108.548 48.6066 108.506C48.6196 108.464 48.6487 108.429 48.6875 108.409C49.3942 108.037 50.87 107.373 52.8155 107.097C55.179 106.761 57.4921 107.09 59.692 108.075L68.6332 105.187C68.6621 105.177 68.6931 105.176 68.7227 105.183C68.7523 105.19 68.7794 105.206 68.8009 105.227C68.8224 105.249 68.8376 105.276 68.8447 105.305C68.8518 105.335 68.8506 105.366 68.8413 105.395L65.9659 114.286C66.7302 115.941 67.1176 117.711 67.1176 119.55C67.1176 122.603 66.0096 125.547 63.9976 127.839C63.9821 127.857 63.963 127.871 63.9415 127.881C63.9201 127.89 63.8968 127.895 63.8733 127.895ZM54.6643 119.446L63.8571 127.496C65.7477 125.283 66.7869 122.467 66.7869 119.55C66.7869 117.744 66.4031 116.006 65.6462 114.383C65.631 114.357 65.6231 114.328 65.6231 114.299C65.6231 114.281 65.6258 114.263 65.6311 114.247L68.4273 105.6L59.7335 108.409C59.694 108.421 59.6513 108.419 59.6135 108.402C54.7146 106.182 50.4052 107.913 48.9882 108.626L54.6644 119.446H54.6643Z" fill="#1A1A1A"/>
<path d="M54.5319 119.55L42.9351 115.096C44.0212 112.274 46.1091 109.947 48.7641 108.555L54.5319 119.55Z" fill="#1A1A1A"/>
<path d="M54.5321 119.715C54.5122 119.715 54.4922 119.711 54.4728 119.704L42.876 115.251C42.8558 115.243 42.8372 115.231 42.8215 115.216C42.8057 115.201 42.7931 115.183 42.7843 115.163C42.7755 115.144 42.7706 115.122 42.7701 115.101C42.7695 115.079 42.7732 115.057 42.781 115.037C43.8785 112.185 45.9762 109.831 48.6875 108.408C48.7263 108.388 48.7717 108.384 48.8135 108.397C48.8554 108.41 48.8903 108.439 48.9107 108.478L54.6786 119.473C54.6918 119.498 54.6982 119.526 54.6974 119.555C54.6965 119.583 54.6883 119.611 54.6736 119.635C54.6588 119.66 54.6381 119.68 54.6133 119.694C54.5885 119.708 54.5606 119.715 54.5321 119.715ZM43.1499 115.002L54.1821 119.238L48.6952 108.779C46.1741 110.145 44.2137 112.345 43.1499 115.002Z" fill="#1A1A1A"/>
<path d="M50.6828 119.229L38.609 122.15C38.3783 121.194 38.262 120.213 38.2627 119.229C38.2627 117.659 38.5545 116.157 39.086 114.775L50.6828 119.229Z" fill="#219F94"/>
<path d="M38.9419 119.229C38.9419 117.745 39.2029 116.322 39.6804 115.004L39.086 114.775C38.5545 116.157 38.2627 117.659 38.2627 119.229C38.2627 120.235 38.3825 121.214 38.609 122.15L39.253 121.995C39.0461 121.087 38.9418 120.159 38.942 119.229H38.9419Z" fill="white"/>
<path d="M38.6088 122.316C38.5717 122.316 38.5357 122.303 38.5066 122.281C38.4774 122.258 38.4568 122.226 38.4481 122.19C38.2145 121.22 38.0967 120.226 38.0972 119.229C38.0972 117.674 38.3779 116.156 38.9314 114.716C38.9392 114.696 38.9509 114.678 38.9658 114.662C38.9808 114.646 38.9987 114.633 39.0185 114.625C39.0384 114.616 39.0598 114.611 39.0815 114.61C39.1032 114.61 39.1248 114.614 39.145 114.621L50.7418 119.075C50.7748 119.087 50.8028 119.11 50.8218 119.14C50.8408 119.169 50.8498 119.204 50.8475 119.24C50.8453 119.275 50.8318 119.308 50.8091 119.335C50.7864 119.362 50.7557 119.381 50.7214 119.39L38.6477 122.311C38.635 122.314 38.6219 122.316 38.6088 122.316ZM39.1818 114.989C38.6814 116.345 38.4278 117.77 38.4278 119.229C38.4278 120.149 38.53 121.063 38.7317 121.951L50.1283 119.193L39.1818 114.989Z" fill="#1A1A1A"/>
</g>
<g clip-path="url(#clip11_297_1177)">
<path d="M142.815 98.7488C142.725 98.7728 142.635 98.7843 142.546 98.7843C142.18 98.7843 141.839 98.5886 141.655 98.2722C141.609 98.1945 141.574 98.1103 141.55 98.0202L140.786 95.1802C140.702 95.5791 140.617 95.9773 140.53 96.3763C139.535 100.931 138.31 105.474 136.96 109.569C134.815 116.078 132.438 121.236 130.086 124.486C128.736 126.351 126.972 127.694 124.984 128.368C124.091 128.67 123.194 128.821 122.329 128.821C121.341 128.821 120.395 128.624 119.546 128.231C119.1 128.024 118.69 127.768 118.323 127.467C117.567 126.848 116.986 126.038 116.616 125.074C116.034 123.557 115.993 121.747 116.497 119.695C116.582 119.346 116.673 118.983 116.766 118.605C118.115 113.178 120.372 104.095 117.562 100.5C117.449 100.356 117.326 100.219 117.194 100.092C116.947 99.8538 116.669 99.6509 116.366 99.489C115.663 99.1098 114.8 98.924 113.761 98.924C111.707 98.924 109.267 100.303 106.89 102.805C105.574 104.191 104.34 105.853 103.343 107.557H100.98C102.144 105.357 103.706 103.158 105.393 101.382C107.353 99.3188 110.396 96.8587 113.761 96.8587C115.076 96.8587 116.224 97.1041 117.194 97.5907C117.318 97.6526 117.439 97.7187 117.557 97.7897C118.184 98.159 118.728 98.639 119.189 99.2279C122.619 103.616 120.303 112.936 118.771 119.103C118.677 119.478 118.587 119.84 118.502 120.186C117.891 122.679 118.26 124.647 119.509 125.765C119.772 126.002 120.074 126.199 120.414 126.357C122.508 127.327 126.024 126.576 128.413 123.275C132.748 117.286 136.531 105.37 138.748 94.8307L137.589 96.3895L136.94 97.2619C136.6 97.7195 135.953 97.8145 135.496 97.4742C135.384 97.3915 135.29 97.2869 135.221 97.1669C135.017 96.8207 135.029 96.3722 135.283 96.0294L139.791 89.9701C139.794 89.9651 139.797 89.961 139.801 89.9568C139.807 89.9478 139.815 89.9395 139.821 89.9312C139.834 89.9155 139.848 89.8998 139.862 89.8841C139.868 89.8775 139.874 89.8709 139.881 89.8643C139.9 89.8437 139.921 89.8247 139.943 89.8057C139.949 89.8007 139.955 89.7966 139.961 89.7916C139.977 89.7776 139.995 89.7635 140.013 89.7503C140.021 89.7445 140.029 89.7388 140.038 89.733C140.056 89.7214 140.074 89.7098 140.092 89.6991C140.1 89.6941 140.106 89.69 140.114 89.6859C140.138 89.6727 140.161 89.6603 140.185 89.6495C140.197 89.6438 140.209 89.6388 140.222 89.6338C140.236 89.6281 140.25 89.6223 140.265 89.6173C140.278 89.6115 140.292 89.6066 140.306 89.6025C140.322 89.5975 140.337 89.5934 140.353 89.5892C140.375 89.5835 140.399 89.5777 140.422 89.5735C140.436 89.5702 140.449 89.5678 140.463 89.5661C140.478 89.5636 140.494 89.562 140.508 89.5603C140.524 89.5587 140.54 89.557 140.556 89.5562C140.573 89.5554 140.589 89.5545 140.607 89.5545C140.63 89.5537 140.654 89.5545 140.677 89.5554C140.688 89.5562 140.701 89.5578 140.712 89.5587C140.733 89.5603 140.755 89.5628 140.775 89.5661C140.783 89.5678 140.789 89.5678 140.797 89.5686H140.797L140.805 89.5711C140.807 89.5711 140.81 89.5719 140.812 89.5719C140.839 89.5768 140.864 89.5835 140.89 89.5901C140.901 89.5934 140.911 89.5967 140.921 89.6C140.94 89.6058 140.959 89.6115 140.978 89.619C140.988 89.6231 141 89.6272 141.011 89.6314C141.033 89.6405 141.054 89.6504 141.076 89.6611C141.088 89.6669 141.101 89.6735 141.112 89.6801C141.13 89.6892 141.146 89.6991 141.163 89.709C141.173 89.7156 141.184 89.7222 141.194 89.7297C141.21 89.7404 141.226 89.752 141.242 89.7635C141.249 89.7693 141.258 89.7751 141.264 89.7809C141.286 89.7982 141.308 89.8172 141.328 89.8362C141.334 89.842 141.34 89.8486 141.346 89.8544C141.362 89.8709 141.378 89.8875 141.393 89.904L141.408 89.9213C141.447 89.9676 141.481 90.0163 141.511 90.0692C141.515 90.075 141.519 90.0808 141.522 90.0874C141.533 90.1088 141.545 90.1311 141.555 90.1535C141.558 90.1592 141.561 90.165 141.563 90.17C141.576 90.1972 141.586 90.2245 141.595 90.2534C141.598 90.26 141.6 90.2674 141.602 90.2741C141.607 90.2889 141.612 90.303 141.615 90.3178L143.544 97.4833C143.692 98.0343 143.366 98.601 142.815 98.7488Z" fill="#1A1A1A"/>
<path d="M122.329 128.987C121.305 128.987 120.345 128.783 119.477 128.381C119.019 128.169 118.596 127.905 118.218 127.595C117.434 126.953 116.842 126.124 116.462 125.133C115.867 123.583 115.825 121.74 116.337 119.656C116.39 119.436 116.446 119.209 116.504 118.977L116.606 118.565C117.948 113.167 120.193 104.134 117.432 100.602C117.324 100.464 117.206 100.333 117.08 100.211C116.844 99.9836 116.577 99.7895 116.288 99.6346C115.607 99.2676 114.781 99.0893 113.761 99.0893C111.754 99.0893 109.356 100.449 107.01 102.919C105.714 104.284 104.495 105.917 103.485 107.641C103.471 107.666 103.45 107.687 103.425 107.701C103.4 107.715 103.372 107.723 103.343 107.723H100.981C100.952 107.723 100.924 107.715 100.899 107.701C100.875 107.687 100.854 107.667 100.839 107.643C100.824 107.618 100.816 107.591 100.815 107.562C100.815 107.534 100.821 107.505 100.835 107.48C102.02 105.24 103.596 103.034 105.273 101.269C107.256 99.1817 110.337 96.6938 113.761 96.6938C115.096 96.6938 116.276 96.9459 117.268 97.4432C117.396 97.5068 117.521 97.5753 117.643 97.6484C118.283 98.026 118.847 98.5235 119.319 99.1264C122.799 103.578 120.472 112.944 118.932 119.141L118.891 119.307C118.812 119.624 118.736 119.931 118.663 120.226C118.072 122.638 118.411 124.561 119.62 125.642C119.868 125.867 120.159 126.057 120.483 126.208C122.518 127.15 125.942 126.408 128.279 123.179C132.671 117.11 136.366 105.067 138.429 95.5375L137.073 97.3607C136.679 97.8907 135.927 98.0012 135.397 97.6071C135.268 97.5112 135.159 97.3898 135.078 97.2503C134.959 97.0476 134.903 96.8144 134.916 96.5798C134.929 96.3451 135.01 96.1196 135.151 95.9312L139.656 89.8744C139.661 89.8669 139.667 89.8601 139.672 89.8534C139.678 89.8463 139.683 89.8394 139.689 89.8327L139.695 89.825C139.709 89.8084 139.724 89.7919 139.739 89.7753C139.747 89.7659 139.755 89.7568 139.764 89.7479C139.785 89.7255 139.81 89.7027 139.837 89.6801L139.85 89.6689C139.873 89.65 139.893 89.634 139.913 89.619C139.929 89.608 139.939 89.6009 139.95 89.5938C139.966 89.5832 139.985 89.5708 140.005 89.5591C140.015 89.5523 140.025 89.5464 140.036 89.5405C140.063 89.5254 140.091 89.5113 140.118 89.4989C140.132 89.4922 140.146 89.4861 140.161 89.4806C140.175 89.4749 140.19 89.4688 140.206 89.4631C140.223 89.4558 140.241 89.4495 140.26 89.4441C140.275 89.4393 140.293 89.4344 140.311 89.4296C140.337 89.423 140.363 89.4166 140.389 89.4118C140.407 89.4076 140.425 89.4044 140.444 89.4022C140.452 89.4005 140.47 89.3985 140.486 89.3967C140.51 89.3942 140.529 89.3923 140.548 89.3914C140.567 89.3904 140.587 89.3895 140.607 89.3895C140.628 89.3886 140.656 89.3895 140.682 89.3904L140.724 89.3941C140.751 89.3961 140.777 89.3992 140.802 89.4032L140.804 89.4036L140.808 89.4039C140.82 89.4047 140.831 89.4066 140.842 89.4097C140.873 89.4154 140.902 89.4227 140.932 89.4303C140.951 89.436 140.962 89.4397 140.973 89.4434C140.992 89.4491 141.015 89.4563 141.038 89.4652L141.067 89.4759C141.095 89.4875 141.123 89.5 141.15 89.5135C141.162 89.5193 141.179 89.528 141.194 89.5367C141.209 89.5446 141.229 89.5561 141.248 89.5676C141.262 89.5765 141.276 89.5851 141.289 89.5942C141.306 89.6056 141.322 89.6178 141.339 89.6299L141.349 89.6375C141.356 89.6426 141.363 89.6479 141.369 89.653C141.401 89.6783 141.431 89.7056 141.46 89.7348C141.482 89.7565 141.499 89.7752 141.516 89.7939L141.534 89.8141C141.578 89.8664 141.618 89.9226 141.652 89.9821C141.658 89.992 141.664 90.0022 141.67 90.0136C141.68 90.0328 141.693 90.0566 141.703 90.0806C141.722 90.1193 141.739 90.1593 141.752 90.2003C141.755 90.2088 141.758 90.2178 141.76 90.2264C141.768 90.248 141.773 90.2649 141.777 90.2826L143.704 97.4406C143.745 97.5925 143.756 97.7511 143.736 97.9072C143.715 98.0633 143.664 98.2138 143.585 98.35C143.507 98.4866 143.403 98.6063 143.278 98.7022C143.153 98.7981 143.011 98.8683 142.858 98.9087H142.858C142.756 98.9361 142.651 98.9499 142.546 98.9499C142.337 98.9496 142.132 98.8946 141.95 98.7903C141.769 98.6861 141.618 98.5362 141.512 98.3557C141.459 98.264 141.418 98.1656 141.391 98.063L140.805 95.8875C140.767 96.0649 140.73 96.2392 140.692 96.4121C139.688 101.003 138.452 105.57 137.117 109.621C134.967 116.145 132.582 121.319 130.22 124.583C128.85 126.477 127.058 127.84 125.037 128.525C124.131 128.831 123.22 128.987 122.329 128.987H122.329ZM113.761 98.7589C114.837 98.7589 115.715 98.9503 116.445 99.3437C116.761 99.513 117.051 99.7249 117.309 99.9735C117.447 100.106 117.575 100.248 117.692 100.399C120.552 104.057 118.283 113.189 116.927 118.645L116.825 119.057C116.767 119.289 116.711 119.514 116.658 119.734C116.162 121.753 116.2 123.529 116.77 125.015C117.13 125.952 117.688 126.734 118.428 127.339C118.784 127.632 119.183 127.881 119.616 128.081C120.44 128.463 121.353 128.657 122.329 128.657C123.184 128.657 124.059 128.507 124.931 128.212C126.886 127.549 128.623 126.227 129.952 124.39C132.295 121.153 134.664 116.01 136.804 109.517C138.135 105.478 139.368 100.921 140.369 96.3414C140.453 95.9569 140.537 95.5661 140.625 95.1467C140.632 95.1104 140.652 95.0777 140.68 95.0538C140.709 95.03 140.745 95.0165 140.782 95.0154C140.819 95.0144 140.855 95.0259 140.885 95.048C140.915 95.0702 140.936 95.1018 140.946 95.1377L141.71 97.9777C141.73 98.0522 141.759 98.1231 141.798 98.1891C141.874 98.3199 141.984 98.4284 142.115 98.5039C142.246 98.5795 142.395 98.6193 142.546 98.6196C142.622 98.6196 142.698 98.6095 142.773 98.5896C142.883 98.5603 142.986 98.5095 143.077 98.4401C143.167 98.3707 143.243 98.2841 143.299 98.1852C143.356 98.0866 143.393 97.9776 143.408 97.8646C143.423 97.7515 143.415 97.6367 143.385 97.5268L141.456 90.3613C141.453 90.3466 141.45 90.3398 141.448 90.3327C141.446 90.3267 141.444 90.3207 141.442 90.3147C141.441 90.3109 141.439 90.3072 141.438 90.3034C141.431 90.2814 141.423 90.2598 141.413 90.2388C141.41 90.233 141.407 90.227 141.404 90.2209C141.396 90.2023 141.387 90.1841 141.377 90.1662C141.373 90.1614 141.37 90.1559 141.368 90.1507C141.343 90.1072 141.314 90.0662 141.282 90.0281L141.268 90.0122C141.256 89.9984 141.243 89.985 141.23 89.9718L141.221 89.9634C141.219 89.9618 141.216 89.9577 141.214 89.956C141.198 89.9404 141.181 89.9257 141.163 89.9118C141.16 89.9098 141.158 89.9077 141.156 89.9056L141.141 89.8944C141.13 89.887 141.118 89.8774 141.104 89.8686C141.101 89.8666 141.098 89.8645 141.095 89.8624C141.089 89.858 141.083 89.8543 141.077 89.8504C141.064 89.8429 141.05 89.8345 141.036 89.8269C141.026 89.8214 141.016 89.8162 141.006 89.8113C140.988 89.8024 140.97 89.7939 140.952 89.7859C140.94 89.782 140.929 89.7779 140.918 89.7737C140.903 89.7676 140.888 89.7632 140.873 89.7586L140.842 89.7486C140.828 89.7452 140.808 89.7399 140.786 89.7357C140.779 89.735 140.773 89.7338 140.767 89.7323C140.76 89.7316 140.753 89.7306 140.746 89.7294C140.731 89.727 140.715 89.7252 140.7 89.7239L140.665 89.7207C140.652 89.7204 140.632 89.7196 140.613 89.7202C140.592 89.7203 140.579 89.721 140.565 89.7218C140.552 89.7224 140.539 89.7239 140.526 89.7253C140.512 89.7268 140.501 89.7279 140.49 89.7297C140.48 89.7309 140.47 89.7327 140.46 89.735C140.457 89.7357 140.454 89.7363 140.451 89.7368C140.432 89.7404 140.413 89.7447 140.395 89.7497C140.382 89.753 140.369 89.7564 140.356 89.7605C140.348 89.7629 140.339 89.7658 140.331 89.7692C140.327 89.7712 140.322 89.773 140.317 89.7746C140.306 89.7783 140.296 89.7828 140.285 89.7871C140.275 89.791 140.267 89.794 140.26 89.7978C140.238 89.8075 140.217 89.8182 140.197 89.8299C140.194 89.8314 140.191 89.8327 140.189 89.8341C140.186 89.8357 140.179 89.8404 140.176 89.8419C140.161 89.8511 140.145 89.861 140.13 89.871C140.121 89.8773 140.114 89.8818 140.108 89.8863C140.098 89.8938 140.082 89.9059 140.068 89.9181C140.044 89.937 140.021 89.9574 140 89.9793C139.994 89.9854 139.991 89.9894 139.987 89.9934C139.973 90.0099 139.96 90.024 139.948 90.0383L139.944 90.0435C139.938 90.0521 139.931 90.0604 139.924 90.0681L139.924 90.0692L135.416 96.1285C135.315 96.2648 135.255 96.4282 135.246 96.5981C135.236 96.768 135.277 96.9369 135.363 97.0837C135.422 97.1846 135.501 97.2725 135.594 97.3419C135.978 97.6275 136.523 97.5475 136.808 97.1637L138.616 94.7325C138.639 94.7024 138.671 94.6808 138.707 94.6713C138.744 94.6619 138.782 94.6652 138.816 94.6807C138.851 94.6961 138.879 94.7229 138.896 94.7564C138.913 94.79 138.918 94.8284 138.91 94.8652C137.726 100.495 136.211 106.01 134.531 110.814C132.603 116.325 130.59 120.55 128.547 123.372C126.757 125.846 124.339 126.914 122.327 126.915C121.596 126.915 120.919 126.774 120.344 126.508C119.99 126.343 119.672 126.134 119.399 125.888C118.096 124.723 117.72 122.684 118.342 120.148C118.415 119.852 118.491 119.545 118.57 119.227L118.611 119.063C120.135 112.926 122.439 103.654 119.059 99.3302C118.613 98.7599 118.079 98.2897 117.474 97.9325C117.359 97.8635 117.241 97.7989 117.12 97.7389C116.175 97.2648 115.045 97.0244 113.761 97.0244C110.455 97.0244 107.451 99.4564 105.513 101.497C103.916 103.177 102.412 105.262 101.257 107.393H103.248C104.261 105.677 105.478 104.053 106.771 102.692C109.18 100.156 111.662 98.7592 113.761 98.7592L113.761 98.7589ZM140.798 89.5757V89.577L140.8 89.5695L140.798 89.5757V89.5757Z" fill="#1A1A1A"/>
<path d="M142.104 98.2532C141.958 98.293 141.804 98.2995 141.655 98.2722C141.273 98.2045 140.946 97.9236 140.839 97.5246L140.53 96.3764L140.075 94.6845C139.038 99.6361 137.717 104.62 136.249 109.073C134.104 115.582 131.727 120.74 129.375 123.991C128.025 125.856 126.261 127.198 124.273 127.872C123.38 128.175 122.483 128.326 121.618 128.326C120.63 128.326 119.684 128.128 118.835 127.735C118.659 127.653 118.488 127.564 118.323 127.467C117.214 126.814 116.384 125.825 115.905 124.578C115.322 123.061 115.282 121.251 115.786 119.199C115.871 118.851 115.962 118.487 116.055 118.109C117.404 112.682 119.661 103.6 116.851 100.005C116.705 99.8182 116.543 99.6457 116.366 99.489C115.563 98.777 114.47 98.4283 113.049 98.4283C110.996 98.4283 108.556 99.8071 106.179 102.309C104.735 103.829 103.392 105.682 102.347 107.557H100.014C101.199 105.195 102.869 102.795 104.682 100.887C106.642 98.8232 109.685 96.3631 113.049 96.3631C114.365 96.3631 115.512 96.6085 116.483 97.0951C116.866 97.2858 117.226 97.5188 117.558 97.7898C117.895 98.064 118.201 98.3788 118.478 98.7323C121.908 103.12 119.592 112.44 118.06 118.607C117.966 118.983 117.876 119.345 117.791 119.691C117.076 122.606 117.702 124.804 119.509 125.765C119.572 125.799 119.636 125.831 119.703 125.862C121.797 126.831 125.313 126.081 127.702 122.78C131.757 117.177 135.33 106.387 137.589 96.3896C137.745 95.6998 137.894 95.015 138.037 94.3351L136.229 96.7663C135.988 97.0909 135.593 97.233 135.221 97.1669C135.067 97.1397 134.918 97.0777 134.785 96.9786C134.327 96.6382 134.232 95.9914 134.572 95.5338L139.08 89.4745C139.083 89.4695 139.086 89.4654 139.09 89.4612C139.097 89.4522 139.103 89.4439 139.11 89.4356C139.123 89.4199 139.137 89.4042 139.151 89.3885C139.157 89.3819 139.163 89.3753 139.17 89.3687C139.189 89.3481 139.211 89.3291 139.232 89.3101C139.238 89.3051 139.244 89.301 139.25 89.296C139.267 89.282 139.284 89.2679 139.302 89.2547C139.31 89.2489 139.318 89.2432 139.327 89.2374C139.345 89.2258 139.363 89.2142 139.381 89.2035C139.411 89.185 139.442 89.1684 139.474 89.1539C139.487 89.1482 139.498 89.1432 139.511 89.1382C139.525 89.1325 139.54 89.1267 139.554 89.1217C139.568 89.1159 139.581 89.111 139.595 89.1068C139.611 89.1019 139.626 89.0978 139.642 89.0936C139.664 89.0878 139.687 89.0821 139.711 89.0779C139.725 89.0746 139.738 89.0722 139.752 89.0705C139.767 89.068 139.782 89.0664 139.797 89.0647C139.83 89.0611 139.863 89.0591 139.896 89.0589C139.919 89.0581 139.943 89.0589 139.966 89.0598C139.977 89.0606 139.99 89.0622 140.001 89.0631C140.022 89.0647 140.043 89.0672 140.064 89.0705C140.072 89.0722 140.078 89.0722 140.086 89.073L140.094 89.0755C140.096 89.0755 140.099 89.0763 140.101 89.0763C140.128 89.0812 140.153 89.0878 140.179 89.0945C140.19 89.0978 140.2 89.1011 140.209 89.1044C140.228 89.1102 140.247 89.1159 140.266 89.1234C140.278 89.1275 140.289 89.1316 140.3 89.1358C140.322 89.1448 140.344 89.1548 140.365 89.1655C140.377 89.1713 140.39 89.1779 140.401 89.1845C140.418 89.1936 140.435 89.2035 140.451 89.2134C140.462 89.22 140.473 89.2266 140.483 89.2341C140.499 89.2448 140.515 89.2564 140.531 89.2679C140.538 89.2737 140.546 89.2795 140.554 89.2853C140.575 89.3026 140.597 89.3216 140.617 89.3406C140.623 89.3464 140.629 89.353 140.635 89.3588C140.651 89.3753 140.667 89.3918 140.682 89.4084L140.697 89.4257C140.734 89.4703 140.768 89.5174 140.798 89.5686C140.799 89.5703 140.8 89.5719 140.801 89.5736C140.804 89.5794 140.807 89.5851 140.811 89.5918C140.822 89.6132 140.834 89.6355 140.845 89.6578C140.847 89.6636 140.85 89.6694 140.852 89.6744C140.864 89.7016 140.875 89.7289 140.884 89.7578C140.887 89.7644 140.889 89.7718 140.891 89.7785C140.896 89.7933 140.901 89.8074 140.905 89.8222L142.833 96.9877C142.981 97.5387 142.655 98.1053 142.104 98.2532Z" fill="#219F94"/>
<path d="M121.618 128.491C120.594 128.491 119.634 128.287 118.766 127.885C118.586 127.802 118.41 127.71 118.239 127.609C117.101 126.939 116.24 125.912 115.751 124.637C115.156 123.088 115.114 121.245 115.625 119.16C115.68 118.939 115.736 118.711 115.794 118.478L115.895 118.069C117.236 112.672 119.482 103.638 116.72 100.106C116.612 99.9679 116.495 99.8373 116.368 99.7156C116.332 99.6807 116.295 99.6467 116.258 99.6135C115.483 98.9271 114.434 98.5937 113.049 98.5937C111.042 98.5937 108.645 99.9536 106.299 102.423C104.891 103.906 103.539 105.758 102.492 107.638C102.478 107.664 102.457 107.685 102.431 107.7C102.406 107.715 102.377 107.723 102.348 107.723H100.014C99.9861 107.723 99.9584 107.715 99.9338 107.702C99.9092 107.688 99.8886 107.668 99.8738 107.644C99.859 107.62 99.8506 107.593 99.8493 107.565C99.848 107.537 99.854 107.509 99.8665 107.483C101.077 105.069 102.744 102.686 104.562 100.773C106.544 98.686 109.626 96.1981 113.049 96.1981C114.385 96.1981 115.565 96.4502 116.557 96.9475C116.951 97.144 117.321 97.3837 117.662 97.6622C118.005 97.9411 118.323 98.267 118.608 98.6307C122.087 103.082 119.76 112.448 118.22 118.645L118.174 118.83C118.097 119.141 118.023 119.441 117.952 119.73C117.259 122.552 117.855 124.699 119.587 125.619C119.647 125.652 119.709 125.683 119.772 125.712C121.807 126.654 125.231 125.913 127.568 122.683C131.128 117.766 134.813 107.923 137.428 96.3534C137.526 95.9164 137.624 95.4776 137.718 95.0418L136.362 96.8652C136.23 97.0443 136.05 97.1828 135.843 97.2649C135.637 97.3471 135.411 97.3696 135.192 97.3299C135.008 97.2978 134.835 97.223 134.686 97.1113C134.429 96.9205 134.262 96.641 134.216 96.3245C134.169 96.0079 134.249 95.6922 134.44 95.4355L138.945 89.3788C138.951 89.3706 138.957 89.3629 138.963 89.3556C138.969 89.3477 138.975 89.3401 138.981 89.3325C138.998 89.3127 139.013 89.2962 139.027 89.2796C139.036 89.2694 139.044 89.2607 139.053 89.2518C139.073 89.2305 139.098 89.2084 139.123 89.1863L139.139 89.1732L139.146 89.1677C139.164 89.1526 139.183 89.1376 139.202 89.1234C139.217 89.1125 139.227 89.1054 139.239 89.0982C139.255 89.0874 139.274 89.0751 139.294 89.0634C139.33 89.0409 139.368 89.0208 139.407 89.0033C139.42 88.9972 139.434 88.991 139.449 88.9849C139.464 88.9787 139.482 88.972 139.499 88.9661C139.51 88.961 139.529 88.9543 139.548 88.9485C139.564 88.9436 139.582 88.9388 139.6 88.934C139.625 88.9274 139.651 88.921 139.677 88.9162C139.696 88.912 139.714 88.9087 139.733 88.9065C139.741 88.9049 139.758 88.9029 139.775 88.9011C139.799 88.8986 139.818 88.8967 139.836 88.8957C139.856 88.8947 139.875 88.8939 139.896 88.8939C139.916 88.8931 139.944 88.8939 139.971 88.8948L140.013 88.8984C140.039 88.9005 140.065 88.9036 140.09 88.9075L140.093 88.9079L140.104 88.9089C140.112 88.9098 140.12 88.9113 140.127 88.9133L140.132 88.9141C140.162 88.9197 140.191 88.9271 140.22 88.9346C140.239 88.9403 140.25 88.944 140.262 88.9478C140.281 88.9535 140.303 88.9606 140.326 88.9696L140.356 88.9803C140.385 88.9919 140.413 89.0048 140.441 89.0189C140.451 89.0235 140.467 89.0322 140.483 89.0409C140.498 89.0488 140.517 89.0603 140.536 89.0718C140.551 89.0808 140.565 89.0893 140.577 89.0984C140.595 89.1101 140.612 89.1225 140.629 89.1349L140.655 89.1546C140.687 89.181 140.719 89.209 140.748 89.2386C140.77 89.2607 140.788 89.2793 140.805 89.2979L140.822 89.3183C140.865 89.3692 140.904 89.4237 140.938 89.4812C140.945 89.4931 140.952 89.5053 140.958 89.5178C140.969 89.5371 140.981 89.5616 140.993 89.5861L141 89.6009C141.017 89.6394 141.03 89.6718 141.04 89.7044C141.043 89.713 141.046 89.722 141.049 89.7307L141.051 89.7358C141.055 89.7498 141.06 89.7634 141.064 89.7777L142.992 96.9447C143.034 97.0966 143.044 97.2552 143.024 97.4113C143.004 97.5674 142.953 97.7179 142.874 97.8541C142.796 97.9907 142.691 98.1104 142.566 98.2063C142.442 98.3022 142.299 98.3724 142.147 98.4127H142.147C141.977 98.4587 141.799 98.4662 141.625 98.4347C141.171 98.3541 140.799 98.0137 140.679 97.5675L140.094 95.3914C139.072 100.157 137.801 104.891 136.406 109.125C134.256 115.649 131.87 120.823 129.508 124.087C128.138 125.981 126.346 127.344 124.325 128.029C123.42 128.335 122.509 128.491 121.618 128.491L121.618 128.491ZM113.049 98.2632C114.518 98.2632 115.639 98.6238 116.476 99.3655C116.517 99.4011 116.557 99.4391 116.597 99.4771C116.735 99.6098 116.863 99.7521 116.981 99.903C119.841 103.562 117.572 112.693 116.215 118.149L116.114 118.557C116.057 118.79 116 119.018 115.946 119.239C115.451 121.257 115.489 123.033 116.059 124.519C116.521 125.723 117.333 126.693 118.407 127.324C118.568 127.42 118.735 127.507 118.905 127.585C119.729 127.967 120.642 128.161 121.618 128.161C122.473 128.161 123.348 128.011 124.22 127.716C126.175 127.053 127.911 125.731 129.241 123.894C131.583 120.657 133.953 115.514 136.092 109.022C137.549 104.6 138.871 99.6308 139.913 94.6509C139.921 94.6144 139.94 94.5816 139.969 94.5578C139.997 94.5339 140.033 94.5203 140.07 94.5193C140.108 94.5183 140.144 94.5298 140.174 94.552C140.204 94.5743 140.225 94.6059 140.235 94.6418L140.999 97.4819C141.042 97.6407 141.129 97.7839 141.25 97.8951C141.372 98.0062 141.522 98.0806 141.684 98.1097C141.814 98.1332 141.938 98.1268 142.062 98.0938C142.172 98.0646 142.275 98.0138 142.365 97.9444C142.456 97.875 142.531 97.7883 142.588 97.6894C142.645 97.5908 142.682 97.4818 142.697 97.3687C142.711 97.2557 142.704 97.1409 142.674 97.0309L140.746 89.8654C140.744 89.8582 140.741 89.8498 140.738 89.8412L140.734 89.8306C140.733 89.8267 140.732 89.8227 140.731 89.8187C140.73 89.815 140.728 89.8113 140.727 89.8076C140.72 89.7855 140.712 89.7639 140.702 89.7428C140.699 89.7362 140.696 89.7295 140.693 89.7228C140.684 89.7051 140.675 89.6876 140.666 89.6702L140.66 89.6595C140.658 89.6569 140.657 89.6543 140.655 89.6517C140.631 89.6112 140.604 89.5719 140.57 89.5315L140.557 89.5162C140.544 89.5024 140.532 89.4888 140.518 89.4756L140.51 89.467C140.508 89.4654 140.505 89.4617 140.503 89.4599C140.486 89.4438 140.468 89.4284 140.45 89.4138L140.43 89.3985C140.42 89.3914 140.407 89.3816 140.393 89.3727C140.39 89.3706 140.387 89.3685 140.384 89.3662C140.378 89.3619 140.372 89.3582 140.365 89.3544C140.353 89.3469 140.339 89.3386 140.325 89.331C140.315 89.3254 140.305 89.3202 140.295 89.3154C140.277 89.3061 140.259 89.2975 140.24 89.2897L140.211 89.2791C140.192 89.2716 140.177 89.2672 140.162 89.2626L140.131 89.2526C140.117 89.2492 140.097 89.244 140.077 89.2399C140.07 89.2391 140.063 89.2379 140.056 89.2362C140.049 89.2355 140.042 89.2345 140.035 89.2333C140.02 89.2309 140.004 89.2291 139.988 89.2279L139.954 89.2247C139.941 89.2243 139.921 89.2235 139.902 89.2242C139.881 89.2242 139.868 89.225 139.854 89.2257C139.841 89.2265 139.828 89.2277 139.815 89.2292C139.801 89.2308 139.79 89.2318 139.779 89.2337C139.764 89.2357 139.757 89.2371 139.749 89.2389C139.746 89.2396 139.743 89.2403 139.74 89.2408C139.721 89.2444 139.702 89.2487 139.684 89.2537C139.671 89.257 139.658 89.2603 139.645 89.2646C139.633 89.268 139.625 89.2712 139.617 89.2747C139.592 89.2836 139.568 89.2933 139.544 89.3038C139.524 89.3128 139.505 89.3228 139.486 89.3338C139.48 89.3369 139.477 89.3387 139.473 89.341L139.465 89.3458C139.45 89.355 139.434 89.3649 139.419 89.3749C139.41 89.3812 139.403 89.3856 139.397 89.39C139.383 89.4013 139.368 89.4128 139.354 89.4245L139.344 89.433C139.325 89.4489 139.306 89.4657 139.289 89.4832C139.283 89.4894 139.28 89.4931 139.277 89.4966C139.261 89.514 139.249 89.5282 139.237 89.5423C139.234 89.5453 139.229 89.5516 139.224 89.5586C139.221 89.5632 139.217 89.5677 139.213 89.572L139.212 89.5732L134.705 95.6325C134.567 95.8184 134.509 96.047 134.543 96.2762C134.577 96.5055 134.698 96.7079 134.883 96.8461C134.991 96.9269 135.117 96.9811 135.25 97.0044C135.408 97.033 135.572 97.0167 135.721 96.9572C135.871 96.8978 136.001 96.7975 136.097 96.6679L137.905 94.2367C137.927 94.2064 137.96 94.1848 137.996 94.1753C138.032 94.1659 138.071 94.1692 138.105 94.1846C138.14 94.2001 138.168 94.2268 138.185 94.2604C138.202 94.294 138.207 94.3324 138.199 94.3692C138.055 95.056 137.905 95.7417 137.75 96.4262C135.127 108.037 131.42 117.925 127.836 122.877C126.046 125.35 123.628 126.419 121.616 126.419C120.885 126.419 120.208 126.278 119.633 126.012C119.565 125.98 119.497 125.946 119.431 125.91C117.556 124.914 116.9 122.632 117.631 119.652C117.702 119.362 117.777 119.061 117.854 118.751L117.9 118.567C119.424 112.43 121.728 103.158 118.348 98.8341C118.078 98.4899 117.778 98.1817 117.454 97.9179C117.132 97.6548 116.781 97.4283 116.409 97.2428C115.464 96.7687 114.333 96.5283 113.05 96.5283C109.744 96.5283 106.739 98.9603 104.802 101C103.066 102.827 101.469 105.089 100.284 107.392H102.251C103.304 105.517 104.654 103.675 106.059 102.195C108.468 99.6596 110.951 98.2631 113.049 98.2631V98.2632Z" fill="#1A1A1A"/>
</g>
<defs>
<clipPath id="clip0_297_1177">
<rect width="96.1413" height="57.8667" fill="white" transform="translate(44.4629 36.8135)"/>
</clipPath>
<clipPath id="clip1_297_1177">
<rect width="70.432" height="62.8267" fill="white" transform="translate(53.8867 73.5176)"/>
</clipPath>
<clipPath id="clip2_297_1177">
<rect width="53.072" height="30.3387" fill="white" transform="translate(63.6411 78.3945)"/>
</clipPath>
<clipPath id="clip3_297_1177">
<rect width="23.312" height="32.6533" fill="white" transform="translate(60.9136 54.3389)"/>
</clipPath>
<clipPath id="clip4_297_1177">
<rect width="34.224" height="48.9387" fill="white" transform="translate(93.6494 47.5601)"/>
</clipPath>
<clipPath id="clip5_297_1177">
<rect width="17.0293" height="22.7333" fill="white" transform="translate(64.3027 56.7358)"/>
</clipPath>
<clipPath id="clip6_297_1177">
<rect width="23.2293" height="2.89333" fill="white" transform="translate(97.2866 50.5361)"/>
</clipPath>
<clipPath id="clip7_297_1177">
<rect width="91.1814" height="0.330667" fill="white" transform="translate(49.1748 135.931)"/>
</clipPath>
<clipPath id="clip8_297_1177">
<rect width="22.7333" height="26.7013" fill="white" transform="translate(97.5347 55.0825)"/>
</clipPath>
<clipPath id="clip9_297_1177">
<rect width="41.0027" height="42.2427" fill="white" transform="translate(99.0225 44.6665)"/>
</clipPath>
<clipPath id="clip10_297_1177">
<rect width="30.752" height="26.9493" fill="white" transform="translate(38.0972 105.179)"/>
</clipPath>
<clipPath id="clip11_297_1177">
<rect width="43.896" height="40.0933" fill="white" transform="translate(99.8491 88.8936)"/>
</clipPath>
</defs>
</svg>
