<svg viewBox="0 0 1080 1080" fill="none" xmlns="http://www.w3.org/2000/svg">
<rect x="7" y="17" width="1066" height="991" rx="16" fill="#219F94"/>
<path d="M240.113 449.519C254.616 452.937 265.833 460.002 273.764 470.712C281.921 481.194 286 493.385 286 507.285C286 528.477 278.975 544.884 264.926 556.505C251.103 567.899 231.163 573.596 205.103 573.596H79V331.596H201.704C226.177 331.596 245.438 336.951 259.488 347.661C273.537 358.371 280.562 373.98 280.562 394.488C280.562 408.616 276.823 420.58 269.345 430.378C262.094 439.949 252.35 446.329 240.113 449.519ZM154.458 425.935H183.69C190.488 425.935 195.473 424.567 198.645 421.833C202.044 419.099 203.744 414.883 203.744 409.186C203.744 403.261 202.044 398.932 198.645 396.197C195.473 393.235 190.488 391.754 183.69 391.754H154.458V425.935ZM188.788 512.754C195.586 512.754 200.571 511.501 203.744 508.994C207.143 506.26 208.842 501.93 208.842 496.005C208.842 484.384 202.158 478.573 188.788 478.573H154.458V512.754H188.788Z" fill="#F7F7F7"/>
<path fill-rule="evenodd" clip-rule="evenodd" d="M391.831 584.55C401.512 571.956 406.339 565.473 408.658 554.788L380.788 554.372C382.146 570.339 382.555 564.616 376.355 572.68C373.288 576.671 370.097 578.827 367.317 579.662C364.762 580.429 361.814 580.323 358.258 578.356L348.806 595.406C356.69 599.767 365.052 600.693 372.933 598.327C380.589 596.029 386.959 590.889 391.831 584.55Z" fill="#F7F7F7"/>
<path d="M408.658 554.788L436.025 522.6C438.716 519.435 436.464 514.574 432.307 514.574H362.929C359.014 514.574 356.694 518.949 358.894 522.184L380.788 554.372C381.696 555.707 383.207 556.506 384.823 556.506H404.94C406.371 556.506 407.731 555.878 408.658 554.788Z" fill="#F7F7F7"/>
<path fill-rule="evenodd" clip-rule="evenodd" d="M396.5 531.54C344.861 531.54 303 486.781 303 431.568C303 376.355 344.861 331.596 396.5 331.596C448.139 331.596 490 376.355 490 431.568C490 486.781 448.139 531.54 396.5 531.54ZM396.499 518.386C351.655 518.386 315.302 479.516 315.302 431.568C315.302 383.62 351.655 344.751 396.499 344.751C441.343 344.751 477.697 383.62 477.697 431.568C477.697 479.516 441.343 518.386 396.499 518.386Z" fill="#F7F7F7"/>
<path d="M337.347 431.568C337.347 467.359 363.83 496.373 396.5 496.373C429.169 496.373 455.653 467.359 455.653 431.568C455.653 395.777 429.169 366.763 396.5 366.763C363.83 366.763 337.347 395.777 337.347 431.568Z" fill="#F7F7F7"/>
<path d="M627.831 574.596C605.762 574.596 585.457 569.359 566.919 558.886C548.601 548.413 534.035 533.929 523.221 515.433C512.407 496.938 507 476.103 507 452.929C507 429.754 512.407 408.919 523.221 390.424C534.035 371.929 548.601 357.556 566.919 347.305C585.457 336.832 605.762 331.596 627.831 331.596C649.901 331.596 670.094 336.832 688.412 347.305C706.73 357.556 721.185 371.929 731.779 390.424C742.593 408.919 748 429.754 748 452.929C748 476.103 742.593 496.938 731.779 515.433C721.185 533.929 706.619 548.413 688.081 558.886C669.763 569.359 649.68 574.596 627.831 574.596ZM627.831 505.406C642.397 505.406 653.653 500.726 661.598 491.367C669.543 481.786 673.515 468.973 673.515 452.929C673.515 436.662 669.543 423.849 661.598 414.49C653.653 404.908 642.397 400.117 627.831 400.117C613.044 400.117 601.679 404.908 593.734 414.49C585.788 423.849 581.816 436.662 581.816 452.929C581.816 468.973 585.788 481.786 593.734 491.367C601.679 500.726 613.044 505.406 627.831 505.406Z" fill="#F7F7F7"/>
<path d="M910.965 573.596L840.711 468.661V573.596H765V331.596H840.711V433.454L909.942 331.596H995.543L912.329 447.469L1001 573.596H910.965Z" fill="#F7F7F7"/>
<path d="M442.029 610.979C450.545 610.979 457.987 612.708 464.355 616.167C470.8 619.625 475.749 624.428 479.201 630.577C482.654 636.725 484.38 643.719 484.38 651.558C484.38 659.32 482.654 666.314 479.201 672.539C475.749 678.764 470.8 683.682 464.355 687.295C457.987 690.83 450.545 692.597 442.029 692.597H408.079V610.979H442.029ZM439.727 669.772C445.481 669.772 450.046 668.196 453.422 665.045C456.798 661.894 458.486 657.399 458.486 651.558C458.486 645.717 456.798 641.221 453.422 638.07C450.046 634.919 445.481 633.343 439.727 633.343H433.628V669.772H439.727Z" fill="#F7F7F7"/>
<path d="M533.31 693.404C525.638 693.404 518.579 691.598 512.134 687.986C505.766 684.374 500.703 679.379 496.943 673C493.184 666.621 491.304 659.435 491.304 651.442C491.304 643.45 493.184 636.264 496.943 629.885C500.703 623.506 505.766 618.549 512.134 615.014C518.579 611.402 525.638 609.596 533.31 609.596C540.982 609.596 548.003 611.402 554.371 615.014C560.739 618.549 565.764 623.506 569.447 629.885C573.206 636.264 575.086 643.45 575.086 651.442C575.086 659.435 573.206 666.621 569.447 673C565.764 679.379 560.7 684.374 554.256 687.986C547.888 691.598 540.906 693.404 533.31 693.404ZM533.31 669.541C538.374 669.541 542.287 667.927 545.049 664.7C547.811 661.395 549.192 656.976 549.192 651.442C549.192 645.832 547.811 641.413 545.049 638.185C542.287 634.88 538.374 633.228 533.31 633.228C528.17 633.228 524.218 634.88 521.456 638.185C518.694 641.413 517.313 645.832 517.313 651.442C517.313 656.976 518.694 661.395 521.456 664.7C524.218 667.927 528.17 669.541 533.31 669.541Z" fill="#F7F7F7"/>
<path d="M582.001 651.673C582.001 643.603 583.612 636.418 586.835 630.116C590.134 623.814 594.814 618.933 600.875 615.475C606.936 611.94 614.071 610.172 622.281 610.172C629.339 610.172 635.631 611.517 641.155 614.207C646.756 616.82 651.282 620.547 654.735 625.389C658.264 630.231 660.604 635.88 661.755 642.335H634.825C633.598 639.645 631.833 637.57 629.531 636.11C627.306 634.573 624.736 633.805 621.82 633.805C617.524 633.805 614.11 635.418 611.578 638.646C609.123 641.874 607.895 646.216 607.895 651.673C607.895 657.13 609.123 661.472 611.578 664.7C614.11 667.927 617.524 669.541 621.82 669.541C624.736 669.541 627.306 668.811 629.531 667.351C631.833 665.814 633.598 663.701 634.825 661.011H661.755C660.604 667.466 658.264 673.115 654.735 677.957C651.282 682.799 646.756 686.564 641.155 689.254C635.631 691.867 629.339 693.174 622.281 693.174C614.071 693.174 606.936 691.445 600.875 687.986C594.814 684.451 590.134 679.532 586.835 673.23C583.612 666.928 582.001 659.743 582.001 651.673Z" fill="#F7F7F7"/>
<path d="M734.941 610.979V631.268H713.305V692.597H687.756V631.268H666.35V610.979H734.941Z" fill="#F7F7F7"/>
<path d="M781.575 693.404C773.902 693.404 766.844 691.598 760.399 687.986C754.031 684.374 748.967 679.379 745.208 673C741.448 666.621 739.569 659.435 739.569 651.442C739.569 643.45 741.448 636.264 745.208 629.885C748.967 623.506 754.031 618.549 760.399 615.014C766.844 611.402 773.902 609.596 781.575 609.596C789.247 609.596 796.267 611.402 802.635 615.014C809.003 618.549 814.029 623.506 817.712 629.885C821.471 636.264 823.351 643.45 823.351 651.442C823.351 659.435 821.471 666.621 817.712 673C814.029 679.379 808.965 684.374 802.52 687.986C796.152 691.598 789.17 693.404 781.575 693.404ZM781.575 669.541C786.639 669.541 790.551 667.927 793.313 664.7C796.076 661.395 797.457 656.976 797.457 651.442C797.457 645.832 796.076 641.413 793.313 638.185C790.551 634.88 786.639 633.228 781.575 633.228C776.434 633.228 772.483 634.88 769.721 638.185C766.959 641.413 765.578 645.832 765.578 651.442C765.578 656.976 766.959 661.395 769.721 664.7C772.483 667.927 776.434 669.541 781.575 669.541Z" fill="#F7F7F7"/>
<path d="M873.538 692.597L858.231 663.316H858.116V692.597H832.567V610.979H870.545C877.144 610.979 882.783 612.17 887.463 614.553C892.143 616.858 895.634 620.048 897.936 624.121C900.314 628.117 901.503 632.652 901.503 637.724C901.503 643.181 899.969 648.022 896.9 652.249C893.908 656.476 889.573 659.512 883.895 661.356L901.618 692.597H873.538ZM858.116 646.255H868.244C870.699 646.255 872.54 645.717 873.768 644.641C874.995 643.488 875.609 641.72 875.609 639.338C875.609 637.186 874.957 635.495 873.653 634.266C872.425 633.036 870.622 632.421 868.244 632.421H858.116V646.255Z" fill="#F7F7F7"/>
<path d="M275.546 612.7V693.405H250.313V653.167L237.867 693.405H216.174L203.729 653.167V693.405H178.381V612.7H209.437L227.249 661.146L244.604 612.7H275.546Z" fill="#F7F7F7"/>
<path d="M364.623 612.7L335.622 668.897V693.405H310.275V668.897L281.274 612.7H310.275L323.177 641.312L336.079 612.7H364.623Z" fill="#F7F7F7"/>
</svg>
