<svg width="275" height="183" viewBox="0 0 275 183" fill="none" xmlns="http://www.w3.org/2000/svg">
<g clip-path="url(#clip0_308_1155)">
<mask id="mask0_308_1155" style="mask-type:luminance" maskUnits="userSpaceOnUse" x="44" y="8" width="185" height="168">
<path d="M44.229 8.45312H228.899V175.322H44.229V8.45312Z" fill="white"/>
</mask>
<g mask="url(#mask0_308_1155)">
<path d="M228.16 147.524C235.602 100.579 185.565 9.14691 134.591 8.45312C81.5217 10.1923 31.0885 107.184 47.3208 147.524C51.548 158.031 66.8211 175.335 136.726 175.335C204.634 175.322 225.726 162.865 228.16 147.524Z" fill="#219F94"/>
</g>
</g>
<g clip-path="url(#clip1_308_1155)">
<mask id="mask1_308_1155" style="mask-type:luminance" maskUnits="userSpaceOnUse" x="23" y="4" width="227" height="157">
<path d="M23.8335 4.34082H249.999V160.698H23.8335V4.34082Z" fill="white"/>
</mask>
<g mask="url(#mask1_308_1155)">
<path d="M135.999 61.266C146.925 61.266 155.783 55.6649 155.783 48.7556C155.783 41.8462 146.925 36.2451 135.999 36.2451C125.072 36.2451 116.215 41.8462 116.215 48.7556C116.215 55.6649 125.072 61.266 135.999 61.266Z" fill="#1A1A1A"/>
<path d="M135.999 61.5855C124.914 61.5855 115.895 55.8365 115.895 48.7556C115.895 41.6748 124.93 35.9258 135.999 35.9258C147.068 35.9258 156.106 41.6748 156.106 48.7556C156.106 55.8365 147.088 61.5855 135.999 61.5855ZM135.999 36.5646C125.265 36.5646 116.535 42.0357 116.535 48.7556C116.535 55.4756 125.265 60.9467 135.999 60.9467C146.732 60.9467 155.466 55.4788 155.466 48.7556C155.466 42.0325 146.732 36.5646 135.999 36.5646ZM137.787 160.379C181.638 160.379 217.187 153.987 217.187 146.102C217.187 138.217 181.638 131.825 137.787 131.825C93.9364 131.825 58.3882 138.217 58.3882 146.102C58.3882 153.987 93.9364 160.379 137.787 160.379Z" fill="#1A1A1A"/>
<path d="M137.788 160.698C116.561 160.698 96.6005 159.21 81.5864 156.511C72.8044 154.93 58.0654 151.478 58.0654 146.102C58.0654 140.727 72.8012 137.271 81.5832 135.69C96.5973 132.991 116.557 131.503 137.785 131.503C159.012 131.503 178.969 132.991 193.986 135.69C202.768 137.271 217.504 140.724 217.504 146.102C217.504 151.481 202.768 154.93 193.986 156.511C178.972 159.21 159.015 160.698 137.788 160.698ZM137.788 132.142C116.596 132.142 96.6773 133.627 81.6983 136.319C67.0873 138.948 58.7053 142.512 58.7053 146.102C58.7053 149.692 67.0841 153.253 81.6951 155.882C96.6741 158.574 116.593 160.059 137.785 160.059C158.976 160.059 178.892 158.574 193.871 155.882C208.482 153.253 216.864 149.689 216.864 146.102C216.864 142.515 208.482 138.948 193.871 136.319C178.895 133.627 158.976 132.142 137.788 132.142Z" fill="#1A1A1A"/>
<path d="M247.57 54.1209C243.395 30.0581 236.229 51.1953 236.229 51.1953C234.21 68.5381 208.856 95.0474 177.513 72.3037C153.947 55.194 134.828 60.9271 134.828 60.9271C134.828 60.9271 116.653 58.5061 93.0749 73.3992C76.9634 83.5749 55.7747 94.4086 49.7473 49.4482C47.7734 38.4517 40.0952 55.0918 40.0952 55.0918C40.0952 55.0918 33.6199 137.293 97.1827 115.083C92.8829 128.366 90.669 146.019 89.6069 157.45C102.967 159.286 119.68 160.378 137.788 160.378C157.623 160.378 175.74 159.072 189.654 156.91C188.026 145.479 184.692 127.944 178.226 112.457C212.858 123.179 242.791 90.2022 247.57 54.1209Z" fill="white"/>
<path d="M100.103 106.172C100.103 106.172 106.611 106.261 104.368 116.299C102.125 126.338 98.8013 125.169 97.6496 132.518C96.4979 139.867 103.933 153.668 101.242 158.685C97.56 158.596 89.3027 157.251 89.3027 157.251C89.3027 157.251 93.8969 120.688 98.2639 110.378C99.3516 107.823 100.103 106.172 100.103 106.172ZM146.15 73.0732C146.15 73.0732 140.766 69.7133 139.15 71.3932C137.535 73.0732 137.4 78.3974 138.475 83.3001C138.853 85.012 140.363 91.1443 139.15 97.3085C137.938 103.473 138.962 123.537 139.822 132.326C141.169 146.06 142.382 148.015 142.919 160.34C140.094 160.48 137.132 160.34 137.132 160.34L136.188 64.9512C136.188 64.9512 139.15 66.6216 146.15 73.0732Z" fill="#219F94"/>
<path d="M137.787 160.698C120.192 160.698 103.514 159.682 89.5619 157.766C89.4799 157.754 89.4056 157.712 89.3543 157.647C89.3031 157.582 89.2789 157.5 89.2868 157.418C90.3969 145.466 92.5788 128.593 96.6834 115.594C80.3672 121.16 67.2503 120.247 57.6525 112.876C46.7302 104.466 42.4752 89.0364 40.8308 77.5767C39.7532 69.9444 39.4317 62.2248 39.871 54.5296C39.8737 54.4895 39.8846 54.4503 39.903 54.4146C40.3605 53.482 44.462 45.3248 47.5812 45.7528C48.8098 45.9252 49.6352 47.289 50.1087 49.9272C52.4569 67.4393 57.147 77.6086 64.5053 81.0293C72.9449 84.9641 83.5921 79.0139 92.9115 73.1276C115.591 58.8062 133.542 60.4638 134.822 60.6012C135.442 60.4255 140.078 59.2118 147.385 59.8793C154.475 60.5181 165.493 63.1658 177.724 72.0449C193.471 83.479 206.453 81.6425 214.573 78.0909C227.05 72.6325 234.888 60.1412 235.934 51.1568C235.937 51.1339 235.942 51.1113 235.95 51.0897C236.078 50.7193 239.15 42.051 242.688 42.3545C245.017 42.5461 246.802 46.4043 248.146 54.1431C248.152 54.179 248.152 54.2158 248.146 54.2517C243.82 78.3209 231.615 98.5605 215.469 108.353C204.271 115.159 191.593 116.747 178.776 112.959C185.018 128.161 188.304 145.188 189.974 156.865C189.986 156.948 189.964 157.033 189.914 157.101C189.863 157.168 189.788 157.213 189.705 157.226C175.286 159.465 156.849 160.698 137.787 160.698ZM89.9522 157.184C103.815 159.072 120.345 160.059 137.787 160.059C156.679 160.059 174.953 158.845 189.296 156.641C187.6 144.853 184.263 127.743 177.935 112.566C177.912 112.51 177.905 112.449 177.915 112.39C177.925 112.33 177.952 112.275 177.993 112.23C178.032 112.187 178.083 112.156 178.14 112.139C178.196 112.123 178.256 112.122 178.312 112.138C191.167 116.121 203.907 114.616 215.13 107.794C231.107 98.0878 243.193 78.0462 247.474 54.1846C245.897 45.1268 243.955 43.0891 242.602 42.9773C240.087 42.7697 237.384 48.8476 236.523 51.2558C235.941 56.184 233.586 61.604 229.888 66.5194C225.828 71.9171 220.61 76.1171 214.787 78.6562C206.536 82.2941 193.317 84.188 177.327 72.5623C154.155 55.7401 135.097 61.1761 134.921 61.2303C134.877 61.2415 134.831 61.2415 134.787 61.2303C134.604 61.2048 116.439 58.9946 93.2442 73.6546C85.9339 78.2729 77.811 82.9169 70.4687 82.9169C68.3153 82.9405 66.1835 82.4867 64.227 81.5882C56.6767 78.0749 51.849 67.7395 49.4752 50.007C49.0689 47.7713 48.3811 46.4937 47.4885 46.366C45.249 46.0466 41.7298 52.1661 40.5013 54.6222C40.0728 62.2548 40.3943 69.9109 41.4611 77.4809C43.0895 88.8192 47.2901 104.073 58.0492 112.352C67.567 119.672 80.6935 120.483 97.0801 114.763C97.1222 114.749 97.1667 114.744 97.2109 114.747C97.2551 114.751 97.298 114.764 97.337 114.785C97.376 114.806 97.4102 114.835 97.4375 114.87C97.4647 114.905 97.4844 114.945 97.4954 114.988C97.5098 115.045 97.5079 115.106 97.4897 115.162C93.3082 128.094 91.0847 145.083 89.9522 157.175V157.184Z" fill="#1A1A1A"/>
<path d="M97.4449 115.415C98.9709 110.943 100.583 108.912 101.719 106.542C98.9677 105.552 96.4147 104.907 93.1291 108.848C89.8435 112.789 87.428 114.099 78.8796 113.224C73.3289 112.655 71.6621 115.961 71.1758 118.334C78.147 119.538 86.6986 118.73 97.1826 115.067C97.1538 115.169 97.4737 115.322 97.4449 115.415Z" fill="#1A1A1A"/>
<path d="M204.271 84.2165C208.219 86.8418 216.985 87.059 220.712 81.8083C224.439 76.5575 227.504 74.8073 233.861 71.0864C238.74 68.231 237.937 60.7382 235.317 56.519C231.379 68.3045 218.662 81.607 201.619 81.4314C202.321 82.5173 203.22 83.4621 204.271 84.2165Z" fill="#219F94"/>
<path d="M242.086 65.0403C241.725 69.6203 241.808 76.3466 237.854 79.0934C233.9 81.8401 227.811 83.7916 226.368 90.9108C225.798 93.5088 225.917 96.2106 226.714 98.7486C237.083 87.7265 243.747 73.7915 246.665 59.3647C245.273 59.3935 242.342 61.7665 242.086 65.0403Z" fill="#1A1A1A"/>
<path d="M73.0472 86.0563C80.2808 87.1487 83.3489 80.1476 88.4037 79.4897C93.4585 78.8318 104.4 74.0218 109.445 69.8633C111.519 68.1147 113.323 66.0698 114.798 63.7949C108.495 65.625 101.041 68.6944 92.9498 73.8046C84.2766 79.2821 74.3941 85.0439 66.1816 82.1758C67.4166 83.8015 69.5313 85.523 73.0472 86.0563Z" fill="#219F94"/>
<path d="M185.789 108.682C182.008 104.415 172.88 101.266 171.869 105.769C174.234 109.29 176.797 112.674 179.548 115.904H179.608C179.167 114.748 178.708 113.599 178.233 112.457C186.59 115.048 195.522 115.159 203.942 112.777C203.034 112.295 202.074 111.914 201.082 111.643C194.831 109.832 189.555 112.949 185.789 108.682ZM137.129 160.522C137.044 160.522 136.963 160.488 136.903 160.429C136.843 160.369 136.809 160.288 136.809 160.203L135.868 64.629C135.868 64.587 135.876 64.5454 135.892 64.5066C135.908 64.4678 135.932 64.4325 135.962 64.4028C135.991 64.3732 136.027 64.3496 136.066 64.3336C136.104 64.3176 136.146 64.3094 136.188 64.3096C136.273 64.3096 136.354 64.3432 136.414 64.4031C136.474 64.463 136.508 64.5443 136.508 64.629L137.449 160.203C137.449 160.288 137.415 160.369 137.355 160.429C137.295 160.489 137.214 160.522 137.129 160.522Z" fill="#1A1A1A"/>
<path d="M247.311 38.6211C248.91 39.7421 248.91 39.1928 249.918 41.5626C249.918 41.5626 248.706 48.2698 247.999 53.8847C244.182 56.0342 239.885 55.3986 236.059 53.2459C236.238 51.1411 233.317 45.6732 227.923 41.8916C224.654 39.5952 227.181 36.7814 230.924 39.5856C233.103 41.2145 233.724 42.1407 233.724 42.1407C234.875 41.6553 235.694 42.9616 236.644 43.0446C238.842 40.1701 240.602 35.4208 236.76 28.1611C236.027 26.6057 235.768 23.6417 239.546 27.3339C241.565 29.9784 242.777 33.0829 243.296 36.5514C244.377 33.4246 244.46 29.9848 243.936 26.3502C243.67 24.009 245.375 21.8979 246.741 25.8583C247.781 30.3968 248.12 34.699 247.311 38.6211Z" fill="#219F94"/>
<path d="M238.986 49.3749C238.986 49.3749 240.167 41.93 234.248 42.3484C232.623 42.8402 232.562 43.9453 234.658 43.6706C236.753 43.396 238.625 46.1395 238.986 49.3749ZM245.222 38.0175C245.222 38.0175 241.207 37.5575 240.743 42.9872C240.519 46.2321 242.218 44.4308 242.275 43.0383C242.333 41.6457 241.939 40.2628 245.222 38.0175ZM246.837 39.4103C246.837 39.4103 243.433 39.6435 243.753 44.5621C243.894 46.3027 244.924 45.3957 245.087 44.3097C245.251 43.2238 244.262 41.662 246.837 39.4103Z" fill="white"/>
<path d="M242.106 45.3505H241.952C241.197 45.2707 240.423 44.584 240.5 43.2745C240.577 41.965 240.82 38.0142 244.56 37.7139C247.074 37.5095 248.044 39.1001 248.079 39.1703C248.112 39.2424 248.117 39.324 248.092 39.3994C248.068 39.4748 248.017 39.5385 247.948 39.5782C247.88 39.6177 247.799 39.6305 247.722 39.6142C247.644 39.5978 247.575 39.5535 247.529 39.4897C247.493 39.4322 246.697 38.1802 244.605 38.3463C241.744 38.5763 241.255 41.2879 241.133 43.3096C241.079 44.2039 241.552 44.6638 242.013 44.7117C242.544 44.7692 243.146 44.3444 243.315 43.2681C243.328 43.1835 243.375 43.1074 243.444 43.057C243.478 43.0318 243.517 43.0136 243.559 43.0035C243.6 42.9934 243.643 42.9916 243.685 42.9981C243.727 43.0046 243.767 43.0193 243.804 43.0414C243.84 43.0635 243.872 43.0926 243.897 43.1269C243.947 43.1959 243.968 43.2825 243.955 43.3671C243.738 44.7501 242.874 45.3505 242.106 45.3505Z" fill="#1A1A1A"/>
<path d="M236.814 42.9105C236.729 42.9106 236.648 42.8773 236.587 42.8179C236.557 42.7881 236.533 42.7528 236.517 42.7139C236.501 42.675 236.493 42.6332 236.493 42.5911C236.493 42.5489 236.501 42.5072 236.517 42.4683C236.533 42.4294 236.557 42.394 236.587 42.3643C236.76 42.1919 240.791 38.0526 237.358 30.697C235.899 27.5702 235.631 25.8264 236.536 25.3569C237.672 24.7724 239.838 26.8452 240.772 28.4773C242.458 31.4221 243.651 35.5454 243.302 37.3052C243.285 37.3889 243.236 37.4624 243.165 37.5099C243.093 37.5575 243.007 37.5752 242.922 37.5592C242.838 37.5433 242.764 37.495 242.715 37.4247C242.667 37.3545 242.648 37.268 242.662 37.1838C242.941 35.737 241.949 31.8405 240.205 28.7935C239.156 26.957 237.326 25.6635 236.821 25.919C236.789 25.919 236.043 26.3789 237.928 30.4192C241.559 38.1995 237.073 42.7668 237.029 42.8115C236.972 42.8704 236.896 42.9058 236.814 42.9105Z" fill="#1A1A1A"/>
<path d="M243.075 55.443C240.488 55.4022 237.955 54.7007 235.717 53.4053C235.661 53.3739 235.617 53.3267 235.588 53.2699C235.56 53.213 235.549 53.149 235.557 53.0859C235.765 51.5752 233.029 45.8837 227.731 42.1692C226.605 41.3803 226.01 40.4317 226.097 39.5694C226.123 39.2888 226.227 39.0209 226.396 38.7954C226.565 38.5699 226.794 38.3957 227.056 38.2918C228.106 37.8319 229.616 38.2216 231.116 39.3362C232.159 40.0903 233.136 40.9312 234.037 41.8498C235.179 41.457 236.83 42.0319 238.071 43.2839C239.847 45.0724 240.212 47.5094 239.05 49.8026C239.012 49.8783 238.945 49.9357 238.865 49.9623C238.784 49.989 238.696 49.9826 238.62 49.9447C238.544 49.9063 238.487 49.8397 238.46 49.7592C238.434 49.6787 238.44 49.591 238.478 49.5151C239.511 47.4774 239.188 45.3184 237.617 43.7342C236.497 42.6036 234.981 42.0798 234.098 42.5173C234.033 42.5486 233.96 42.5574 233.89 42.5424C233.82 42.5273 233.757 42.4893 233.711 42.4343C232.809 41.4755 231.813 40.6088 230.739 39.8472C229.2 38.7006 227.965 38.592 227.319 38.8891C227.164 38.9479 227.029 39.0483 226.928 39.179C226.827 39.3098 226.764 39.4659 226.746 39.6301C226.685 40.2497 227.197 41.0034 228.112 41.6486C233.301 45.2864 236.229 50.9109 236.219 52.9486C240.058 55.0438 244.403 55.3727 247.615 53.8173C249.15 47.3752 249.342 43.5202 249.346 43.4819C249.477 41.6997 249.144 40.4892 248.386 39.9686C247.557 39.3969 246.466 39.8057 246.041 40.0069C244.064 40.9364 244.035 42.6387 244.012 43.763V44.1877C243.995 44.3112 244.002 44.437 244.034 44.5577C244.065 44.6783 244.121 44.7915 244.197 44.8906C244.273 44.9896 244.368 45.0725 244.476 45.1344C244.585 45.1964 244.704 45.2361 244.828 45.2513C245.251 45.296 245.788 45.0565 245.922 44.2293C246.242 42.2107 247.429 42.0223 247.48 42.0159C247.522 42.0098 247.565 42.0121 247.606 42.0225C247.648 42.0329 247.686 42.0513 247.72 42.0767C247.754 42.1021 247.783 42.1338 247.805 42.1703C247.826 42.2067 247.841 42.247 247.847 42.289C247.853 42.3309 247.851 42.3736 247.84 42.4147C247.83 42.4558 247.811 42.4944 247.786 42.5284C247.76 42.5623 247.729 42.591 247.692 42.6126C247.656 42.6343 247.615 42.6486 247.573 42.6547C247.532 42.6547 246.789 42.8271 246.553 44.3347C246.367 45.5164 245.494 45.9731 244.761 45.8933C244.347 45.846 243.968 45.6364 243.708 45.3107C243.449 44.9849 243.329 44.5695 243.376 44.1558V43.7598C243.398 42.6323 243.433 40.5339 245.772 39.4352C246.889 38.9114 247.976 38.9146 248.754 39.4352C249.714 40.1028 250.136 41.4729 249.986 43.5138C249.986 43.5458 249.787 47.5094 248.204 54.1048C248.193 54.1499 248.173 54.1923 248.144 54.2287C248.115 54.2651 248.079 54.2948 248.037 54.3156C246.496 55.0777 244.795 55.4641 243.075 55.443Z" fill="#1A1A1A"/>
<path d="M247.314 38.9687H247.276C247.213 38.9612 247.153 38.935 247.105 38.8935C247.057 38.852 247.023 38.7971 247.006 38.7359C246.995 38.6952 246.992 38.6528 246.997 38.611C247.576 33.9831 247.541 31.3513 246.847 27.3398C246.476 25.1903 245.465 23.9287 244.927 24.0085C244.582 24.0564 244.025 24.9188 244.371 27.8125C244.838 31.5254 244.328 35.2958 242.889 38.7515C242.852 38.8264 242.787 38.8838 242.708 38.9114C242.629 38.939 242.542 38.9347 242.466 38.8994C242.39 38.864 242.331 38.8001 242.302 38.7216C242.273 38.6432 242.276 38.5564 242.31 38.48C243.678 35.1278 244.169 31.4831 243.737 27.8891C243.289 24.165 244.233 23.4624 244.835 23.3761C245.916 23.2165 247.074 24.9092 247.487 27.2312C248.194 31.313 248.232 33.9926 247.64 38.6908C247.63 38.7692 247.591 38.8409 247.531 38.8922C247.47 38.9435 247.393 38.9707 247.314 38.9687Z" fill="#1A1A1A"/>
<path d="M42.1041 42.3483C42.8143 40.6907 42.9391 41.2177 42.9391 41.2177C42.9391 41.2177 40.7892 38.5795 40.5812 35.4208C40.3733 32.262 43.0287 30.1125 43.9181 34.8107C44.8075 39.5089 45.8856 37.9024 47.9043 41.9203C49.1169 44.3253 49.9711 50.1638 49.9711 50.1638C49.4272 52.8881 43.3166 54.8045 40.0854 54.9929C40.0854 53.9613 37.9707 50.777 33.6868 53.4471C33.6868 53.4471 29.4894 55.3985 25.7079 52.7412C22.7166 50.6364 24.7001 49.4356 26.1366 50.135C27.5731 50.8345 29.9181 51.7671 32.3464 49.4292C30.7179 48.2921 30.1389 45.7817 30.5644 43.4119C27.685 41.3199 26.4853 38.3943 27.1156 34.1496C27.5827 32.5015 29.5726 31.6328 29.7422 34.1847C29.4638 36.5163 30.4908 38.3017 32.1352 39.8283L33.802 38.4869C33.1868 36.4866 33.1381 34.3553 33.6613 32.3291C33.5717 30.927 36.6206 30.0423 36.4766 32.8082C36.419 37.484 37.9291 40.9462 42.1041 42.3483Z" fill="#219F94"/>
<path d="M27.3813 33.7502C27.3813 33.7502 25.804 39.0456 30.3022 43.0124C29.1537 41.4155 27.666 37.059 28.7026 34.3474C29.7391 31.6358 27.7268 32.7377 27.3813 33.7502Z" fill="white"/>
<path d="M34.6884 38.1737C34.6884 38.1737 28.2451 40.5819 31.1148 48.0173C31.07 46.4778 30.7181 41.9489 34.634 40.0134C38.5499 38.0779 35.0307 37.931 34.6884 38.1737ZM41.4292 32.4023C40.7861 33.8097 40.5647 35.3727 40.7918 36.9028C41.0189 38.433 41.6847 39.8648 42.7089 41.0255C41.778 43.3826 39.6121 46.7745 44.4269 49.3296C45.3867 50.1026 46.852 49.2913 44.8013 47.9499C42.5618 46.4775 42.2418 43.702 44.5293 40.8211C43.0577 38.8313 41.9699 37.5602 42.1523 34.0181C42.2195 32.4471 41.4292 32.4023 41.4292 32.4023Z" fill="white"/>
<path d="M40.1175 55.4107C40.0565 55.4109 39.9967 55.3935 39.9453 55.3607C39.8938 55.3279 39.8529 55.2811 39.8273 55.2258C39.8086 55.1856 39.7985 55.142 39.7976 55.0977C39.8119 54.7329 39.7269 54.371 39.5517 54.0504C39.3765 53.7299 39.1177 53.4627 38.8026 53.2772C37.5229 52.5171 35.2226 52.8716 32.6984 54.2354C32.5513 54.3057 29.4192 55.7397 25.5289 53.0057C23.5133 51.5749 23.7693 50.5975 23.9772 50.243C24.358 49.6042 25.4105 49.4254 26.2807 49.8502C27.9027 50.6423 29.8255 51.198 31.857 49.4478C30.5325 48.3043 29.8927 46.206 30.1774 43.8584C30.4365 41.7122 31.6075 39.0676 34.1061 38.1094C35.8785 37.4228 36.5439 38.0104 36.7839 38.4288C37.2222 39.1794 36.8511 40.4186 35.9745 41.1404C35.0434 41.9493 34.4602 43.0851 34.346 44.312C34.3196 44.5905 34.3502 44.8714 34.436 45.1377C34.5218 45.4041 34.661 45.6501 34.8451 45.861C34.9045 45.9216 34.9374 46.0032 34.9365 46.088C34.9356 46.1727 34.901 46.2537 34.8403 46.3129C34.7797 46.3722 34.6979 46.4051 34.613 46.4042C34.5281 46.4033 34.447 46.3687 34.3876 46.3082C34.1369 46.0341 33.9467 45.7106 33.8293 45.3584C33.7119 45.0063 33.67 44.6334 33.7062 44.2641C33.8345 42.8601 34.5017 41.56 35.5682 40.6358C36.1824 40.128 36.5055 39.2081 36.2336 38.7386C36.0001 38.3394 35.309 38.3266 34.3364 38.7003C32.097 39.5659 31.0508 41.9709 30.8173 43.9319C30.5517 46.1804 31.214 48.2437 32.5353 49.1667C32.5935 49.2075 32.6364 49.2665 32.6573 49.3344C32.6781 49.4024 32.6757 49.4753 32.6504 49.5416C32.6338 49.5858 32.6076 49.6257 32.5736 49.6585C29.8319 52.2935 27.1349 50.984 25.9992 50.4219C25.3849 50.1217 24.7195 50.2526 24.5275 50.5688C24.3356 50.885 24.5947 51.5621 25.8968 52.4851C29.4832 55.0083 32.3785 53.6828 32.4073 53.6669C35.1586 52.1881 37.6125 51.8432 39.1257 52.7343C39.4839 52.944 39.7868 53.2359 40.0093 53.5858C40.2319 53.9358 40.3677 54.3336 40.4054 54.7464C43.9566 54.3376 48.9315 52.3989 49.4817 49.9556C49.4273 49.403 48.8995 44.2609 47.7893 42.0539C47.2826 40.9584 46.5652 39.9731 45.6778 39.1538C44.8204 38.3234 44.139 37.6655 43.6047 34.8581C43.24 32.9417 42.6129 32.3349 42.1522 32.3924C41.49 32.4754 40.7989 33.8041 40.9013 35.3883C41.0965 38.4033 43.1664 40.9776 43.1888 41.0031C43.2374 41.0608 43.2641 41.1337 43.2641 41.2091C43.2641 41.2845 43.2374 41.3575 43.1888 41.4151C42.6971 42.0836 42.2979 42.8152 42.0019 43.5902C41.7887 44.0325 41.6685 44.5138 41.6487 45.0043C41.6289 45.4948 41.7099 45.9842 41.8867 46.4423C42.6161 48.2405 44.766 49.1539 44.7884 49.1635C44.8468 49.188 44.8966 49.2292 44.9315 49.2819C44.9665 49.3345 44.9851 49.3964 44.985 49.4596C44.9849 49.5228 44.9661 49.5845 44.931 49.6371C44.8958 49.6896 44.8459 49.7307 44.7875 49.755C44.7088 49.7873 44.6205 49.7869 44.5421 49.7544C44.4429 49.7128 42.1298 48.7323 41.2948 46.6882C41.0843 46.1513 40.9862 45.577 41.0066 45.0008C41.027 44.4246 41.1653 43.8586 41.4132 43.3378C41.7154 42.5893 42.095 41.8743 42.5457 41.2043C42.0339 40.5176 40.4502 38.1861 40.2711 35.4298C40.1495 33.5936 40.9717 31.9104 42.069 31.7731C42.5329 31.7124 43.6687 31.8849 44.2285 34.7498C44.7276 37.3624 45.3131 37.9245 46.1193 38.707C47.0576 39.5759 47.8182 40.6183 48.3588 41.7763C49.5809 44.2069 50.0992 49.7227 50.1184 49.9559C50.1232 49.9866 50.1232 50.0178 50.1184 50.0485C49.5329 52.9709 43.8478 55.0757 40.1495 55.4111L40.1175 55.4107Z" fill="#1A1A1A"/>
<path d="M30.5711 43.7185C30.5071 43.7185 30.4448 43.6997 30.392 43.6642C29.1065 42.6913 28.0895 41.4084 27.4365 39.9359C26.7835 38.4633 26.5157 36.8493 26.6584 35.2452C26.8408 32.9519 27.8326 32.2046 28.6132 32.2493C29.4482 32.3068 30.2896 33.2905 30.2128 35.0056C30.0752 37.6022 32.2955 39.509 32.3179 39.5282C32.3501 39.5552 32.3765 39.5883 32.3959 39.6256C32.4152 39.6629 32.427 39.7036 32.4305 39.7454C32.4341 39.7872 32.4294 39.8293 32.4166 39.8693C32.4039 39.9093 32.3834 39.9464 32.3563 39.9785C32.3292 40.0106 32.296 40.037 32.2587 40.0563C32.2214 40.0756 32.1806 40.0874 32.1387 40.0909C32.0968 40.0945 32.0546 40.0898 32.0146 40.0771C31.9745 40.0643 31.9374 40.0439 31.9052 40.0168C31.8028 39.9306 29.4194 37.8929 29.573 34.9705C29.6401 33.7121 29.1251 32.9232 28.5876 32.8881C28.0501 32.8529 27.4486 33.5939 27.3079 35.2963C27.187 36.7863 27.4395 38.283 28.0427 39.6513C28.6459 41.0196 29.5808 42.2165 30.7631 43.1341C30.7978 43.1577 30.8274 43.188 30.8504 43.2231C30.8734 43.2583 30.8892 43.2976 30.8969 43.3388C30.9046 43.38 30.9041 43.4224 30.8954 43.4634C30.8867 43.5045 30.87 43.5434 30.8463 43.578C30.816 43.6227 30.7749 43.659 30.7268 43.6836C30.6787 43.7082 30.6251 43.7202 30.5711 43.7185ZM42.1588 42.747C42.1181 42.746 42.0779 42.7374 42.0405 42.7214C36.6689 40.5623 35.8627 36.3336 36.1282 33.1685C36.2242 32.041 36.0035 31.3192 35.5268 31.1819C35.0501 31.0445 34.3302 31.4661 34.0231 32.0442C33.9335 32.4083 33.2009 35.6661 34.1159 38.432C34.1426 38.5125 34.1362 38.6003 34.0981 38.676C34.06 38.7518 33.9934 38.8094 33.9127 38.836C33.8321 38.8627 33.7442 38.8563 33.6683 38.8183C33.5924 38.7803 33.5348 38.7137 33.508 38.6332C32.4811 35.5415 33.3737 32.0059 33.4121 31.859C33.4161 31.8367 33.4237 31.8151 33.4345 31.7951C33.8312 31.0094 34.8389 30.3323 35.6995 30.575C36.1698 30.706 36.9344 31.2138 36.7649 33.2292C36.5185 36.1739 37.2704 40.112 42.2804 42.1305C42.3588 42.1624 42.4213 42.224 42.4543 42.3019C42.4873 42.3797 42.488 42.4674 42.4564 42.5457C42.4327 42.6052 42.3917 42.6562 42.3386 42.6921C42.2856 42.7279 42.2229 42.7471 42.1588 42.747ZM34.1511 48.068C34.0983 48.0679 34.0463 48.0548 33.9998 48.0299C33.9533 48.0049 33.9137 47.9688 33.8846 47.9249C33.8554 47.8809 33.8376 47.8304 33.8328 47.7779C33.8279 47.7254 33.8362 47.6726 33.8568 47.624C34.7845 45.3883 37.5711 42.9067 37.6959 42.8013C37.7597 42.7498 37.8409 42.7249 37.9226 42.7317C38.0044 42.7385 38.0804 42.7764 38.1348 42.8377C38.1892 42.8988 38.2182 42.9783 38.2157 43.0601C38.2132 43.1418 38.1794 43.2195 38.1214 43.2771C38.0926 43.3027 35.3252 45.7812 34.4518 47.87C34.4276 47.9294 34.3859 47.9801 34.3322 48.0155C34.2785 48.0508 34.2154 48.0691 34.1511 48.068ZM41.503 58.771C41.0286 58.7745 40.5544 58.7522 40.0825 58.704C40.0299 58.6978 39.9797 58.6789 39.9362 58.6487C39.8927 58.6186 39.8573 58.5783 39.8331 58.5313C39.8089 58.4843 39.7967 58.4321 39.7975 58.3793C39.7983 58.3264 39.8122 58.2746 39.8378 58.2284C39.8688 58.1729 39.9156 58.1278 39.9722 58.0988C40.0289 58.0697 40.0928 58.058 40.1561 58.0652C40.2233 58.0652 47.0793 58.7966 50.1634 54.6317C50.2136 54.5643 50.2886 54.5193 50.3719 54.5068C50.4552 54.4942 50.5401 54.515 50.6081 54.5647C50.6766 54.6149 50.7225 54.6901 50.736 54.7739C50.7427 54.8154 50.741 54.8578 50.7311 54.8986C50.7212 54.9394 50.7033 54.9779 50.6785 55.0118C48.2374 58.3175 43.7841 58.771 41.503 58.771ZM244.218 58.496C241.013 58.499 237.849 57.783 234.959 56.4008C234.896 56.3756 234.844 56.3313 234.808 56.2742C234.772 56.2172 234.756 56.1503 234.76 56.0832C234.765 56.0162 234.791 55.9523 234.834 55.9007C234.877 55.8492 234.936 55.8126 235.001 55.7962C235.044 55.785 235.089 55.783 235.133 55.7903C235.177 55.7976 235.219 55.8141 235.256 55.8387C238.903 57.5475 242.96 58.1855 246.956 57.6784C247.041 57.667 247.127 57.6893 247.196 57.7404C247.246 57.779 247.285 57.8317 247.305 57.8918C247.326 57.952 247.329 58.0169 247.313 58.0785C247.297 58.1401 247.263 58.1956 247.215 58.2381C247.168 58.2805 247.109 58.308 247.046 58.3172C246.108 58.4443 245.163 58.504 244.218 58.496ZM69.2629 123.25H69.2182C54.5464 121.097 46.4522 111.531 42.2612 103.885C39.5038 98.8235 37.6014 93.3428 36.6305 87.6633C36.6224 87.6201 36.6232 87.5758 36.6329 87.533C36.6425 87.4902 36.6608 87.4498 36.6867 87.4143C36.7125 87.3788 36.7453 87.3489 36.7831 87.3265C36.8209 87.3041 36.8629 87.2896 36.9065 87.2839C36.95 87.2783 36.9943 87.2816 37.0366 87.2936C37.0789 87.3056 37.1183 87.3261 37.1523 87.3538C37.1864 87.3816 37.2144 87.4159 37.2347 87.4549C37.255 87.4938 37.2672 87.5365 37.2704 87.5802C38.2269 93.1878 40.1057 98.5988 42.8307 103.594C46.9513 111.106 54.8919 120.506 69.3141 122.614C69.3562 122.617 69.3972 122.628 69.4348 122.647C69.4724 122.666 69.5059 122.693 69.5333 122.725C69.5609 122.756 69.582 122.793 69.5953 122.833C69.6086 122.873 69.6138 122.915 69.6106 122.957C69.6075 122.999 69.596 123.04 69.5769 123.078C69.5578 123.115 69.5315 123.149 69.4994 123.176C69.4348 123.231 69.351 123.259 69.2661 123.253L69.2629 123.25ZM205.171 119.321C205.129 119.325 205.086 119.32 205.046 119.307C205.006 119.295 204.968 119.275 204.936 119.248C204.904 119.221 204.877 119.187 204.857 119.15C204.838 119.113 204.826 119.072 204.822 119.03C204.818 118.988 204.823 118.946 204.835 118.906C204.848 118.866 204.868 118.828 204.895 118.796C204.922 118.764 204.955 118.737 204.993 118.717C205.03 118.698 205.071 118.686 205.113 118.682C218.089 116.293 227.066 108.369 232.307 102.138C238.005 95.3762 240.66 89.0938 240.686 89.0427C240.709 88.984 240.75 88.9337 240.803 88.8984C240.856 88.863 240.918 88.8442 240.981 88.8444C241.045 88.8446 241.107 88.8637 241.159 88.8993C241.212 88.9349 241.253 88.9854 241.276 89.0443C241.308 89.1229 241.307 89.2107 241.274 89.2886C241.249 89.3525 238.564 95.7083 232.809 102.543C227.495 108.858 218.393 116.897 205.222 119.321H205.171ZM184.257 131.039C180.418 123.712 178.87 124.722 176.918 121.697C173.978 117.143 176.515 115.849 174.359 113.431C172.202 111.013 170.02 105.127 173.485 104.626C176.95 104.124 184.257 131.039 184.257 131.039ZM128.299 49.9751C126.878 53.3063 114.296 58.3686 110.274 48.7614C106.755 40.3646 114.021 36.005 117.252 36.3627C117.252 36.3627 114.296 27.1004 124.744 25.1841C122.201 31.0257 124.952 38.493 124.952 38.493C124.952 38.493 123.026 45.3854 128.299 49.9751Z" fill="#1A1A1A"/>
<path d="M118.675 54.6416H118.637C115.783 54.6416 111.963 53.626 109.976 48.8926C108.092 44.3892 109.308 41.2944 110.661 39.4898C112.385 37.1902 115.009 36.0436 116.829 36.0308C116.56 34.9002 116.055 31.8053 117.696 29.0745C119.001 26.9059 121.353 25.4974 124.69 24.8906C124.747 24.8806 124.805 24.8862 124.859 24.9067C124.913 24.9272 124.96 24.9619 124.996 25.007C125.032 25.0522 125.054 25.1062 125.062 25.1633C125.069 25.2204 125.061 25.2785 125.038 25.3313C122.578 30.9845 125.224 38.3272 125.253 38.4007C125.274 38.465 125.274 38.5344 125.253 38.5987C125.234 38.6658 123.448 45.3442 128.503 49.739C128.554 49.7835 128.59 49.843 128.605 49.9091C128.62 49.9751 128.613 50.0442 128.586 50.1063C127.713 52.1632 123.1 54.6416 118.675 54.6416ZM116.855 36.6632C115.185 36.6632 112.728 37.7939 111.173 39.8571C109.922 41.5275 108.799 44.4052 110.568 48.6307C112.417 53.0479 115.978 53.9837 118.64 53.9933H118.678C122.889 53.9933 126.955 51.7096 127.902 50.0424C123.103 45.686 124.408 39.3908 124.619 38.5125C124.299 37.6182 122.159 31.1154 124.226 25.6188C121.388 26.2416 119.379 27.5064 118.246 29.3844C116.388 32.4792 117.546 36.2289 117.571 36.28C117.588 36.3308 117.591 36.3849 117.581 36.4374C117.571 36.4898 117.548 36.5389 117.514 36.5802C117.48 36.6211 117.437 36.653 117.387 36.673C117.338 36.6931 117.285 36.7007 117.232 36.6952C117.107 36.6773 116.981 36.6667 116.855 36.6632ZM143.345 49.975C144.765 53.3063 157.348 58.3686 161.369 48.7614C164.888 40.3646 157.623 36.005 154.392 36.3627C154.392 36.3627 157.348 27.1004 146.899 25.1841C149.442 31.0385 146.685 38.5154 146.685 38.5154C146.685 38.5154 148.604 45.3854 143.345 49.975Z" fill="#1A1A1A"/>
<path d="M152.968 54.6412C148.544 54.6412 143.93 52.1627 143.051 50.0995C143.024 50.037 143.018 49.9677 143.033 49.9017C143.049 49.8356 143.085 49.7762 143.137 49.7322C148.189 45.3374 146.403 38.6589 146.384 38.5919C146.363 38.5276 146.363 38.4582 146.384 38.3939C146.413 38.3204 149.059 30.9776 146.599 25.3245C146.581 25.2847 146.572 25.2419 146.572 25.1986C146.572 25.1553 146.581 25.1124 146.598 25.0726C146.615 25.0327 146.64 24.9968 146.671 24.9669C146.702 24.937 146.74 24.9138 146.78 24.8987C146.835 24.8784 146.893 24.8732 146.95 24.8837C150.284 25.4905 152.636 26.899 153.941 29.0677C155.582 31.7953 155.077 34.8934 154.808 36.024C156.628 36.024 159.252 37.1834 160.976 39.483C162.329 41.2875 163.535 44.3824 161.661 48.8858C159.674 53.6255 155.854 54.6348 153 54.6348L152.968 54.6412ZM143.742 50.0516C144.701 51.7188 148.755 54.0024 152.965 54.0024H153.003C155.665 54.0024 159.226 53.0442 161.075 48.6399C162.844 44.4143 161.715 41.5366 160.471 39.8662C158.801 37.6305 156.084 36.4967 154.427 36.6723C154.374 36.6783 154.32 36.6708 154.271 36.6506C154.222 36.6304 154.178 36.5981 154.145 36.5567C154.111 36.5154 154.088 36.4664 154.078 36.4141C154.068 36.3618 154.072 36.3078 154.088 36.2571C154.088 36.2188 155.256 32.4692 153.397 29.3839C152.264 27.5059 150.255 26.2411 147.418 25.6183C149.484 31.115 147.341 37.6177 147.027 38.512C147.235 39.3999 148.531 45.6951 143.742 50.0516Z" fill="#1A1A1A"/>
<path d="M124.191 36.944C124.191 38.6528 123.074 39.7898 122.051 39.7195C120.473 39.6045 119.648 37.6403 119.648 35.9316C119.648 34.2228 120.665 33.5713 121.692 33.5713C122.719 33.5713 124.191 35.2385 124.191 36.944Z" fill="#219F94"/>
<path d="M122.143 40.0421H122.028C120.272 39.9176 119.328 37.8351 119.328 35.938C119.328 33.961 120.608 33.2583 121.692 33.2583C122.895 33.2583 124.511 35.0852 124.511 36.9504C124.525 37.415 124.443 37.8774 124.271 38.3092C124.099 38.741 123.839 39.1329 123.51 39.4608C123.145 39.8206 122.656 40.0284 122.143 40.0421ZM121.692 33.8907C121.289 33.8907 119.968 34.0376 119.968 35.9316C119.968 37.5637 120.755 39.3043 122.073 39.4001C122.259 39.404 122.445 39.3693 122.617 39.2984C122.789 39.2275 122.945 39.1219 123.074 38.9881C123.34 38.7195 123.547 38.3997 123.684 38.0482C123.821 37.6967 123.885 37.321 123.871 36.944C123.871 35.3695 122.511 33.8907 121.692 33.8907Z" fill="#1A1A1A"/>
<path d="M146.791 36.944C146.791 38.6528 147.907 39.7898 148.931 39.7195C150.508 39.6045 151.333 37.6403 151.333 35.9316C151.333 34.2228 150.313 33.5713 149.286 33.5713C148.259 33.5713 146.791 35.2385 146.791 36.944Z" fill="#219F94"/>
<path d="M148.834 40.0422C148.321 40.0258 147.833 39.8158 147.468 39.4545C147.139 39.126 146.881 38.7339 146.71 38.3022C146.538 37.8705 146.456 37.4084 146.47 36.9441C146.47 35.0789 148.07 33.252 149.286 33.252C150.38 33.252 151.653 33.9546 151.653 35.9316C151.653 37.8288 150.693 39.9112 148.953 40.0358L148.834 40.0422ZM149.286 33.8907C148.467 33.8907 147.11 35.3695 147.11 36.9441C147.097 37.3207 147.16 37.696 147.297 38.0474C147.433 38.3987 147.64 38.7188 147.904 38.9882C148.034 39.1213 148.191 39.2265 148.363 39.2973C148.536 39.3681 148.721 39.4031 148.908 39.4002C150.226 39.3044 151.013 37.5637 151.013 35.9316C151.013 34.044 149.692 33.8907 149.286 33.8907Z" fill="#1A1A1A"/>
<path d="M122.386 61.0738C121.475 63.8557 123.759 70.7736 126.417 72.4217C129.444 68.2121 136.335 64.3667 136.335 64.3667L127.534 55.855C127.534 55.855 123.852 56.5896 122.386 61.0738Z" fill="white"/>
<path d="M149.244 61.0738C150.115 63.8557 147.933 70.7736 145.405 72.4217C142.526 68.2121 135.955 64.3667 135.955 64.3667L144.356 55.855C144.356 55.855 147.833 56.5896 149.244 61.0738Z" fill="white"/>
<path d="M145.405 56.4714C145.405 56.4714 150.284 59.3204 149.007 62.2428C147.731 65.1652 137.145 64.1942 137.145 64.1942C137.145 64.1942 145.178 61.3453 145.028 56.3213C145.552 56.4714 145.405 56.4714 145.405 56.4714Z" fill="#219F94"/>
<path d="M126.418 72.7414C126.359 72.7407 126.301 72.7242 126.251 72.6934C123.372 70.9145 121.161 63.7921 122.092 60.9751C123.599 56.3663 127.31 55.5742 127.467 55.5455C127.518 55.5355 127.57 55.5382 127.62 55.5532C127.67 55.5682 127.715 55.5952 127.752 55.6317L136.553 64.1434C136.588 64.1779 136.615 64.2201 136.631 64.2667C136.647 64.3132 136.652 64.3628 136.646 64.4117C136.64 64.4613 136.622 64.5089 136.594 64.5505C136.566 64.5921 136.529 64.6266 136.486 64.6512C136.418 64.6896 129.636 68.5095 126.69 72.6104C126.658 72.6528 126.617 72.6869 126.57 72.7098C126.523 72.7326 126.47 72.7434 126.418 72.7414ZM127.425 56.2098C126.722 56.4046 123.922 57.4011 122.69 61.1731C121.871 63.6707 123.833 70.116 126.344 71.9844C129.067 68.3785 134.342 65.1527 135.791 64.3191L127.425 56.2098Z" fill="#1A1A1A"/>
<path d="M145.386 72.7412C145.334 72.7413 145.282 72.7285 145.236 72.704C145.189 72.6795 145.15 72.644 145.12 72.6006C142.305 68.4997 135.843 64.683 135.772 64.6447C135.729 64.6201 135.693 64.586 135.666 64.545C135.639 64.504 135.621 64.4572 135.615 64.4083C135.609 64.3603 135.614 64.3114 135.63 64.2655C135.645 64.2195 135.671 64.1777 135.705 64.1432L144.106 55.6315C144.144 55.5938 144.191 55.5661 144.242 55.5511C144.294 55.536 144.348 55.534 144.401 55.5453C144.551 55.574 148.099 56.3693 149.539 60.9749C150.418 63.7919 148.3 70.9079 145.559 72.6869C145.507 72.7211 145.448 72.7399 145.386 72.7412ZM136.447 64.3029C137.832 65.1493 142.846 68.3719 145.463 71.9683C147.853 70.0711 149.711 63.6642 148.931 61.1633C147.763 57.4169 145.127 56.4108 144.436 56.2064L136.447 64.3029Z" fill="#1A1A1A"/>
<path d="M127.771 47.0015C127.816 47.1356 127.284 52.5684 126.907 56.3979C126.862 56.8451 126.817 57.2699 126.779 57.6755C126.703 58.4576 126.849 59.2453 127.201 59.9481C127.553 60.651 128.096 61.2404 128.769 61.6487C130.445 62.6611 132.864 63.8588 135.324 64.1623C137.884 64.4817 140.881 63.2328 142.967 62.115C143.735 61.7056 144.356 61.0669 144.743 60.2881C145.129 59.5093 145.262 58.6293 145.124 57.7713L143.3 46.4521L127.771 47.0015Z" fill="#219F94"/>
<path d="M136.169 64.5294C135.877 64.5302 135.585 64.5132 135.296 64.4783C132.736 64.1589 130.257 62.9165 128.612 61.9232C127.886 61.4823 127.299 60.846 126.919 60.0873C126.539 59.3286 126.381 58.4782 126.462 57.6338L126.587 56.3722C127.371 48.4992 127.454 47.2185 127.454 47.046C127.448 47.0018 127.452 46.9569 127.465 46.9141C127.477 46.8713 127.499 46.8317 127.528 46.7977C127.557 46.7637 127.592 46.7361 127.633 46.7167C127.673 46.6973 127.717 46.6866 127.761 46.6851L143.3 46.1358C143.377 46.1348 143.451 46.1613 143.51 46.2108C143.569 46.2599 143.608 46.3285 143.62 46.4041L145.444 57.7232C145.591 58.6474 145.447 59.5945 145.031 60.4331C144.615 61.2716 143.947 61.9599 143.121 62.4023C141.246 63.4051 138.6 64.5294 136.169 64.5294ZM128.078 47.3111C128.036 48.0297 127.851 50.1154 127.224 56.4297L127.099 57.6913C127.029 58.4163 127.164 59.1465 127.491 59.7979C127.817 60.4494 128.321 60.9956 128.945 61.3738C130.545 62.332 132.941 63.5457 135.372 63.8459C137.858 64.1653 140.811 62.9197 142.827 61.8337C143.535 61.4548 144.108 60.8649 144.465 60.1459C144.822 59.427 144.946 58.6147 144.82 57.8222L143.038 46.7809L128.078 47.3111Z" fill="#1A1A1A"/>
<path d="M146.339 23.0665C151.999 42.6994 146.077 48.2472 146.077 48.2472C144.254 52.3353 134.01 57.7777 125.797 48.4516C118.157 39.7738 125.09 23.0314 125.09 23.0314C129.802 20.4539 136.706 21.1438 146.339 23.0665Z" fill="#219F94"/>
<path d="M136.063 53.9103C133.043 53.9103 129.214 52.8148 125.557 48.6627C117.879 39.937 124.507 23.6035 124.795 22.9104C124.823 22.8438 124.873 22.7887 124.936 22.7539C129.713 20.1381 136.69 20.8152 146.4 22.7539C146.458 22.7652 146.512 22.7923 146.555 22.8324C146.599 22.8724 146.63 22.9238 146.646 22.9807C152.085 41.8629 146.947 47.8163 146.342 48.4328C145.36 50.5599 142.116 53.1342 137.983 53.7634C137.347 53.8603 136.706 53.9094 136.063 53.9103ZM125.346 23.2489C124.786 24.6702 118.928 40.1574 126.037 48.2315C130.333 53.1086 134.851 53.5845 137.874 53.1214C141.819 52.5209 144.887 50.0904 145.773 48.107C145.79 48.068 145.815 48.0331 145.847 48.0048C145.901 47.9505 151.503 42.3356 146.07 23.332C136.684 21.4731 129.921 20.8152 125.346 23.2585V23.2489Z" fill="#1A1A1A"/>
<path d="M124.488 24.8776C124.488 24.8776 119.91 37.1326 123.589 44.7021C124.191 43.7663 125.09 42.6037 125.09 42.6037C125.09 42.6037 122.313 37.4935 126.555 24.4624L124.488 24.8776Z" fill="white"/>
<path d="M136.063 53.9103C133.043 53.9103 129.214 52.8148 125.557 48.6627C117.879 39.937 124.507 23.6035 124.795 22.9104C124.823 22.8438 124.873 22.7887 124.936 22.7539C129.713 20.1381 136.69 20.8152 146.4 22.7539C146.458 22.7652 146.512 22.7923 146.555 22.8324C146.599 22.8724 146.63 22.9238 146.646 22.9807C152.085 41.8629 146.947 47.8163 146.342 48.4328C145.36 50.5599 142.116 53.1342 137.983 53.7634C137.347 53.8603 136.706 53.9094 136.063 53.9103ZM125.346 23.2489C124.786 24.6702 118.928 40.1574 126.037 48.2315C130.333 53.1086 134.851 53.5845 137.874 53.1214C141.819 52.5209 144.887 50.0904 145.773 48.107C145.79 48.068 145.815 48.0331 145.847 48.0048C145.901 47.9505 151.503 42.3356 146.07 23.332C136.684 21.4731 129.921 20.8152 125.346 23.2585V23.2489Z" fill="#1A1A1A"/>
<path d="M121.391 26.1139C121.391 26.1139 132.359 20.4383 149.379 26.1139C150.524 22.9998 145.405 13.3 145.975 12.2013C146.544 11.1026 149.564 8.17381 146.541 6.16166C143.518 4.14951 129.524 3.78221 124.229 7.43922C118.934 11.0962 124.037 14.5776 123.471 16.775C122.905 18.9724 121.203 24.2838 121.391 26.1139ZM135.564 36.7336C135.564 36.7336 129.284 37.9856 123.372 44.2839C125.157 49.9339 128.871 53.6995 135.955 53.6995C143.38 53.6995 147.152 48.848 148.467 43.8496C145.853 40.9527 139.007 37.366 135.564 36.7336Z" fill="white"/>
<path d="M135.955 54.0182C129.332 54.0182 125.119 50.8658 123.065 44.379C123.047 44.3242 123.044 44.2654 123.057 44.2092C123.07 44.1529 123.098 44.1013 123.138 44.0597C129.054 37.7581 135.241 36.4678 135.504 36.4135C135.543 36.4071 135.583 36.4071 135.622 36.4135C139.061 37.0523 146.023 40.655 148.704 43.6285C148.74 43.6678 148.766 43.7157 148.779 43.7676C148.791 43.8195 148.791 43.8738 148.777 43.9255C147.984 46.9629 145.146 54.0182 135.955 54.0182ZM123.733 44.3663C125.711 50.4347 129.71 53.3794 135.955 53.3794C144.535 53.3794 147.296 46.9086 148.112 43.9383C145.44 41.0893 138.885 37.6942 135.571 37.0587C134.931 37.2056 129.166 38.6524 123.733 44.3663ZM147.286 35.9603H145.514C145.429 35.9603 145.348 35.9266 145.288 35.8667C145.228 35.8068 145.194 35.7256 145.194 35.6409C145.194 35.5562 145.228 35.4749 145.288 35.415C145.348 35.3551 145.429 35.3215 145.514 35.3215H147.114L148.662 32.5556C148.705 32.4819 148.774 32.428 148.857 32.4055C148.918 32.3891 148.983 32.3912 149.043 32.4115C149.103 32.4319 149.156 32.4695 149.194 32.5197C149.233 32.5699 149.256 32.6305 149.26 32.6937C149.265 32.7569 149.25 32.82 149.219 32.875L147.581 35.8038C147.551 35.8542 147.507 35.8955 147.455 35.9231C147.404 35.9507 147.345 35.9636 147.286 35.9603ZM125.41 35.9603H123.577C123.521 35.96 123.466 35.9451 123.418 35.9171C123.369 35.8891 123.329 35.8489 123.302 35.8006L121.603 32.8718C121.56 32.7981 121.549 32.7106 121.571 32.6285C121.593 32.5465 121.647 32.4766 121.721 32.4342C121.795 32.3919 121.883 32.3805 121.965 32.4027C122.047 32.4248 122.117 32.4787 122.159 32.5524L123.759 35.3215H125.407C125.492 35.3215 125.573 35.3551 125.633 35.415C125.693 35.4749 125.727 35.5562 125.727 35.6409C125.727 35.7256 125.693 35.8068 125.633 35.8667C125.573 35.9266 125.492 35.9603 125.407 35.9603H125.41Z" fill="#1A1A1A"/>
<path d="M130.093 31.5113C131.643 31.5113 132.899 30.9705 132.899 30.304C132.899 29.6371 131.643 29.0967 130.093 29.0967C128.544 29.0967 127.288 29.6371 127.288 30.304C127.288 30.9705 128.544 31.5113 130.093 31.5113Z" fill="white"/>
<path d="M130.093 31.8307C128.311 31.8307 126.968 31.1728 126.968 30.304C126.968 29.4353 128.311 28.7773 130.093 28.7773C131.875 28.7773 133.219 29.4161 133.219 30.304C133.219 31.1919 131.875 31.8307 130.093 31.8307ZM130.093 29.4161C128.574 29.4161 127.608 29.9399 127.608 30.304C127.608 30.6681 128.567 31.1919 130.093 31.1919C131.619 31.1919 132.579 30.6649 132.579 30.304C132.579 29.9431 131.61 29.4161 130.093 29.4161Z" fill="#1A1A1A"/>
<path d="M130.116 31.4185C130.796 31.4185 131.348 30.8781 131.348 30.2112C131.348 29.5443 130.796 29.0039 130.116 29.0039C129.436 29.0039 128.884 29.5446 128.884 30.2112C128.884 30.8778 129.436 31.4185 130.116 31.4185Z" fill="#1A1A1A"/>
<path d="M140.062 31.5113C141.611 31.5113 142.868 30.9705 142.868 30.304C142.868 29.6371 141.611 29.0967 140.062 29.0967C138.512 29.0967 137.256 29.6371 137.256 30.304C137.256 30.9705 138.512 31.5113 140.062 31.5113Z" fill="white"/>
<path d="M140.062 31.8307C138.277 31.8307 136.934 31.1728 136.934 30.304C136.934 29.4353 138.277 28.7773 140.062 28.7773C141.848 28.7773 143.188 29.4161 143.188 30.304C143.188 31.1919 141.844 31.8307 140.062 31.8307ZM140.062 29.4161C138.543 29.4161 137.573 29.9399 137.573 30.304C137.573 30.6681 138.533 31.1919 140.062 31.1919C141.592 31.1919 142.548 30.6649 142.548 30.304C142.548 29.9431 141.566 29.4161 140.062 29.4161Z" fill="#1A1A1A"/>
<path d="M140.085 31.4187C140.765 31.4187 141.316 30.8783 141.316 30.2114C141.316 29.5445 140.765 29.0041 140.085 29.0041C139.405 29.0041 138.853 29.5448 138.853 30.2114C138.853 30.878 139.405 31.4187 140.085 31.4187ZM127.08 27.6563C127.037 27.6563 126.994 27.6476 126.955 27.6308C126.915 27.6141 126.88 27.5895 126.85 27.5587C126.82 27.5278 126.797 27.4913 126.782 27.4512C126.766 27.4112 126.759 27.3685 126.761 27.3257C126.764 27.2413 126.8 27.1615 126.862 27.1037C127.671 26.4231 128.652 25.978 129.698 25.8174C130.744 25.6569 131.814 25.787 132.79 26.1935C132.852 26.2148 132.905 26.2543 132.943 26.3065C132.982 26.3588 133.003 26.4215 133.005 26.4862C133.007 26.551 132.989 26.6148 132.954 26.6692C132.919 26.7237 132.868 26.7662 132.808 26.7911C132.768 26.8075 132.725 26.8156 132.682 26.8151C132.639 26.8146 132.596 26.8053 132.557 26.7879C131.693 26.426 130.746 26.3067 129.819 26.443C128.892 26.5792 128.02 26.9657 127.297 27.5608C127.24 27.6194 127.162 27.6534 127.08 27.6563ZM143.073 27.6563C142.993 27.6552 142.917 27.6245 142.858 27.5701C142.136 26.9734 141.264 26.5852 140.336 26.4473C139.409 26.3094 138.461 26.4271 137.596 26.7876C137.518 26.8142 137.432 26.8098 137.358 26.7753C137.283 26.7408 137.224 26.6788 137.194 26.6023C137.164 26.5256 137.164 26.4403 137.196 26.3641C137.227 26.288 137.287 26.2268 137.362 26.1935C138.339 25.7868 139.409 25.6567 140.454 25.8172C141.5 25.9778 142.481 26.4229 143.29 27.1037C143.353 27.161 143.39 27.2406 143.393 27.325C143.397 27.4094 143.367 27.4917 143.31 27.5541C143.279 27.5865 143.243 27.6122 143.202 27.6298C143.161 27.6474 143.117 27.6564 143.073 27.6563ZM147.446 9.77051L145.975 12.2011L149.363 23.7693C149.363 23.7693 147.843 19.7802 145.703 18.5409C143.562 17.3017 142.267 16.8003 142.999 15.347C143.732 13.8938 140.52 14.7849 141.422 12.8175C142.324 10.85 147.446 9.77051 147.446 9.77051ZM122.332 12.7504C122.332 12.7504 123.346 14.2707 127.006 14.8328C130.666 15.3949 128.638 17.0685 127.288 17.0685C125.938 17.0685 123.289 18.2471 122.556 20.0484C123.682 17.0685 123.57 16.1679 123.57 16.1679L122.332 12.7504Z" fill="#1A1A1A"/>
<path d="M134.355 31.6136C134.346 32.6157 134.042 33.5931 133.481 34.4242C133.563 34.8156 133.736 35.1823 133.987 35.4942L135.001 35.0694C135.001 35.0694 135.801 34.223 135.228 31.5305C135.03 30.6011 134.384 30.8822 134.355 31.6136Z" fill="white"/>
<path d="M129.617 38.6782C131.951 38.6782 133.843 37.4256 133.843 35.8804C133.843 34.3352 131.951 33.0825 129.617 33.0825C127.283 33.0825 125.391 34.3352 125.391 35.8804C125.391 37.4256 127.283 38.6782 129.617 38.6782Z" fill="#219F94"/>
<path d="M129.617 38.9979C127.112 38.9979 125.071 37.6021 125.071 35.8806C125.071 34.1591 127.112 32.7666 129.617 32.7666C132.122 32.7666 134.163 34.1623 134.163 35.8806C134.163 37.599 132.125 38.9979 129.617 38.9979ZM129.617 33.4054C127.464 33.4054 125.711 34.5169 125.711 35.8806C125.711 37.2444 127.464 38.3591 129.617 38.3591C131.77 38.3591 133.523 37.2476 133.523 35.8806C133.523 34.5137 131.773 33.4054 129.617 33.4054Z" fill="#1A1A1A"/>
<path d="M141.288 38.6782C143.622 38.6782 145.514 37.4256 145.514 35.8804C145.514 34.3352 143.622 33.0825 141.288 33.0825C138.954 33.0825 137.062 34.3352 137.062 35.8804C137.062 37.4256 138.954 38.6782 141.288 38.6782Z" fill="#219F94"/>
<path d="M141.287 38.9979C138.779 38.9979 136.741 37.6021 136.741 35.8806C136.741 34.1591 138.779 32.7666 141.287 32.7666C143.796 32.7666 145.833 34.1623 145.833 35.8806C145.833 37.599 143.805 38.9979 141.287 38.9979ZM141.287 33.4054C139.134 33.4054 137.381 34.5169 137.381 35.8806C137.381 37.2444 139.134 38.3591 141.287 38.3591C143.44 38.3591 145.194 37.2476 145.194 35.8806C145.194 34.5137 143.44 33.4054 141.287 33.4054Z" fill="#1A1A1A"/>
<path d="M133.843 35.6697C133.843 35.6697 135.497 34.1015 137.061 35.7112L133.843 35.6697Z" fill="#219F94"/>
<path d="M137.062 36.0309C137.019 36.0311 136.976 36.0228 136.937 36.0063C136.897 35.9898 136.861 35.9656 136.831 35.9351C135.513 34.5745 134.121 35.8489 134.064 35.9032C134.001 35.9543 133.922 35.9798 133.841 35.9746C133.76 35.9694 133.684 35.9339 133.629 35.8752C133.573 35.8165 133.542 35.739 133.542 35.6583C133.541 35.5775 133.571 35.4996 133.626 35.44C134.265 34.8204 135.881 34.0379 137.292 35.4911C137.351 35.551 137.385 35.632 137.385 35.7163C137.385 35.8007 137.351 35.8816 137.292 35.9415C137.261 35.9709 137.225 35.9939 137.186 36.0092C137.146 36.0246 137.104 36.032 137.062 36.0309Z" fill="#1A1A1A"/>
<path d="M127.118 42.9201C129.479 41.3192 132.262 40.4523 135.116 40.4288C139.998 40.3426 144.352 42.9839 144.352 42.9839C141.343 42.3308 138.272 42.0031 135.193 42.0066C132.476 42.0165 129.768 42.3228 127.118 42.9201ZM143.335 48.4167C141.367 50.0951 138.884 51.0508 136.297 51.1252C131.99 51.221 128.148 48.3561 128.148 48.3561C128.148 48.3561 132.09 50.0105 136.297 49.953C138.725 49.9396 141.123 49.4162 143.335 48.4167ZM144.349 45.334C144.349 45.334 141.233 46.6116 136.351 46.7201C133.213 46.7425 130.093 46.2494 127.115 45.2605C127.115 45.2605 131.594 45.4107 136.351 45.334C141.108 45.2573 144.349 45.334 144.349 45.334Z" fill="#219F94"/>
<path d="M130.458 52.6486C130.458 52.6486 136.767 58.1229 144.5 54.1657C144.388 53.1744 144.187 52.1952 143.898 51.2401C143.898 51.2401 137.292 55.4241 130.458 52.6486ZM149.379 26.4332C149.345 26.4378 149.31 26.4378 149.276 26.4332C132.599 20.8694 121.648 26.3565 121.539 26.414C121.493 26.438 121.442 26.4506 121.39 26.4506C121.338 26.4506 121.287 26.438 121.241 26.414C121.195 26.3894 121.156 26.3537 121.127 26.3103C121.098 26.2668 121.08 26.2169 121.075 26.1649C120.918 24.6733 121.926 21.1185 122.675 18.5251C122.876 17.8097 123.052 17.1932 123.174 16.7174C123.33 16.1169 122.946 15.3344 122.505 14.4273C121.545 12.4855 120.265 9.82814 124.06 7.19956C129.553 3.39884 143.735 3.92263 146.733 5.92201C147.09 6.13009 147.401 6.40925 147.646 6.74219C147.891 7.07513 148.065 7.45475 148.157 7.85751C148.422 9.27879 147.408 10.732 146.736 11.6678C146.567 11.8934 146.412 12.1292 146.272 12.3737C146.131 12.7346 146.912 14.8266 147.536 16.5066C148.816 19.9592 150.415 24.2549 149.692 26.2479C149.665 26.3071 149.621 26.3566 149.565 26.3897C149.509 26.4228 149.444 26.438 149.379 26.4332ZM134.614 23.2904C139.561 23.3208 144.471 24.1358 149.161 25.705C149.555 23.7886 148.041 19.7132 146.922 16.7014C145.895 13.9419 145.415 12.5908 145.69 12.0543C145.845 11.7853 146.015 11.5251 146.199 11.275C146.81 10.4126 147.731 9.10632 147.514 7.95013C147.437 7.63093 147.296 7.33084 147.099 7.06869C146.901 6.80653 146.651 6.58795 146.365 6.42664C143.546 4.55183 129.614 4.10788 124.412 7.7042C121.062 10.0198 122.127 12.2044 123.068 14.1303C123.545 15.1076 123.996 16.0466 123.781 16.8579C123.657 17.3402 123.481 17.963 123.276 18.6816C122.662 20.8471 121.766 24.0186 121.699 25.6219C123.11 25.0119 127.71 23.2904 134.614 23.2904Z" fill="#1A1A1A"/>
<path d="M111.547 45.2483C111.463 45.2483 111.381 45.2147 111.321 45.1548C111.261 45.0949 111.228 45.0136 111.228 44.9289C111.298 40.1924 116.046 38.6082 116.094 38.5922C116.173 38.5701 116.259 38.5797 116.332 38.6188C116.405 38.658 116.46 38.7238 116.485 38.8024C116.511 38.8811 116.505 38.9666 116.469 39.0411C116.433 39.1156 116.37 39.1733 116.292 39.2023C116.113 39.2598 111.928 40.6651 111.867 44.9513C111.862 45.032 111.825 45.1075 111.766 45.1626C111.707 45.2177 111.629 45.2484 111.547 45.2483Z" fill="#219F94"/>
<path d="M51.2283 59.1255C51.2283 59.1255 47.7251 77.4073 59.5751 86.4237C67.7205 92.6166 72.161 84.2774 66.1688 82.1854C59.4408 79.8251 54.5779 73.3862 51.2283 59.1255Z" fill="#1A1A1A"/>
<path d="M130.549 87.3024C131.89 86.9894 132.757 85.7984 132.486 84.6425C132.215 83.4866 130.908 82.8035 129.568 83.1165C128.228 83.4295 127.361 84.6205 127.632 85.7763C127.903 86.9322 129.209 87.6154 130.549 87.3024Z" fill="#219F94"/>
<path d="M129.898 87.7018C129.428 87.7071 128.963 87.5974 128.545 87.3824C128.242 87.2343 127.975 87.0206 127.764 86.7569C127.554 86.4932 127.405 86.186 127.328 85.8576C127.251 85.5292 127.248 85.1878 127.32 84.8582C127.392 84.5287 127.536 84.2191 127.742 83.9521C128.171 83.3744 128.795 82.9707 129.499 82.8151C131.009 82.4606 132.487 83.2527 132.8 84.5781C132.874 84.9086 132.875 85.2511 132.803 85.5819C132.731 85.9128 132.588 86.2242 132.384 86.4945C131.952 87.0705 131.328 87.4737 130.625 87.6315C130.386 87.6813 130.143 87.7049 129.898 87.7018ZM130.218 83.3613C130.023 83.3617 129.829 83.3842 129.639 83.4283C129.086 83.5506 128.594 83.8667 128.254 84.3194C128.101 84.5121 127.993 84.737 127.939 84.9772C127.885 85.2174 127.887 85.4666 127.943 85.7062C128 85.9458 128.11 86.1696 128.265 86.3608C128.42 86.5521 128.616 86.7058 128.839 86.8107C129.348 87.0589 129.926 87.1242 130.477 86.9956C131.028 86.867 131.518 86.5523 131.863 86.1048C132.014 85.911 132.121 85.6865 132.176 85.447C132.231 85.2076 132.234 84.959 132.183 84.7187C131.984 83.8914 131.165 83.3517 130.222 83.3517L130.218 83.3613Z" fill="#1A1A1A"/>
<path d="M129.605 113.784C130.945 113.471 131.812 112.28 131.541 111.124C131.27 109.968 129.964 109.285 128.623 109.598C127.283 109.911 126.416 111.102 126.687 112.258C126.958 113.414 128.265 114.097 129.605 113.784Z" fill="#219F94"/>
<path d="M128.961 114.173C127.729 114.173 126.645 113.435 126.382 112.324C126.306 111.993 126.304 111.65 126.376 111.319C126.448 110.988 126.592 110.677 126.798 110.407C127.227 109.829 127.851 109.425 128.555 109.27C130.065 108.916 131.546 109.708 131.856 111.033C131.932 111.364 131.933 111.706 131.861 112.037C131.79 112.369 131.646 112.68 131.44 112.95C131.01 113.526 130.387 113.929 129.684 114.087C129.447 114.142 129.204 114.17 128.961 114.173ZM129.281 109.832C129.086 109.833 128.892 109.855 128.702 109.899C128.148 110.021 127.656 110.337 127.316 110.79C127.165 110.984 127.058 111.209 127.002 111.448C126.947 111.688 126.945 111.936 126.997 112.177C127.227 113.16 128.363 113.738 129.527 113.454C130.081 113.333 130.573 113.016 130.912 112.563C131.064 112.37 131.172 112.145 131.227 111.906C131.282 111.666 131.284 111.417 131.232 111.177C131.04 110.378 130.221 109.832 129.281 109.832Z" fill="#1A1A1A"/>
<path d="M129.876 144.835C131.217 144.522 132.084 143.331 131.813 142.175C131.542 141.019 130.236 140.336 128.895 140.649C127.555 140.962 126.688 142.153 126.959 143.309C127.23 144.464 128.536 145.148 129.876 144.835Z" fill="#219F94"/>
<path d="M129.223 145.223C128.754 145.228 128.291 145.119 127.873 144.904C127.571 144.754 127.305 144.54 127.094 144.277C126.882 144.014 126.731 143.708 126.651 143.381C126.331 142.055 127.317 140.688 128.823 140.337C130.33 139.986 131.815 140.774 132.125 142.1C132.2 142.43 132.202 142.773 132.13 143.104C132.058 143.435 131.915 143.747 131.709 144.016C131.279 144.593 130.656 144.996 129.953 145.153C129.713 145.203 129.468 145.227 129.223 145.223ZM129.543 140.883C129.348 140.884 129.154 140.906 128.964 140.95C127.8 141.225 127.045 142.228 127.269 143.227C127.328 143.465 127.44 143.688 127.594 143.879C127.749 144.069 127.944 144.224 128.164 144.332C128.672 144.581 129.25 144.646 129.801 144.517C130.351 144.389 130.84 144.074 131.185 143.627C131.336 143.433 131.444 143.209 131.499 142.969C131.554 142.729 131.556 142.481 131.504 142.24C131.309 141.423 130.49 140.883 129.55 140.883H129.543ZM166.549 98.6943C166.505 98.6937 166.461 98.6839 166.421 98.6655C160.24 95.9092 147.318 97.0015 147.19 97.0143C147.148 97.0185 147.104 97.0139 147.063 97.0008C147.022 96.9878 146.984 96.9665 146.952 96.9383C146.92 96.9101 146.893 96.8757 146.874 96.8372C146.855 96.7987 146.844 96.7569 146.842 96.7141L146.595 92.7504C146.59 92.6688 146.616 92.5882 146.669 92.5252C146.721 92.4622 146.795 92.4217 146.877 92.4119C147.379 92.3544 159.248 91.0034 166.6 93.8651C166.657 93.8877 166.707 93.9262 166.742 93.9761C166.778 94.0259 166.799 94.085 166.802 94.1462C166.802 94.1685 166.936 96.5799 166.869 98.3877C166.869 98.4296 166.861 98.4712 166.845 98.51C166.829 98.5488 166.805 98.5841 166.776 98.6138C166.746 98.6435 166.711 98.667 166.672 98.683C166.633 98.699 166.591 98.7072 166.549 98.7071V98.6943ZM153.275 96.1392C157.39 96.1392 162.678 96.4585 166.242 97.899C166.271 96.516 166.2 94.9414 166.175 94.3857C159.597 91.9168 149.155 92.8207 147.254 93.0123L147.459 96.3468C148.285 96.2861 150.524 96.1392 153.275 96.1392Z" fill="#1A1A1A"/>
</g>
</g>
<g clip-path="url(#clip2_308_1155)">
<mask id="mask2_308_1155" style="mask-type:luminance" maskUnits="userSpaceOnUse" x="27" y="8" width="14" height="28">
<path d="M27.0415 8.22461H40.6344V35.6794H27.0415V8.22461Z" fill="white"/>
</mask>
<g mask="url(#mask2_308_1155)">
<path d="M29.7297 8.72466C29.2784 8.88712 28.8638 9.13658 28.5096 9.45875C28.1554 9.78092 27.8685 10.1695 27.6654 10.6021C27.4624 11.0348 27.3471 11.5031 27.3262 11.9802C27.3053 12.4573 27.3792 12.9338 27.5437 13.3824L32.895 28.0508C33.1413 28.7273 33.5841 29.3157 34.1672 29.7413C34.7502 30.1669 35.4473 30.4105 36.1697 30.4411L37.6485 34.4733C37.6946 34.6645 37.7807 34.8439 37.9012 34.9997C38.0218 35.1555 38.174 35.2842 38.348 35.3774C38.522 35.4706 38.7139 35.5262 38.911 35.5405C39.108 35.5548 39.3059 35.5275 39.4917 35.4604C39.6774 35.3933 39.8468 35.2879 39.9888 35.1512C40.1308 35.0144 40.2422 34.8493 40.3156 34.6668C40.389 34.4842 40.4229 34.2883 40.4149 34.0918C40.407 33.8953 40.3574 33.7027 40.2695 33.5266L38.7934 29.4777C39.3278 28.9925 39.7051 28.3602 39.8775 27.6611C40.0499 26.9621 40.0095 26.2278 39.7615 25.5516L34.4103 10.8999C34.247 10.4509 33.9963 10.0383 33.6725 9.68589C33.3488 9.33343 32.9583 9.04799 32.5235 8.84593C32.0887 8.64386 31.6181 8.52914 31.1387 8.50833C30.6593 8.48752 30.1805 8.56104 29.7297 8.72466Z" fill="white"/>
<path d="M33.2994 25.6576C33.2343 25.655 33.1722 25.6301 33.1236 25.5869C33.075 25.5438 33.043 25.4852 33.033 25.4212C33.0231 25.3572 33.0358 25.2917 33.069 25.236C33.1023 25.1803 33.1539 25.1378 33.2152 25.1158L37.6713 23.5158C37.7407 23.493 37.8163 23.498 37.8819 23.5298C37.9476 23.5616 37.9983 23.6176 38.0231 23.686C38.048 23.7543 38.0451 23.8296 38.015 23.8959C37.9849 23.9621 37.9301 24.0141 37.8621 24.0408L33.3948 25.6408C33.3639 25.6514 33.3319 25.657 33.2994 25.6576ZM32.5417 23.5828C32.5049 23.589 32.4672 23.588 32.4307 23.5797C32.3943 23.5714 32.3598 23.5561 32.3293 23.5346C32.2678 23.4911 32.2261 23.4251 32.2134 23.351C32.2071 23.3144 32.2082 23.2768 32.2165 23.2406C32.2248 23.2043 32.2402 23.17 32.2619 23.1397C32.3055 23.0784 32.3719 23.0369 32.4463 23.0243L36.9024 21.4243C36.9373 21.4106 36.9747 21.404 37.0122 21.4049C37.0497 21.4058 37.0866 21.4142 37.1208 21.4296C37.155 21.445 37.1858 21.467 37.2112 21.4944C37.2367 21.5218 37.2564 21.554 37.2692 21.5891C37.282 21.6242 37.2875 21.6615 37.2855 21.6988C37.2836 21.7361 37.2741 21.7726 37.2577 21.8062C37.2413 21.8398 37.2183 21.8697 37.19 21.8943C37.1618 21.9189 37.1289 21.9376 37.0933 21.9493L32.6343 23.5521C32.6055 23.5676 32.5742 23.578 32.5417 23.5828ZM31.7813 21.4801C31.7155 21.4794 31.6522 21.4558 31.6022 21.4133C31.5522 21.3708 31.5187 21.3122 31.5077 21.2477C31.4967 21.1833 31.5088 21.117 31.5418 21.0604C31.5749 21.0039 31.6269 20.9607 31.6887 20.9384L36.1448 19.3356C36.2151 19.3104 36.2926 19.3141 36.3602 19.3457C36.4279 19.3774 36.4801 19.4345 36.5054 19.5045C36.5307 19.5745 36.527 19.6516 36.4952 19.7189C36.4633 19.7862 36.4059 19.8382 36.3356 19.8634L31.8767 21.4634C31.8461 21.4745 31.8138 21.4802 31.7813 21.4801ZM31.0236 19.3942C30.9577 19.3942 30.8938 19.371 30.8433 19.3287C30.7928 19.2865 30.7589 19.2279 30.7475 19.1632C30.7362 19.0985 30.748 19.032 30.7811 18.9751C30.8141 18.9183 30.8662 18.8749 30.9282 18.8525L35.3871 17.2497C35.422 17.236 35.4594 17.2294 35.4969 17.2303C35.5344 17.2312 35.5713 17.2396 35.6055 17.255C35.6397 17.2704 35.6704 17.2924 35.6959 17.3198C35.7214 17.3472 35.7411 17.3794 35.7539 17.4145C35.7667 17.4496 35.7722 17.4869 35.7702 17.5242C35.7683 17.5615 35.7588 17.598 35.7424 17.6316C35.726 17.6651 35.703 17.6951 35.6747 17.7197C35.6465 17.7443 35.6136 17.7629 35.578 17.7746L31.119 19.3747C31.0886 19.3867 31.0563 19.3933 31.0236 19.3942ZM30.266 17.3027C30.1985 17.3047 30.1326 17.2824 30.0804 17.2399C30.0281 17.1975 29.993 17.1377 29.9814 17.0716C29.9698 17.0054 29.9825 16.9374 30.0173 16.8798C30.052 16.8223 30.1064 16.7791 30.1706 16.7582L34.6183 15.1582C34.6532 15.1445 34.6905 15.1379 34.728 15.1388C34.7655 15.1397 34.8024 15.1481 34.8366 15.1635C34.8708 15.1789 34.9016 15.2009 34.9271 15.2283C34.9525 15.2557 34.9723 15.2879 34.985 15.323C34.9978 15.3581 35.0033 15.3954 35.0014 15.4327C34.9994 15.47 34.9899 15.5065 34.9735 15.5401C34.9571 15.5736 34.9341 15.6036 34.9059 15.6282C34.8776 15.6528 34.8447 15.6714 34.8091 15.6831L30.3614 17.286C30.3308 17.297 30.2985 17.3026 30.266 17.3027ZM29.5083 15.2056C29.4423 15.2056 29.3785 15.1824 29.328 15.1401C29.2775 15.0979 29.2436 15.0393 29.2322 14.9746C29.2209 14.91 29.2327 14.8434 29.2658 14.7866C29.2988 14.7297 29.3509 14.6863 29.4129 14.6639L33.8718 13.0639C33.9425 13.0394 34.0201 13.044 34.0875 13.0764C34.1548 13.1089 34.2065 13.1667 34.231 13.237C34.2556 13.3074 34.251 13.3846 34.2184 13.4516C34.1858 13.5186 34.1277 13.57 34.057 13.5944L29.6037 15.2056C29.5721 15.2111 29.5399 15.2111 29.5083 15.2056ZM34.0318 27.682C33.9658 27.682 33.902 27.6588 33.8515 27.6165C33.801 27.5743 33.7671 27.5157 33.7557 27.451C33.7443 27.3863 33.7562 27.3198 33.7892 27.2629C33.8223 27.2061 33.8744 27.1627 33.9364 27.1403L38.3953 25.5375C38.4302 25.5238 38.4675 25.5172 38.505 25.5181C38.5425 25.519 38.5795 25.5274 38.6137 25.5428C38.6479 25.5582 38.6786 25.5802 38.7041 25.6076C38.7296 25.635 38.7493 25.6672 38.7621 25.7023C38.7748 25.7374 38.7804 25.7747 38.7784 25.812C38.7764 25.8493 38.7669 25.8858 38.7505 25.9194C38.7341 25.9529 38.7111 25.9829 38.6829 26.0075C38.6547 26.0321 38.6217 26.0507 38.5861 26.0624L34.1272 27.6653C34.0966 27.6763 34.0643 27.682 34.0318 27.682Z" fill="#1A1A1A"/>
<path d="M31.0404 11.4329L30.5813 11.5979C30.4729 11.637 30.3732 11.6969 30.2881 11.7742C30.2029 11.8516 30.1339 11.9449 30.0849 12.0488C30.036 12.1527 30.0081 12.2651 30.0029 12.3798C29.9976 12.4944 30.0151 12.6089 30.0543 12.7168L38.0812 34.7996C38.1605 35.0175 38.3234 35.1951 38.5342 35.2934C38.745 35.3918 38.9864 35.4028 39.2054 35.324L39.6645 35.1587C39.8834 35.0799 40.0619 34.9177 40.1607 34.708C40.2595 34.4982 40.2706 34.2579 40.1915 34.0401L32.1645 11.9573C32.0853 11.7394 31.9224 11.5618 31.7116 11.4635C31.5008 11.3651 31.2594 11.3541 31.0404 11.4329Z" fill="#219F94"/>
<path d="M38.9001 35.6765C38.6616 35.6759 38.429 35.6025 38.2338 35.4662C38.0385 35.3299 37.8901 35.1372 37.8085 34.9142L29.7942 12.8152C29.7424 12.6729 29.7193 12.5219 29.7263 12.3708C29.7333 12.2196 29.7701 12.0713 29.8348 11.9344C29.8994 11.7974 29.9906 11.6745 30.103 11.5726C30.2155 11.4708 30.347 11.392 30.4901 11.3408L30.9503 11.1761C31.2391 11.0736 31.557 11.0888 31.8345 11.2186C32.1121 11.3483 32.3268 11.5819 32.4319 11.8686L40.449 33.9675C40.5528 34.2549 40.5379 34.5715 40.4074 34.8479C40.2769 35.1243 40.0416 35.3379 39.7531 35.4419L39.2929 35.6067C39.1672 35.653 39.0342 35.6765 38.9001 35.6765ZM31.3432 11.662C31.2734 11.6629 31.2042 11.6752 31.1383 11.6983L30.6893 11.8546C30.6154 11.8812 30.5475 11.9219 30.4894 11.9746C30.4313 12.0273 30.3842 12.0909 30.3509 12.1617C30.3175 12.2325 30.2985 12.3091 30.295 12.3873C30.2914 12.4654 30.3034 12.5434 30.3302 12.617L38.3388 34.7243C38.3651 34.7984 38.406 34.8666 38.4591 34.9248C38.5122 34.983 38.5764 35.0301 38.648 35.0634C38.7195 35.0967 38.797 35.1154 38.876 35.1186C38.9549 35.1217 39.0337 35.1092 39.1077 35.0817L39.5679 34.917C39.6417 34.8908 39.7096 34.8503 39.7675 34.7978C39.8255 34.7453 39.8724 34.6819 39.9055 34.6113C39.9387 34.5406 39.9574 34.4641 39.9606 34.3862C39.9638 34.3083 39.9515 34.2306 39.9243 34.1574L31.9044 12.0585C31.8501 11.9105 31.7391 11.79 31.5957 11.7234C31.5173 11.6845 31.4308 11.6644 31.3432 11.6648V11.662Z" fill="#1A1A1A"/>
<path d="M34.4917 24.9481L37.8983 34.3334C38.1593 35.0566 38.844 35.4727 39.4277 35.2632C40.0113 35.0538 40.2695 34.2998 40.0085 33.5878L36.6047 24.1914L34.4917 24.9481Z" fill="#1A1A1A"/>
<path d="M38.962 35.6792C38.6176 35.6783 38.2818 35.5723 37.9998 35.3756C37.7178 35.1789 37.5032 34.9008 37.385 34.5789L35.9679 30.7003C35.2248 30.6329 34.5163 30.3562 33.9255 29.9028C33.3346 29.4493 32.8857 28.8378 32.6314 28.1397L27.2801 13.4769C27.1031 12.9938 27.0237 12.4807 27.0462 11.967C27.0688 11.4533 27.193 10.9491 27.4117 10.4833C27.6304 10.0174 27.9393 9.59907 28.3207 9.25218C28.7021 8.9053 29.1486 8.6367 29.6344 8.46176C30.1206 8.28393 30.6372 8.20351 31.1547 8.22512C31.6722 8.24673 32.1802 8.36995 32.6497 8.58769C33.1191 8.80543 33.5406 9.11338 33.89 9.49384C34.2394 9.8743 34.5097 10.3198 34.6855 10.8046L40.0255 25.4674C40.2798 26.1664 40.3285 26.923 40.166 27.6485C40.0034 28.3741 39.6364 29.0385 39.1079 29.5638L40.511 33.4424C40.6651 33.8566 40.6486 34.3145 40.4652 34.7166C40.2818 35.1187 39.9463 35.4325 39.5316 35.5898C39.3483 35.652 39.1556 35.6822 38.962 35.6792ZM30.9702 8.78288C30.5786 8.78391 30.1902 8.85289 29.8225 8.98673C29.4058 9.1367 29.023 9.36702 28.696 9.66448C28.369 9.96194 28.1042 10.3207 27.9168 10.7202C27.7293 11.1197 27.623 11.552 27.6038 11.9925C27.5846 12.433 27.6529 12.8729 27.8049 13.287L33.1589 27.9498C33.3865 28.5746 33.7956 29.1179 34.3343 29.5107C34.8729 29.9035 35.5167 30.128 36.1839 30.1558C36.2392 30.1586 36.2924 30.1776 36.3368 30.2104C36.3812 30.2432 36.4149 30.2883 36.4337 30.3401L37.9125 34.3891C37.9647 34.6227 38.0909 34.8335 38.2725 34.9904C38.4541 35.1473 38.6816 35.242 38.9214 35.2605C39.1611 35.2791 39.4006 35.2206 39.6044 35.0935C39.8082 34.9665 39.9657 34.7777 40.0536 34.5549C40.1118 34.4071 40.1377 34.2485 40.1294 34.0899C40.1212 33.9313 40.0791 33.7763 40.0059 33.6351L38.5299 29.5862C38.5107 29.5343 38.5074 29.478 38.5204 29.4244C38.5334 29.3707 38.5621 29.322 38.6028 29.2846C39.0975 28.8365 39.4469 28.2518 39.6063 27.6053C39.7658 26.9587 39.728 26.2796 39.498 25.6545L34.1467 10.9945C33.9107 10.345 33.4789 9.78401 32.9103 9.38814C32.3417 8.99227 31.6641 8.78087 30.9702 8.78288Z" fill="#1A1A1A"/>
</g>
</g>
<g clip-path="url(#clip3_308_1155)">
<mask id="mask3_308_1155" style="mask-type:luminance" maskUnits="userSpaceOnUse" x="227" y="6" width="25" height="35">
<path d="M227.333 6.62549H251.059V40.4519H227.333V6.62549Z" fill="white"/>
</mask>
<g mask="url(#mask3_308_1155)">
<path d="M229.821 38.9963C229.769 38.9961 229.717 38.9818 229.673 38.9547C229.628 38.9277 229.591 38.8891 229.566 38.8428C229.541 38.7966 229.53 38.7445 229.532 38.6922C229.534 38.6398 229.551 38.589 229.58 38.5453L250.527 6.75556C250.548 6.72297 250.575 6.69482 250.606 6.67276C250.638 6.6507 250.674 6.63517 250.711 6.62707C250.749 6.61898 250.788 6.61848 250.826 6.6256C250.864 6.63273 250.9 6.64734 250.932 6.66858C250.965 6.68982 250.992 6.71727 251.014 6.74932C251.035 6.78138 251.05 6.8174 251.058 6.85528C251.065 6.89317 251.065 6.93216 251.057 6.96999C251.049 7.00782 251.034 7.04372 251.012 7.07561L230.065 38.8654C230.039 38.9057 230.002 38.9388 229.96 38.9616C229.917 38.9845 229.869 38.9964 229.821 38.9963Z" fill="#1A1A1A"/>
<path d="M245.568 21.3988L239.517 17.4302L231.778 29.256L237.829 33.2247L245.568 21.3988Z" fill="white"/>
<path d="M237.826 33.5126C237.769 33.513 237.714 33.4968 237.666 33.466L231.615 29.4974C231.552 29.4566 231.507 29.393 231.49 29.3199C231.474 29.2447 231.488 29.1662 231.53 29.1017L239.27 17.2686C239.291 17.2364 239.318 17.2087 239.35 17.1871C239.382 17.1654 239.417 17.1502 239.455 17.1424C239.492 17.1345 239.531 17.1342 239.569 17.1414C239.606 17.1485 239.642 17.1631 239.674 17.1842L245.726 21.1528C245.789 21.197 245.834 21.2634 245.851 21.339C245.866 21.4143 245.852 21.4927 245.81 21.5572L238.067 33.3933C238.039 33.4312 238.003 33.4618 237.961 33.4826C237.919 33.5033 237.873 33.5136 237.826 33.5126ZM232.176 29.1686L237.741 32.8114L245.162 21.4641L239.599 17.8301L232.176 29.1686Z" fill="#1A1A1A"/>
<path d="M238.4 32.9811L231.772 28.6348L229.979 31.375L236.606 35.7216L238.4 32.9811Z" fill="#219F94"/>
<path d="M236.602 36.0122C236.546 36.0124 236.49 35.9962 236.442 35.9656L229.816 31.6158C229.751 31.5737 229.706 31.5078 229.691 31.4325C229.676 31.3569 229.691 31.2784 229.734 31.2143L231.527 28.4735C231.57 28.4093 231.635 28.3643 231.711 28.3485C231.786 28.3327 231.864 28.3473 231.929 28.3891L238.555 32.736C238.62 32.7782 238.664 32.8441 238.68 32.9194C238.696 32.9946 238.681 33.073 238.64 33.1375L236.846 35.8783C236.804 35.9426 236.738 35.9875 236.663 36.0034C236.643 36.0092 236.623 36.0122 236.602 36.0122ZM230.379 31.29L236.518 35.3168L237.994 33.0648L231.853 29.0292L230.379 31.29Z" fill="#1A1A1A"/>
<path d="M247.554 18.99L240.927 14.644L239.133 17.3843L245.761 21.7308L247.554 18.99Z" fill="#219F94"/>
<path d="M245.758 22.0234C245.702 22.0224 245.647 22.0052 245.601 21.9739L238.974 17.627C238.91 17.5848 238.865 17.5189 238.849 17.4437C238.833 17.3684 238.848 17.29 238.89 17.2255L240.683 14.4818C240.725 14.4176 240.791 14.3726 240.866 14.3568C240.941 14.341 241.02 14.3556 241.084 14.3974L247.711 18.7443C247.743 18.7652 247.771 18.7923 247.793 18.824C247.814 18.8557 247.829 18.8913 247.837 18.9289C247.845 18.9665 247.845 19.0053 247.838 19.043C247.831 19.0808 247.816 19.1167 247.795 19.1487L246.002 21.8866C245.976 21.9281 245.94 21.9624 245.897 21.9863C245.855 22.0102 245.807 22.023 245.758 22.0234ZM239.541 17.3012L245.676 21.328L247.15 19.076L241.009 15.0463L239.541 17.3012ZM240.878 21.5078C240.821 21.5074 240.765 21.4902 240.718 21.4583L238.064 19.7126C238.032 19.6917 238.004 19.6646 237.983 19.6329C237.961 19.6012 237.946 19.5656 237.938 19.528C237.93 19.4904 237.93 19.4516 237.937 19.4139C237.944 19.3761 237.959 19.3402 237.98 19.3082C238.022 19.2442 238.087 19.1993 238.161 19.1829C238.236 19.1666 238.314 19.1802 238.378 19.2209L241.035 20.9666C241.088 21.0009 241.128 21.0516 241.15 21.111C241.172 21.1704 241.174 21.2353 241.155 21.2958C241.137 21.3563 241.099 21.4092 241.048 21.4464C240.997 21.4836 240.935 21.5031 240.872 21.502L240.878 21.5078ZM238.544 22.715C238.487 22.7154 238.432 22.6992 238.384 22.6684L236.8 21.621C236.76 21.5945 236.728 21.5587 236.705 21.5166C236.682 21.4746 236.67 21.4276 236.67 21.3798C236.67 21.332 236.682 21.285 236.704 21.2427C236.726 21.2005 236.759 21.1644 236.798 21.1377C236.846 21.105 236.902 21.0873 236.96 21.0867C237.018 21.0862 237.074 21.1029 237.123 21.1348L238.704 22.1822C238.768 22.2244 238.813 22.2904 238.829 22.3656C238.844 22.4408 238.83 22.5193 238.788 22.5837C238.761 22.6242 238.725 22.6573 238.682 22.6802C238.64 22.7031 238.592 22.7152 238.544 22.715ZM238.352 25.3397C238.295 25.3401 238.24 25.3239 238.192 25.2931L235.538 23.5474C235.498 23.5216 235.464 23.4859 235.44 23.4437C235.417 23.4015 235.404 23.354 235.403 23.3056C235.403 23.2572 235.414 23.2094 235.437 23.1666C235.459 23.1237 235.492 23.0872 235.532 23.0603C235.58 23.0279 235.637 23.0107 235.695 23.011C235.754 23.0112 235.81 23.0289 235.858 23.0618L238.512 24.8075C238.576 24.8497 238.621 24.9156 238.637 24.9909C238.653 25.0661 238.638 25.1445 238.596 25.209C238.57 25.2495 238.533 25.2826 238.491 25.3055C238.448 25.3283 238.4 25.3399 238.352 25.3397ZM236.018 26.5466C235.961 26.547 235.906 26.5308 235.858 26.5L234.274 25.4555C234.242 25.4343 234.215 25.4071 234.193 25.3753C234.172 25.3435 234.157 25.3078 234.149 25.2702C234.142 25.2326 234.142 25.1939 234.149 25.1563C234.157 25.1187 234.172 25.0829 234.193 25.051C234.214 25.0187 234.241 24.9908 234.273 24.9691C234.305 24.9475 234.341 24.9324 234.379 24.9248C234.417 24.9172 234.456 24.9173 234.494 24.925C234.532 24.9326 234.568 24.9478 234.6 24.9696L236.181 26.0141C236.242 26.0571 236.285 26.1224 236.3 26.1961C236.314 26.2699 236.3 26.3465 236.259 26.4098C236.234 26.4509 236.198 26.4849 236.156 26.5088C236.114 26.5327 236.066 26.5457 236.018 26.5466ZM235.826 29.1721C235.77 29.1726 235.714 29.1564 235.666 29.1256L233.013 27.3799C232.98 27.3591 232.952 27.3322 232.93 27.3005C232.908 27.2688 232.892 27.233 232.884 27.1953C232.876 27.1575 232.876 27.1185 232.883 27.0806C232.89 27.0426 232.905 27.0065 232.926 26.9742C232.947 26.942 232.974 26.9143 233.007 26.8927C233.039 26.8712 233.075 26.8563 233.112 26.8488C233.15 26.8413 233.189 26.8415 233.227 26.8492C233.265 26.857 233.301 26.8722 233.332 26.894L235.986 28.6397C236.038 28.6744 236.077 28.7246 236.098 28.7832C236.119 28.8417 236.12 28.9054 236.102 28.9649C236.084 29.0245 236.048 29.0767 235.998 29.114C235.949 29.1513 235.888 29.1717 235.826 29.1721Z" fill="#1A1A1A"/>
<path d="M246.182 16.2832L243.935 14.7993L243.094 16.0769L245.34 17.5608L246.182 16.2832Z" fill="#1A1A1A"/>
<path d="M245.354 17.85C245.297 17.8504 245.241 17.8342 245.194 17.8034L242.947 16.3196C242.915 16.2985 242.888 16.2712 242.866 16.2394C242.845 16.2076 242.83 16.1719 242.822 16.1343C242.815 16.0967 242.815 16.058 242.822 16.0204C242.83 15.9828 242.844 15.947 242.866 15.9152L243.706 14.6379C243.727 14.6059 243.754 14.5784 243.786 14.557C243.818 14.5355 243.853 14.5206 243.891 14.5131C243.928 14.5055 243.967 14.5054 244.005 14.5129C244.042 14.5203 244.078 14.5351 244.11 14.5564L246.356 16.0403C246.42 16.0829 246.464 16.1491 246.48 16.2243C246.495 16.2995 246.48 16.3776 246.438 16.4418L245.598 17.7191C245.577 17.7512 245.549 17.7788 245.517 17.8003C245.485 17.8217 245.45 17.8367 245.412 17.8442C245.393 17.8491 245.373 17.8511 245.354 17.85ZM243.496 15.9937L245.258 17.1575L245.778 16.3632L244.017 15.1994L243.496 15.9937ZM232.52 39.2378L228.231 36.4054L227.624 37.3257L231.914 40.1581L232.52 39.2378Z" fill="#1A1A1A"/>
<path d="M231.911 40.4518C231.854 40.4515 231.798 40.4343 231.751 40.4023L227.464 37.5713C227.432 37.5501 227.405 37.5227 227.383 37.4908C227.362 37.4588 227.347 37.4229 227.339 37.3851C227.327 37.3123 227.342 37.2374 227.383 37.1756L227.987 36.2562C228.019 36.2082 228.065 36.1707 228.118 36.1485C228.171 36.1263 228.23 36.1203 228.286 36.1314C228.324 36.1387 228.359 36.1535 228.391 36.1747L232.678 39.0057C232.743 39.048 232.787 39.1139 232.803 39.1891C232.819 39.2643 232.804 39.3427 232.763 39.4072L232.155 40.3296C232.128 40.3685 232.091 40.4 232.049 40.4214C232.006 40.4427 231.959 40.4531 231.911 40.4518ZM228.028 37.2513L231.83 39.7622L232.12 39.3287L228.313 36.8119L228.028 37.2513Z" fill="#1A1A1A"/>
</g>
</g>
<g clip-path="url(#clip4_308_1155)">
<mask id="mask4_308_1155" style="mask-type:luminance" maskUnits="userSpaceOnUse" x="251" y="1" width="11" height="11">
<path d="M254.4 1.15967L261.281 3.9795L258.22 11.3904L251.339 8.57057L254.4 1.15967Z" fill="white"/>
</mask>
<g mask="url(#mask4_308_1155)">
<path d="M253.439 4.16934C253.439 4.16934 256.711 1.8953 259.703 3.67767C261.525 4.76628 260.017 6.88196 258.265 5.66609C256.513 4.45022 254.975 3.86168 253.439 4.16934Z" fill="#219F94"/>
<path d="M253.341 4.40731C253.278 4.38504 253.226 4.33987 253.196 4.28109C253.172 4.22675 253.168 4.16621 253.185 4.10958C253.201 4.05296 253.236 4.00368 253.285 3.96997C253.428 3.86184 256.738 1.60024 259.84 3.45003C260.468 3.82687 260.815 4.37223 260.792 4.95249C260.78 5.20199 260.7 5.44327 260.561 5.65105C260.423 5.85883 260.23 6.02546 260.003 6.13349C259.438 6.40832 258.752 6.31621 258.117 5.87519C256.277 4.59267 254.856 4.14959 253.493 4.42219C253.442 4.43229 253.389 4.42711 253.341 4.40731ZM256.335 4.2802C257.07 4.59366 257.768 4.986 258.417 5.45012C258.89 5.77762 259.38 5.84519 259.773 5.66664C259.916 5.59873 260.038 5.49405 260.126 5.36343C260.214 5.23281 260.265 5.08102 260.274 4.92378C260.287 4.53707 260.039 4.1685 259.573 3.89131C257.734 2.80391 255.756 3.33634 254.594 3.84443C255.193 3.89677 255.781 4.04389 256.335 4.2802Z" fill="#1A1A1A"/>
<path d="M253.94 7.45289C253.94 7.45289 256.689 7.18918 257.865 9.26171C258.582 10.5206 256.952 11.2737 256.319 9.96043C255.687 8.64718 254.961 7.7851 253.94 7.45289Z" fill="#219F94"/>
<path d="M256.829 10.8205C256.491 10.672 256.222 10.4026 256.075 10.0666C255.421 8.71096 254.74 7.97859 253.851 7.69496C253.796 7.67462 253.749 7.63644 253.719 7.58663C253.688 7.53683 253.675 7.47832 253.682 7.42065C253.689 7.36298 253.716 7.30953 253.758 7.26901C253.8 7.22848 253.854 7.20327 253.913 7.19747C254.033 7.18564 256.835 6.94603 258.091 9.13772C258.218 9.32832 258.29 9.54924 258.3 9.77671C258.31 10.0042 258.257 10.2296 258.146 10.4287C258.047 10.5858 257.905 10.713 257.738 10.7966C257.57 10.8802 257.383 10.9172 257.195 10.9036C257.07 10.8962 256.946 10.8683 256.829 10.8205ZM255.052 7.76983C255.703 8.34769 256.219 9.05953 256.563 9.85484C256.613 9.99758 256.702 10.1243 256.819 10.2214C256.936 10.3185 257.078 10.3822 257.229 10.4058C257.323 10.4137 257.418 10.396 257.502 10.3548C257.587 10.3135 257.658 10.2501 257.709 10.1715C257.769 10.0501 257.795 9.91466 257.783 9.77955C257.771 9.64444 257.723 9.51479 257.642 9.40449C257.012 8.28973 255.883 7.89921 255.052 7.76983Z" fill="#1A1A1A"/>
</g>
</g>
<defs>
<clipPath id="clip0_308_1155">
<rect width="184.938" height="167.01" fill="white" transform="translate(44.229 8.45312)"/>
</clipPath>
<clipPath id="clip1_308_1155">
<rect width="226.188" height="156.501" fill="white" transform="translate(23.8335 4.34082)"/>
</clipPath>
<clipPath id="clip2_308_1155">
<rect width="13.75" height="27.6446" fill="white" transform="translate(27.0415 8.22461)"/>
</clipPath>
<clipPath id="clip3_308_1155">
<rect width="23.8333" height="34.0417" fill="white" transform="translate(227.333 6.62549)"/>
</clipPath>
<clipPath id="clip4_308_1155">
<rect width="7.5531" height="8.23446" fill="white" transform="matrix(0.925308 0.379219 -0.381794 0.924248 254.4 1.15967)"/>
</clipPath>
</defs>
</svg>
